SplineFontDB: 3.0
FontName: WebAtlas-Light
FullName: WebAtlas-Light
FamilyName: WebAtlas
Weight: Light
Copyright: Copyright (c) 2018, Louis MORAES.
Version: 
ItalicAngle: 0
UnderlinePosition: -170
UnderlineWidth: 50
Ascent: 800
Descent: 200
InvalidEm: 0
sfntRevision: 0x00010000
LayerCount: 2
Layer: 0 1 "Arri+AOgA-re" 1
Layer: 1 1 "Avant" 0
XUID: [1021 206 1625637039 14079]
StyleMap: 0x0040
FSType: 8
OS2Version: 3
OS2_WeightWidthSlopeOnly: 0
OS2_UseTypoMetrics: 0
CreationTime: 1375896762
ModificationTime: 1531085572
PfmFamily: 81
TTFWeight: 400
TTFWidth: 5
LineGap: 0
VLineGap: 0
Panose: 0 0 5 0 0 0 0 0 0 0
OS2TypoAscent: 700
OS2TypoAOffset: 0
OS2TypoDescent: -201
OS2TypoDOffset: 0
OS2TypoLinegap: 299
OS2WinAscent: 999
OS2WinAOffset: 0
OS2WinDescent: 201
OS2WinDOffset: 0
HheadAscent: 999
HheadAOffset: 0
HheadDescent: -201
HheadDOffset: 0
OS2SubXSize: 650
OS2SubYSize: 600
OS2SubXOff: 0
OS2SubYOff: 75
OS2SupXSize: 650
OS2SupYSize: 600
OS2SupXOff: 0
OS2SupYOff: 350
OS2StrikeYSize: 50
OS2StrikeYPos: 292
OS2CapHeight: 690
OS2XHeight: 487
OS2Vendor: 'UKWN'
OS2CodePages: 20000097.00000000
OS2UnicodeRanges: 00000207.00000000.00000000.00000000
MarkAttachClasses: 1
DEI: 91125
TtTable: prep
MPPEM
PUSHW_1
 200
GT
IF
PUSHB_2
 1
 1
INSTCTRL
EIF
PUSHW_2
 2048
 2048
MUL
DUP
PUSHB_1
 1
SWAP
WCVTP
DUP
PUSHB_1
 3
SWAP
WCVTF
PUSHB_1
 20
RCVT
DUP
DUP
MPPEM
PUSHB_1
 14
LTEQ
MPPEM
PUSHB_1
 6
GTEQ
AND
IF
PUSHB_1
 52
ELSE
PUSHB_1
 40
EIF
ADD
FLOOR
DUP
ROLL
NEQ
IF
PUSHB_1
 2
CINDEX
SUB
PUSHB_1
 1
RCVT
MUL
SWAP
DIV
PUSHB_1
 2
SWAP
WCVTP
PUSHB_4
 10
 10
 5
 4
CALL
PUSHB_4
 11
 16
 5
 4
CALL
PUSHB_4
 17
 22
 5
 4
CALL
EIF
PUSHB_3
 4
 40
 8
RCVT
GT
WCVTP
PUSHB_4
 11
 16
 6
 4
CALL
PUSHB_2
 6
 1
WCVTP
PUSHB_2
 36
 1
GETINFO
LTEQ
IF
PUSHB_1
 64
GETINFO
IF
PUSHB_2
 6
 3
WCVTP
PUSHB_2
 38
 1
GETINFO
LTEQ
IF
PUSHW_1
 1024
GETINFO
IF
PUSHB_2
 6
 1
WCVTP
EIF
EIF
EIF
EIF
PUSHW_1
 511
SCANCTRL
PUSHB_1
 4
SCANTYPE
PUSHB_2
 5
 0
WCVTP
EndTTInstrs
TtTable: fpgm
PUSHB_1
 0
FDEF
PUSHB_1
 32
ADD
FLOOR
ENDF

StartChar: asterisk
Encoding: 42 42 3
Width: 590
VWidth: 0
GlyphClass: 2
Flags: W
LayerCount: 2
Fore
SplineSet
322.644233824 785.013839939 m 0,0,1
 337.938364323 785.665664299 337.938364323 785.665664299 343.427485999 780.3819518 c 128,-1,2
 348.916607675 775.0982393 348.916607675 775.0982393 349.140625 760.114439005 c 0,3,4
 349.246599809 733.405283049 349.246599809 733.405283049 349.457149525 680.385745386 c 2,5,-1
 349.538474233 659.906979241 l 1,6,-1
 369.038707593 666.162167122 l 2,7,8
 434.377442105 687.121201443 434.377442105 687.121201443 445.012532711 690.568194306 c 0,9,10
 460.577647957 695.672151131 460.577647957 695.672151131 467.253358917 691.868677816 c 128,-1,11
 473.929069876 688.065204502 473.929069876 688.065204502 477.739422262 671.79623465 c 0,12,13
 480.761482999 658.900699952 480.761482999 658.900699952 477.180570029 652.658444952 c 128,-1,14
 473.599657059 646.416189952 473.599657059 646.416189952 460.716199189 642.225648782 c 0,15,16
 446.400021846 637.543554716 446.400021846 637.543554716 420.212767915 628.900470906 c 128,-1,17
 394.05948945 620.268600674 394.05948945 620.268600674 384.957002206 617.285137631 c 2,18,-1
 365.472282631 610.898757822 l 1,19,-1
 377.458844808 594.262578237 l 2,20,21
 416.404293744 540.210092382 416.404293744 540.210092382 424.125002339 529.586624913 c 0,22,23
 428.551010919 523.481242289 428.551010919 523.481242289 430.644273541 518.280168605 c 0,24,25
 435.328954936 510.658360435 435.328954936 510.658360435 430.653735913 503.410508334 c 128,-1,26
 425.978516891 496.162656232 425.978516891 496.162656232 407.574657439 489.016519147 c 0,27,28
 394.278628654 484.151224694 394.278628654 484.151224694 382.958942395 499.738857862 c 0,29,30
 374.171669261 511.775896896 374.171669261 511.775896896 358.003551605 533.818000734 c 128,-1,31
 341.845308782 555.858359508 341.845308782 555.858359508 335.839227719 564.065504067 c 2,32,-1
 323.736282056 580.603837224 l 1,33,-1
 311.63085279 564.067321884 l 2,34,35
 273.540218101 512.033944876 273.540218101 512.033944876 264.636612165 499.911610136 c 0,36,37
 255.977531462 488.667918632 255.977531462 488.667918632 248.544584322 487.644258343 c 128,-1,38
 241.111637182 486.620598054 241.111637182 486.620598054 229.663933003 494.988249627 c 128,-1,39
 218.044991371 503.434886266 218.044991371 503.434886266 216.801195275 510.862108125 c 128,-1,40
 215.557399179 518.289329984 215.557399179 518.289329984 223.553423725 529.763774395 c 0,41,42
 231.464072951 540.750787208 231.464072951 540.750787208 248.32227634 564.099223173 c 128,-1,43
 265.174920151 587.444471068 265.174920151 587.444471068 270.088134452 594.257303855 c 2,44,-1
 282.069795867 610.871493073 l 1,45,-1
 262.613679139 617.278599716 l 2,46,47
 198.517423428 638.386179993 198.517423428 638.386179993 186.92581356 642.191859136 c 0,48,49
 173.230738585 646.873425862 173.230738585 646.873425862 169.900105692 653.648242237 c 128,-1,50
 166.569472798 660.423058613 166.569472798 660.423058613 171.056423222 674.045185389 c 0,51,52
 175.551834387 687.896027613 175.551834387 687.896027613 182.289419376 691.349153139 c 128,-1,53
 189.027004366 694.802278665 189.027004366 694.802278665 202.570616566 690.530908641 c 0,54,55
 214.069094971 686.783428837 214.069094971 686.783428837 239.82146346 678.555347565 c 128,-1,56
 265.503599828 670.349706 265.503599828 670.349706 278.388898527 666.175430469 c 2,57,-1
 297.939137258 659.842004673 l 1,58,-1
 298.011625435 680.392402776 l 2,59,60
 298.058478242 693.675173444 298.058478242 693.675173444 298.163944503 720.276440392 c 128,-1,61
 298.2694002 746.862993364 298.2694002 746.862993364 298.327637517 760.082864294 c 0,62,63
 298.531411833 773.892819533 298.531411833 773.892819533 303.682585803 779.153932928 c 128,-1,64
 308.833759772 784.415046323 308.833759772 784.415046323 322.644233824 785.013839939 c 0,0,1
EndSplineSet
EndChar

StartChar: plus
Encoding: 43 43 4
Width: 640
VWidth: 37
GlyphClass: 2
Flags: W
LayerCount: 2
Fore
SplineSet
334.502929688 576.790039062 m 0,0,1
 350.013671875 576.790039062 350.013671875 576.790039062 355.862304688 570.116210938 c 128,-1,2
 361.7109375 563.442382812 361.7109375 563.442382812 361.7109375 545.858398438 c 2,3,-1
 361.7109375 390.946289062 l 1,4,-1
 361.7109375 375.946289062 l 1,5,-1
 374.685546875 375.946289062 l 1,6,-1
 520.178710938 375.946289062 l 2,7,8
 537.858398438 375.946289062 537.858398438 375.946289062 544.490234375 369.315429688 c 128,-1,9
 551.122070312 362.685546875 551.122070312 362.685546875 551.122070312 345.014648438 c 128,-1,10
 551.122070312 327.3359375 551.122070312 327.3359375 544.489257812 320.703125 c 128,-1,11
 537.856445312 314.0703125 537.856445312 314.0703125 520.178710938 314.0703125 c 2,12,-1
 374.685546875 314.0703125 l 1,13,-1
 361.7109375 314.0703125 l 1,14,-1
 361.7109375 299.0703125 l 1,15,-1
 361.7109375 144.796875 l 2,16,17
 361.7109375 126.576171875 361.7109375 126.576171875 355.934570312 119.768554688 c 128,-1,18
 350.158203125 112.959960938 350.158203125 112.959960938 334.953125 112.959960938 c 128,-1,19
 319.666992188 112.959960938 319.666992188 112.959960938 313.931640625 119.58984375 c 128,-1,20
 308.197265625 126.219726562 308.197265625 126.219726562 308.197265625 143.890625 c 2,21,-1
 308.209960938 299.069335938 l 1,22,-1
 308.2109375 314.0703125 l 1,23,-1
 295.234375 314.0703125 l 1,24,-1
 149.821289062 314.0703125 l 2,25,26
 132.143554688 314.0703125 132.143554688 314.0703125 125.510742188 320.703125 c 128,-1,27
 118.877929688 327.3359375 118.877929688 327.3359375 118.877929688 345.014648438 c 128,-1,28
 118.877929688 362.685546875 118.877929688 362.685546875 125.509765625 369.31640625 c 128,-1,29
 132.142578125 375.946289062 132.142578125 375.946289062 149.821289062 375.946289062 c 2,30,-1
 295.234375 375.946289062 l 1,31,-1
 308.209960938 375.946289062 l 1,32,-1
 308.209960938 390.946289062 l 1,33,-1
 308.209960938 545.158203125 l 2,34,35
 308.205078125 562.999023438 308.205078125 562.999023438 313.8671875 569.775390625 c 128,-1,36
 319.529296875 576.55078125 319.529296875 576.55078125 334.502929688 576.790039062 c 0,0,1
EndSplineSet
EndChar

StartChar: hyphen
Encoding: 45 45 5
Width: 640
VWidth: 37
GlyphClass: 2
Flags: W
LayerCount: 2
Fore
SplineSet
148.563476562 379.049804688 m 2,0,-1
 518.747070312 379.049804688 l 2,1,2
 536.8046875 379.049804688 536.8046875 379.049804688 543.557617188 372.390625 c 128,-1,3
 550.310546875 365.731445312 550.310546875 365.731445312 550.310546875 348.138671875 c 128,-1,4
 550.310546875 330.4765625 550.310546875 330.4765625 543.685546875 323.852539062 c 128,-1,5
 537.060546875 317.227539062 537.060546875 317.227539062 519.3984375 317.227539062 c 2,6,-1
 148.563476562 317.227539062 l 2,7,8
 130.505859375 317.227539062 130.505859375 317.227539062 123.752929688 323.88671875 c 128,-1,9
 117 330.545898438 117 330.545898438 117 348.138671875 c 128,-1,10
 117 365.731445312 117 365.731445312 123.752929688 372.390625 c 128,-1,11
 130.505859375 379.049804688 130.505859375 379.049804688 148.563476562 379.049804688 c 2,0,-1
EndSplineSet
EndChar

StartChar: less
Encoding: 60 60 6
Width: 662
GlyphClass: 2
Flags: W
LayerCount: 2
Fore
SplineSet
548 872 m 2,0,1
 563.230447378 872 563.230447378 872 574.615223689 860.615223689 c 128,-1,2
 586 849.230447378 586 849.230447378 586 833 c 128,-1,3
 586 816.769552622 586 816.769552622 574.464261043 805.233813665 c 2,4,-1
 216.198623523 418.0200068 l 1,5,-1
 206.607818185 407.355563383 l 1,6,-1
 199.992772862 400 l 1,7,-1
 206.607818185 392.644436617 l 1,8,-1
 216.198623523 381.9799932 l 1,9,-1
 574.464261043 -5.23381366522 l 2,10,11
 586 -16.7695526217 586 -16.7695526217 586 -33 c 128,-1,12
 586 -49.2304473783 586 -49.2304473783 574.615223689 -60.6152236891 c 128,-1,13
 563.230447378 -72 563.230447378 -72 547 -72 c 0,14,15
 531.162096983 -72 531.162096983 -72 519.756605808 -59.994219816 c 2,16,-1
 117.52458076 372.244971862 l 2,17,18
 106 383.769552622 106 383.769552622 106 400 c 128,-1,19
 106 416.230447378 106 416.230447378 117.52458076 427.755028138 c 2,20,-1
 519.756605808 859.994219816 l 2,21,22
 531.162096983 872 531.162096983 872 547 872 c 2,23,-1
 548 872 l 2,0,1
EndSplineSet
EndChar

StartChar: greater
Encoding: 62 62 7
Width: 662
GlyphClass: 2
Flags: W
LayerCount: 2
Fore
SplineSet
144 872 m 2,0,-1
 145 872 l 2,1,2
 160.837903017 872 160.837903017 872 172.243394192 859.994219816 c 2,3,-1
 574.47541924 427.755028138 l 2,4,5
 586 416.230447378 586 416.230447378 586 400 c 128,-1,6
 586 383.769552622 586 383.769552622 574.47541924 372.244971862 c 2,7,-1
 172.243394192 -59.994219816 l 2,8,9
 160.837903017 -72 160.837903017 -72 145 -72 c 0,10,11
 128.769552622 -72 128.769552622 -72 117.384776311 -60.6152236891 c 128,-1,12
 106 -49.2304473783 106 -49.2304473783 106 -33 c 128,-1,13
 106 -16.7695526217 106 -16.7695526217 117.535738957 -5.23381366522 c 2,14,-1
 475.801376477 381.9799932 l 1,15,-1
 485.392181815 392.644436617 l 1,16,-1
 492.007733471 400.000563014 l 1,17,-1
 485.391621951 407.356185873 l 1,18,-1
 475.748675633 418.076965917 l 1,19,-1
 117.903389111 804.836457065 l 2,20,21
 106 817.174200752 106 817.174200752 106 833 c 0,22,23
 106 849.230447378 106 849.230447378 117.384776311 860.615223689 c 128,-1,24
 128.769552622 872 128.769552622 872 144 872 c 2,0,-1
EndSplineSet
EndChar

StartChar: K
Encoding: 75 75 8
Width: 491
VWidth: 0
GlyphClass: 2
Flags: W
LayerCount: 2
Fore
SplineSet
410.899414062 698.48046875 m 4,0,1
 423.868164062 698.491210938 423.868164062 698.491210938 432.495117188 689.864257812 c 132,-1,2
 441.122070312 681.237304688 441.122070312 681.237304688 441.122070312 669.047851562 c 4,3,4
 441.122070312 656.549804688 441.122070312 656.549804688 432.131835938 647.869140625 c 6,5,-1
 133.44921875 351.106445312 l 5,6,-1
 432.231445312 49.9736328125 l 6,7,8
 441.032226562 41.3212890625 441.032226562 41.3212890625 441.032226562 28.9794921875 c 132,-1,9
 441.032226562 16.7900390625 441.032226562 16.7900390625 432.405273438 8.1630859375 c 132,-1,10
 423.779296875 -0.4638671875 423.779296875 -0.4638671875 411.58984375 -0.4638671875 c 4,11,12
 399.111328125 -0.4638671875 399.111328125 -0.4638671875 390.432617188 8.5029296875 c 6,13,-1
 83.8837890625 317.462890625 l 5,14,-1
 83.8837890625 28.4306640625 l 6,15,16
 83.88671875 15.8291015625 83.88671875 15.8291015625 75.259765625 7.2021484375 c 132,-1,17
 66.6328125 -1.4248046875 66.6328125 -1.4248046875 54.443359375 -1.4248046875 c 132,-1,18
 42.25390625 -1.4248046875 42.25390625 -1.4248046875 33.626953125 7.2021484375 c 132,-1,19
 25 15.828125 25 15.828125 25 28.017578125 c 4,20,-1
 25.0029296875 668.250976562 l 5,21,-1
 25 668.66796875 l 6,22,23
 25 680.67578125 25 680.67578125 33.4970703125 689.301757812 c 132,-1,24
 41.994140625 697.927734375 41.994140625 697.927734375 54 698.107421875 c 4,25,26
 66.6328125 698.111328125 66.6328125 698.111328125 75.259765625 689.484375 c 132,-1,27
 83.88671875 680.857421875 83.88671875 680.857421875 83.88671875 668.66796875 c 6,28,-1
 83.8837890625 668.250976562 l 5,29,-1
 83.8837890625 384.86328125 l 5,30,-1
 390.6328125 689.637695312 l 6,31,32
 398.974609375 698.166015625 398.974609375 698.166015625 410.899414062 698.48046875 c 4,0,1
EndSplineSet
EndChar

StartChar: L
Encoding: 76 76 9
Width: 391
VWidth: 0
GlyphClass: 2
Flags: W
LayerCount: 2
Fore
SplineSet
54.1904296875 701.8359375 m 4,0,1
 66.908203125 701.838867188 66.908203125 701.838867188 75.591796875 693.155273438 c 132,-1,2
 84.275390625 684.470703125 84.275390625 684.470703125 84.275390625 672.200195312 c 4,3,-1
 84.2724609375 205.827148438 l 6,4,5
 84.2724609375 101.536132812 84.2724609375 101.536132812 85.0478515625 92.521484375 c 4,6,7
 87.15625 67.9951171875 87.15625 67.9951171875 94.236328125 63.533203125 c 4,8,9
 105.822265625 56.2294921875 105.822265625 56.2294921875 154.096679688 55.6796875 c 4,10,11
 171.40234375 55.482421875 171.40234375 55.482421875 223.482421875 56.314453125 c 132,-1,12
 275.5625 57.146484375 275.5625 57.146484375 311.883789062 57.146484375 c 4,13,14
 324.600585938 57.1494140625 324.600585938 57.1494140625 333.284179688 48.46484375 c 132,-1,15
 341.96875 39.78125 341.96875 39.78125 341.96875 27.5107421875 c 132,-1,16
 341.96875 15.240234375 341.96875 15.240234375 333.284179688 6.556640625 c 132,-1,17
 324.600585938 -2.1279296875 324.600585938 -2.1279296875 312.330078125 -2.1279296875 c 4,18,19
 276.758789062 -2.125 276.758789062 -2.125 224.590820312 -2.9658203125 c 132,-1,20
 172.423828125 -3.8056640625 172.423828125 -3.8056640625 153.421875 -3.58984375 c 4,21,22
 88.396484375 -2.8486328125 88.396484375 -2.8486328125 62.6328125 13.3896484375 c 4,23,24
 30.626953125 33.560546875 30.626953125 33.560546875 25.994140625 87.443359375 c 4,25,26
 25 99.0048828125 25 99.0048828125 25 205.827148438 c 6,27,-1
 25 671.78125 l 6,28,29
 24.9970703125 684.288085938 24.9970703125 684.288085938 33.55078125 692.971679688 c 132,-1,30
 42.1044921875 701.654296875 42.1044921875 701.654296875 54.1904296875 701.8359375 c 4,0,1
EndSplineSet
EndChar

StartChar: M
Encoding: 77 77 10
Width: 511
VWidth: 0
GlyphClass: 2
Flags: W
LayerCount: 2
Fore
SplineSet
55.3212890625 702.732421875 m 4,0,1
 66.087890625 702.418945312 66.087890625 702.418945312 74.1162109375 695.25390625 c 6,2,-1
 243.404296875 544.087890625 l 5,3,-1
 412.693359375 695.25390625 l 6,4,5
 421.081054688 702.739257812 421.081054688 702.739257812 432.321289062 702.739257812 c 4,6,7
 444.524414062 702.739257812 444.524414062 702.739257812 453.16015625 694.103515625 c 132,-1,8
 461.796875 685.467773438 461.796875 685.467773438 461.796875 673.264648438 c 4,9,-1
 460.928710938 28.3095703125 l 6,10,11
 460.930664062 15.7431640625 460.930664062 15.7431640625 452.294921875 7.107421875 c 132,-1,12
 443.659179688 -1.529296875 443.659179688 -1.529296875 431.456054688 -1.529296875 c 132,-1,13
 419.252929688 -1.529296875 419.252929688 -1.529296875 410.6171875 7.107421875 c 132,-1,14
 401.98046875 15.7431640625 401.98046875 15.7431640625 401.98046875 27.9462890625 c 4,15,-1
 402.762695312 607.365234375 l 5,16,-1
 263.029296875 482.598632812 l 6,17,18
 254.641601562 475.111328125 254.641601562 475.111328125 243.399414062 475.111328125 c 132,-1,19
 232.155273438 475.111328125 232.155273438 475.111328125 223.76953125 482.598632812 c 6,20,-1
 84.001953125 607.387695312 l 5,21,-1
 84.50390625 28.2431640625 l 6,22,23
 84.505859375 15.703125 84.505859375 15.703125 75.869140625 7.0673828125 c 132,-1,24
 67.2333984375 -1.5693359375 67.2333984375 -1.5693359375 55.0302734375 -1.5693359375 c 132,-1,25
 42.8271484375 -1.5693359375 42.8271484375 -1.5693359375 34.19140625 7.0673828125 c 132,-1,26
 25.5546875 15.703125 25.5546875 15.703125 25.5546875 27.90625 c 4,27,-1
 25 673.249023438 l 6,28,29
 25 685.471679688 25 685.471679688 33.63671875 694.107421875 c 132,-1,30
 42.2724609375 702.744140625 42.2724609375 702.744140625 55.3212890625 702.732421875 c 4,0,1
EndSplineSet
EndChar

StartChar: N
Encoding: 78 78 11
Width: 511
VWidth: 0
GlyphClass: 2
Flags: W
LayerCount: 2
Fore
SplineSet
431.905273438 702.821289062 m 4,0,-1
 432.315429688 702.823242188 l 6,1,2
 444.518554688 702.823242188 444.518554688 702.823242188 453.154296875 694.186523438 c 132,-1,3
 461.791015625 685.55078125 461.791015625 685.55078125 461.791015625 673.34765625 c 4,4,-1
 460.918945312 28.4111328125 l 6,5,6
 460.8984375 16.228515625 460.8984375 16.228515625 452.26171875 7.607421875 c 132,-1,7
 443.625976562 -1.0146484375 443.625976562 -1.0146484375 431.443359375 -1.0146484375 c 4,8,9
 414.543945312 -1.0146484375 414.543945312 -1.0146484375 406.005859375 13.5703125 c 6,10,-1
 84.0390625 564.014648438 l 5,11,-1
 84.5009765625 28.34765625 l 6,12,13
 84.5048828125 15.7158203125 84.5048828125 15.7158203125 75.8681640625 7.080078125 c 132,-1,14
 67.232421875 -1.556640625 67.232421875 -1.556640625 55.029296875 -1.556640625 c 132,-1,15
 42.826171875 -1.556640625 42.826171875 -1.556640625 34.1904296875 7.080078125 c 132,-1,16
 25.5537109375 15.7158203125 25.5537109375 15.7158203125 25.5537109375 27.9189453125 c 4,17,-1
 25 672.919921875 l 6,18,19
 25 685.139648438 25 685.139648438 33.63671875 693.775390625 c 132,-1,20
 42.2724609375 702.412109375 42.2724609375 702.412109375 54.4755859375 702.412109375 c 4,21,22
 71.3759765625 702.412109375 71.3759765625 702.412109375 79.9140625 687.827148438 c 6,23,-1
 402.11328125 136.971679688 l 5,24,-1
 402.8359375 672.971679688 l 6,25,26
 402.833984375 685.385742188 402.833984375 685.385742188 411.3515625 694.020507812 c 132,-1,27
 419.869140625 702.65625 419.869140625 702.65625 431.905273438 702.821289062 c 4,0,-1
EndSplineSet
EndChar

StartChar: O
Encoding: 79 79 12
Width: 546
VWidth: 0
GlyphClass: 2
Flags: W
LayerCount: 2
Fore
SplineSet
260.750976562 702.05078125 m 132,-1,1
 322.165039062 702.041992188 322.165039062 702.041992188 360.655273438 689.02734375 c 4,2,3
 377.666992188 683.275390625 377.666992188 683.275390625 405.703125 666.063476562 c 4,4,5
 438.995117188 645.624023438 438.995117188 645.624023438 455.98046875 607.240234375 c 132,-1,6
 472.96484375 568.856445312 472.96484375 568.856445312 483.048828125 513.018554688 c 4,7,8
 496.356445312 439.336914062 496.356445312 439.336914062 496.50390625 338.418945312 c 4,9,10
 496.727539062 254.07421875 496.727539062 254.07421875 477.89453125 174.29296875 c 4,11,12
 466.133789062 124.473632812 466.133789062 124.473632812 450.235351562 91.5263671875 c 132,-1,13
 434.336914062 58.5791015625 434.336914062 58.5791015625 405.412109375 40.71484375 c 4,14,15
 404.584960938 40.2041015625 404.584960938 40.2041015625 397.79296875 35.9443359375 c 132,-1,16
 391.000976562 31.685546875 391.000976562 31.685546875 388.83984375 30.4140625 c 132,-1,17
 386.678710938 29.142578125 386.678710938 29.142578125 379.328125 25.041015625 c 132,-1,18
 371.977539062 20.939453125 371.977539062 20.939453125 367.903320312 19.26953125 c 132,-1,19
 363.830078125 17.6005859375 363.830078125 17.6005859375 355.485351562 14.1171875 c 132,-1,20
 347.139648438 10.6337890625 347.139648438 10.6337890625 340.717773438 9.02734375 c 132,-1,21
 334.294921875 7.419921875 334.294921875 7.419921875 324.51953125 5.0166015625 c 132,-1,22
 314.744140625 2.6123046875 314.744140625 2.6123046875 305.536132812 1.529296875 c 132,-1,23
 296.329101562 0.4462890625 296.329101562 0.4462890625 284.686523438 -0.4169921875 c 132,-1,24
 273.043945312 -1.28125 273.043945312 -1.28125 260.756835938 -1.28125 c 132,-1,25
 248.469726562 -1.28125 248.469726562 -1.28125 236.826171875 -0.4169921875 c 132,-1,26
 225.18359375 0.4462890625 225.18359375 0.4462890625 215.975585938 1.529296875 c 132,-1,27
 206.766601562 2.6123046875 206.766601562 2.6123046875 196.991210938 5.0166015625 c 132,-1,28
 187.215820312 7.419921875 187.215820312 7.419921875 180.791992188 9.02734375 c 132,-1,29
 174.368164062 10.6337890625 174.368164062 10.6337890625 166.0234375 14.1171875 c 132,-1,30
 157.678710938 17.599609375 157.678710938 17.599609375 153.603515625 19.26953125 c 132,-1,31
 149.52734375 20.9404296875 149.52734375 20.9404296875 142.177734375 25.041015625 c 132,-1,32
 134.828125 29.1416015625 134.828125 29.1416015625 132.665039062 30.4140625 c 132,-1,33
 130.500976562 31.6865234375 130.500976562 31.6865234375 123.7109375 35.9443359375 c 132,-1,34
 116.919921875 40.2021484375 116.919921875 40.2021484375 116.08984375 40.71484375 c 4,35,36
 87.1650390625 58.58203125 87.1650390625 58.58203125 71.2802734375 91.5263671875 c 132,-1,37
 55.3955078125 124.470703125 55.3955078125 124.470703125 43.642578125 174.303710938 c 4,38,39
 24.8583984375 253.948242188 24.8583984375 253.948242188 25.0009765625 338.404296875 c 4,40,-1
 25.0009765625 338.440429688 l 6,41,42
 25.2958984375 439.77734375 25.2958984375 439.77734375 38.50390625 513.018554688 c 4,43,44
 48.5751953125 568.872070312 48.5751953125 568.872070312 65.5419921875 607.25390625 c 132,-1,45
 82.5087890625 645.634765625 82.5087890625 645.634765625 115.803710938 666.07421875 c 4,46,47
 143.844726562 683.287109375 143.844726562 683.287109375 160.848632812 689.036132812 c 4,48,0
 199.340820312 702.05078125 199.340820312 702.05078125 260.750976562 702.05078125 c 132,-1,1
260.728515625 642.83203125 m 132,-1,50
 209.052734375 642.836914062 209.052734375 642.836914062 179.791015625 632.943359375 c 4,51,52
 169.106445312 629.330078125 169.106445312 629.330078125 146.760742188 615.611328125 c 4,53,54
 132.328125 606.747070312 132.328125 606.747070312 118.28515625 575.3828125 c 132,-1,55
 104.2421875 544.018554688 104.2421875 544.018554688 96.7568359375 502.509765625 c 4,56,57
 84.474609375 434.403320312 84.474609375 434.403320312 84.19140625 338.309570312 c 4,58,-1
 84.19140625 338.272460938 l 6,59,60
 84.0673828125 260.77734375 84.0673828125 260.77734375 101.255859375 187.89453125 c 4,61,62
 109.563476562 152.66796875 109.563476562 152.66796875 123.27734375 125.029296875 c 132,-1,63
 136.991210938 97.390625 136.991210938 97.390625 147.182617188 91.095703125 c 4,64,65
 151.1875 88.625 151.1875 88.625 160.7109375 82.3525390625 c 132,-1,66
 170.235351562 76.080078125 170.235351562 76.080078125 174.0625 73.9453125 c 132,-1,67
 177.889648438 71.810546875 177.889648438 71.810546875 187.41796875 67.70703125 c 132,-1,68
 196.947265625 63.6025390625 196.947265625 63.6025390625 205.623046875 62.14453125 c 132,-1,69
 214.298828125 60.6875 214.298828125 60.6875 228.547851562 59.3115234375 c 132,-1,70
 242.797851562 57.935546875 242.797851562 57.935546875 260.7265625 57.935546875 c 4,71,72
 282.091796875 57.935546875 282.091796875 57.935546875 296.926757812 59.009765625 c 132,-1,73
 311.762695312 60.083984375 311.762695312 60.083984375 324.73046875 64.7822265625 c 132,-1,74
 337.69921875 69.4794921875 337.69921875 69.4794921875 341.42578125 70.7490234375 c 132,-1,75
 345.151367188 72.0185546875 345.151367188 72.0185546875 358.84375 81.0205078125 c 132,-1,76
 372.53515625 90.0234375 372.53515625 90.0234375 374.271484375 91.095703125 c 4,77,78
 384.469726562 97.3974609375 384.469726562 97.3974609375 398.196289062 125.037109375 c 132,-1,79
 411.921875 152.676757812 411.921875 152.676757812 420.236328125 187.899414062 c 4,80,81
 437.473632812 260.923828125 437.473632812 260.923828125 437.260742188 338.27734375 c 4,82,-1
 437.260742188 338.31640625 l 6,83,84
 437.12109375 433.997070312 437.12109375 433.997070312 424.748046875 502.504882812 c 4,85,86
 417.252929688 544.004882812 417.252929688 544.004882812 403.193359375 575.372070312 c 132,-1,87
 389.134765625 606.740234375 389.134765625 606.740234375 374.6953125 615.60546875 c 4,88,89
 352.359375 629.323242188 352.359375 629.323242188 341.6640625 632.938476562 c 4,90,49
 312.401367188 642.83203125 312.401367188 642.83203125 260.728515625 642.83203125 c 132,-1,50
EndSplineSet
EndChar

StartChar: k
Encoding: 107 107 13
Width: 386
GlyphClass: 2
Flags: W
LayerCount: 2
Fore
SplineSet
54.478515625 702.154296875 m 1,0,-1
 54.92578125 702.162109375 l 2,1,2
 67.3154296875 702.162109375 67.3154296875 702.162109375 76.0849609375 693.393554688 c 128,-1,3
 84.853515625 684.625 84.853515625 684.625 84.853515625 672.234375 c 0,4,-1
 84.8505859375 283.770507812 l 1,5,-1
 285.1171875 490.571289062 l 2,6,7
 293.428710938 499.399414062 293.428710938 499.399414062 305.540039062 499.953125 c 0,8,9
 306.209960938 499.984375 306.209960938 499.984375 306.905273438 499.984375 c 0,10,11
 319.294921875 499.984375 319.294921875 499.984375 328.064453125 491.215820312 c 128,-1,12
 336.833007812 482.447265625 336.833007812 482.447265625 336.833007812 470.056640625 c 128,-1,13
 336.833007812 457.6953125 336.833007812 457.6953125 328.109375 448.936523438 c 2,14,-1
 134.520507812 249.025390625 l 1,15,-1
 328.2421875 46.091796875 l 2,16,17
 336.845703125 37.35546875 336.845703125 37.35546875 336.845703125 25.09375 c 128,-1,18
 336.845703125 12.703125 336.845703125 12.703125 328.077148438 3.9345703125 c 128,-1,19
 319.30859375 -4.833984375 319.30859375 -4.833984375 306.91796875 -4.833984375 c 0,20,21
 293.8359375 -4.833984375 293.8359375 -4.833984375 284.952148438 4.7666015625 c 2,22,-1
 84.8525390625 214.388671875 l 1,23,-1
 84.8525390625 21.4560546875 l 2,24,25
 84.85546875 8.619140625 84.85546875 8.619140625 76.0869140625 -0.150390625 c 128,-1,26
 67.318359375 -8.9189453125 67.318359375 -8.9189453125 54.927734375 -8.9189453125 c 128,-1,27
 42.5380859375 -8.9189453125 42.5380859375 -8.9189453125 33.76953125 -0.150390625 c 128,-1,28
 25 8.619140625 25 8.619140625 25 21.0087890625 c 0,29,-1
 25.00390625 671.811523438 l 2,30,31
 25.0009765625 684.434570312 25.0009765625 684.434570312 33.6376953125 693.203125 c 128,-1,32
 42.275390625 701.970703125 42.275390625 701.970703125 54.478515625 702.154296875 c 1,0,-1
EndSplineSet
EndChar

StartChar: l
Encoding: 108 108 14
Width: 134
GlyphClass: 2
Flags: W
HStem: 682.154 20G<48.375 54.9268>
VStem: 25 59.8516<0.120714 692.928>
LayerCount: 2
Fore
SplineSet
54.4765625 702.154296875 m 0,0,-1
 54.9267578125 702.153320312 l 2,1,2
 67.3173828125 702.153320312 67.3173828125 702.153320312 76.0859375 693.384765625 c 128,-1,3
 84.8544921875 684.616210938 84.8544921875 684.616210938 84.8544921875 672.225585938 c 0,4,-1
 84.8515625 21.451171875 l 2,5,6
 84.85546875 8.6142578125 84.85546875 8.6142578125 76.0869140625 -0.154296875 c 128,-1,7
 67.3173828125 -8.9228515625 67.3173828125 -8.9228515625 54.927734375 -8.9228515625 c 128,-1,8
 42.537109375 -8.9228515625 42.537109375 -8.9228515625 33.7685546875 -0.154296875 c 128,-1,9
 25 8.6142578125 25 8.6142578125 25 21.0048828125 c 0,10,-1
 25.0029296875 671.806640625 l 2,11,12
 25 684.434570312 25 684.434570312 33.63671875 693.203125 c 128,-1,13
 42.2734375 701.970703125 42.2734375 701.970703125 54.4765625 702.154296875 c 0,0,-1
EndSplineSet
EndChar

StartChar: m
Encoding: 109 109 15
Width: 658
GlyphClass: 2
Flags: W
HStem: 441.102 59.8398<85.1123 272.484 332.838 514.972>
VStem: 25.0059 60.1064<-2.86853 441.102> 298.067 59.8496<2.26019 416.518> 548.44 59.8496<2.20748 404.637>
LayerCount: 2
Fore
SplineSet
440.55078125 501.200195312 m 0,0,1
 518.952148438 501.202148438 518.952148438 501.202148438 559.944335938 459.439453125 c 0,2,3
 608.3203125 410.15234375 608.3203125 410.15234375 608.302734375 299.861328125 c 2,4,-1
 608.290039062 23.3720703125 l 2,5,6
 608.474609375 10.8466796875 608.474609375 10.8466796875 599.682617188 1.923828125 c 128,-1,7
 590.889648438 -6.998046875 590.889648438 -6.998046875 578.36328125 -6.9970703125 c 128,-1,8
 565.836914062 -6.99609375 565.836914062 -6.99609375 557.044921875 1.927734375 c 128,-1,9
 548.25390625 10.8515625 548.25390625 10.8515625 548.440429688 23.376953125 c 2,10,-1
 548.454101562 299.866210938 l 2,11,12
 548.459960938 385.696289062 548.459960938 385.696289062 517.231445312 417.510742188 c 0,13,14
 493.833007812 441.349609375 493.833007812 441.349609375 440.541992188 441.349609375 c 0,15,16
 378.4140625 441.349609375 378.4140625 441.349609375 332.837890625 441.118164062 c 1,17,18
 348.4765625 417.038085938 348.4765625 417.038085938 353.407226562 383.741210938 c 128,-1,19
 358.336914062 350.444335938 358.336914062 350.444335938 357.9296875 298.184570312 c 0,20,-1
 357.916992188 23.4248046875 l 2,21,22
 358.037109375 15.212890625 358.037109375 15.212890625 354.061523438 8.212890625 c 128,-1,23
 350.084960938 1.212890625 350.084960938 1.212890625 343.14453125 -2.865234375 c 128,-1,24
 336.203125 -6.943359375 336.203125 -6.943359375 327.991210938 -6.943359375 c 0,25,26
 315.465820312 -6.9423828125 315.465820312 -6.9423828125 306.673828125 1.98046875 c 128,-1,27
 297.8828125 10.9033203125 297.8828125 10.9033203125 298.067382812 23.4267578125 c 2,28,-1
 298.081054688 298.538085938 l 2,29,30
 298.825195312 393.69140625 298.825195312 393.69140625 276.170898438 416.577148438 c 0,31,32
 251.89453125 441.1015625 251.89453125 441.1015625 150.50390625 441.1015625 c 2,33,-1
 85.1123046875 441.1015625 l 1,34,-1
 85.1123046875 24.0126953125 l 2,35,36
 85.41015625 4.8125 85.41015625 4.8125 70.234375 -3.119140625 c 128,-1,37
 55.0595703125 -11.0498046875 55.0595703125 -11.0498046875 39.8837890625 -3.119140625 c 128,-1,38
 24.7080078125 4.8125 24.7080078125 4.8125 25.005859375 24.0126953125 c 2,39,-1
 25.005859375 466.234375 l 2,40,41
 24.7705078125 482.857421875 24.7705078125 482.857421875 37.8359375 492.836914062 c 0,42,43
 48.677734375 501.1171875 48.677734375 501.1171875 60.8330078125 500.94140625 c 2,44,-1
 150.50390625 500.94140625 l 2,45,46
 253.809570312 500.94140625 253.809570312 500.94140625 295.348632812 476.713867188 c 1,47,48
 297.407226562 487.326171875 297.407226562 487.326171875 305.7734375 494.172851562 c 128,-1,49
 314.140625 501.01953125 314.140625 501.01953125 324.951171875 500.938476562 c 0,50,51
 371.77734375 501.200195312 371.77734375 501.200195312 440.55078125 501.200195312 c 0,0,1
EndSplineSet
EndChar

StartChar: n
Encoding: 110 110 16
Width: 407
GlyphClass: 2
Flags: W
LayerCount: 2
Fore
SplineSet
150.4765625 499.633789062 m 1,0,-1
 150.505859375 499.63671875 l 1,1,2
 216.135742188 499.63671875 216.135742188 499.63671875 254.879882812 491.322265625 c 128,-1,3
 293.623046875 483.0078125 293.623046875 483.0078125 318.583984375 458.083984375 c 0,4,5
 343.245117188 433.458984375 343.245117188 433.458984375 350.823242188 396.690429688 c 128,-1,6
 358.400390625 359.921875 358.400390625 359.921875 357.9296875 298.294921875 c 0,7,-1
 357.916015625 24.7958984375 l 2,8,9
 358.064453125 12.2958984375 358.064453125 12.2958984375 349.27734375 3.404296875 c 128,-1,10
 340.489257812 -5.4873046875 340.489257812 -5.4873046875 327.98828125 -5.486328125 c 128,-1,11
 315.487304688 -5.4853515625 315.487304688 -5.4853515625 306.701171875 3.4072265625 c 128,-1,12
 297.915039062 12.2998046875 297.915039062 12.2998046875 298.065429688 24.7998046875 c 2,13,-1
 298.080078125 298.411132812 l 1,14,-1
 298.080078125 298.525390625 l 2,15,16
 298.819335938 393.231445312 298.819335938 393.231445312 276.29296875 415.725585938 c 0,17,18
 252.205078125 439.780273438 252.205078125 439.780273438 150.50390625 439.780273438 c 2,19,-1
 85.111328125 439.659179688 l 1,20,-1
 85.111328125 24.63671875 l 2,21,22
 85.4091796875 5.4365234375 85.4091796875 5.4365234375 70.234375 -2.494140625 c 128,-1,23
 55.05859375 -10.4248046875 55.05859375 -10.4248046875 39.8828125 -2.494140625 c 128,-1,24
 24.7080078125 5.4365234375 24.7080078125 5.4365234375 25.005859375 24.63671875 c 2,25,-1
 25.005859375 466.114257812 l 2,26,27
 24.7734375 482.549804688 24.7734375 482.549804688 36.8037109375 492.772460938 c 0,28,29
 44.908203125 499.661132812 44.908203125 499.661132812 60.779296875 499.46484375 c 2,30,-1
 150.4765625 499.633789062 l 1,0,-1
EndSplineSet
EndChar

StartChar: o
Encoding: 111 111 17
Width: 413
GlyphClass: 2
Flags: W
LayerCount: 2
Fore
SplineSet
194.299804688 501.611328125 m 1,0,1
 258.836914062 501.532226562 258.836914062 501.532226562 293.208007812 478.114257812 c 0,2,3
 337.66015625 453.670898438 337.66015625 453.670898438 351.444335938 379.204101562 c 0,4,5
 372.546875 267.763671875 372.546875 267.763671875 357.934570312 162.571289062 c 0,6,7
 357.35546875 159.47265625 357.35546875 159.47265625 355.140625 147.280273438 c 128,-1,8
 352.92578125 135.086914062 352.92578125 135.086914062 352.08984375 130.858398438 c 128,-1,9
 351.25390625 126.629882812 351.25390625 126.629882812 348.869140625 115.723632812 c 128,-1,10
 346.484375 104.817382812 346.484375 104.817382812 344.78125 99.5 c 128,-1,11
 343.078125 94.1826171875 343.078125 94.1826171875 339.96484375 84.9228515625 c 128,-1,12
 336.8515625 75.6640625 336.8515625 75.6640625 333.72265625 69.6171875 c 128,-1,13
 330.59375 63.5703125 330.59375 63.5703125 326.194335938 56.318359375 c 128,-1,14
 321.794921875 49.06640625 321.794921875 49.06640625 316.735351562 42.970703125 c 0,15,16
 285.641601562 11.2451171875 285.641601562 11.2451171875 237.868164062 0.6123046875 c 128,-1,17
 190.094726562 -10.0205078125 190.094726562 -10.0205078125 147.5234375 1.1923828125 c 0,18,19
 74.1044921875 20.20703125 74.1044921875 20.20703125 53.5400390625 72.453125 c 0,20,21
 12.6494140625 180.227539062 12.6494140625 180.227539062 30.3447265625 337.930664062 c 0,22,23
 35.708984375 372.8046875 35.708984375 372.8046875 38.515625 387.385742188 c 128,-1,24
 41.322265625 401.967773438 41.322265625 401.967773438 52.4130859375 427.494140625 c 128,-1,25
 63.50390625 453.020507812 63.50390625 453.020507812 80.7548828125 467.841796875 c 0,26,27
 121.776367188 502.983398438 121.776367188 502.983398438 194.299804688 501.611328125 c 1,0,1
194.299804688 440.668945312 m 1,28,29
 127.466796875 439.965820312 127.466796875 439.965820312 112.501953125 408.875976562 c 0,30,31
 100.999023438 385.625 100.999023438 385.625 94.9189453125 353.407226562 c 128,-1,32
 88.837890625 321.189453125 88.837890625 321.189453125 87.978515625 304.82421875 c 128,-1,33
 87.1181640625 288.458984375 87.1181640625 288.458984375 85.814453125 246.309570312 c 0,34,35
 87.009765625 153.450195312 87.009765625 153.450195312 110 100.987304688 c 0,36,37
 120.71875 68.091796875 120.71875 68.091796875 161.088867188 59.203125 c 1,38,39
 210.7734375 53.5615234375 210.7734375 53.5615234375 239.495117188 62.53125 c 0,40,41
 271.645507812 74.951171875 271.645507812 74.951171875 281.62890625 107.935546875 c 0,42,43
 303.458007812 164.896484375 303.458007812 164.896484375 302.6640625 255.546875 c 0,44,45
 302.509765625 259.201171875 302.509765625 259.201171875 302.217773438 266.557617188 c 0,46,47
 300.862304688 300.744140625 300.862304688 300.744140625 299.313476562 319.598632812 c 128,-1,48
 297.764648438 338.452148438 297.764648438 338.452148438 290.989257812 366.610351562 c 128,-1,49
 284.21484375 394.767578125 284.21484375 394.767578125 272.116210938 415.724609375 c 0,50,51
 253.703125 439.944335938 253.703125 439.944335938 194.299804688 440.668945312 c 1,28,29
EndSplineSet
EndChar

StartChar: agrave
Encoding: 224 224 18
Width: 394
VWidth: 0
GlyphClass: 2
Flags: W
LayerCount: 2
Fore
SplineSet
146.288085938 499.555664062 m 0,0,1
 212.4375 499.443359375 212.4375 499.443359375 244.883789062 492.015625 c 0,2,3
 276.266601562 484.83203125 276.266601562 484.83203125 307.302734375 456.801757812 c 0,4,-1
 307.310546875 456.793945312 l 2,5,6
 344.62890625 423.069335938 344.62890625 423.069335938 344.590820312 350.701171875 c 2,7,-1
 344.421875 29.6904296875 l 1,8,-1
 344.423828125 29.2978515625 l 2,9,10
 344.423828125 22.1162109375 344.423828125 22.1162109375 340.904296875 15.6298828125 c 128,-1,11
 337.385742188 9.1435546875 337.385742188 9.1435546875 331.330078125 4.9267578125 c 128,-1,12
 325.2734375 0.708984375 325.2734375 0.708984375 318.13671875 -0.0869140625 c 0,13,14
 314.403320312 -1.08203125 314.403320312 -1.08203125 310.533203125 -1.08203125 c 0,15,16
 287.904296875 -1.080078125 287.904296875 -1.080078125 245.524414062 -1.8740234375 c 128,-1,17
 203.145507812 -2.66796875 203.145507812 -2.66796875 184.88671875 -2.4296875 c 128,-1,18
 166.626953125 -2.1923828125 166.626953125 -2.1923828125 141.573242188 0.921875 c 128,-1,19
 116.51953125 4.037109375 116.51953125 4.037109375 98.3046875 10.953125 c 0,20,21
 56.888671875 26.677734375 56.888671875 26.677734375 39.67578125 67.4521484375 c 0,22,23
 25 102.219726562 25 102.219726562 25 167.486328125 c 0,24,25
 25 227.40625 25 227.40625 68.001953125 260.305664062 c 0,26,27
 103.373046875 287.368164062 103.373046875 287.368164062 156.840820312 287.436523438 c 0,28,-1
 285.432617188 287.57421875 l 1,29,-1
 285.466796875 350.73046875 l 2,30,31
 285.4765625 368.551757812 285.4765625 368.551757812 280.997070312 384.055664062 c 128,-1,32
 276.518554688 399.559570312 276.518554688 399.559570312 272.979492188 405.440429688 c 128,-1,33
 269.440429688 411.322265625 269.440429688 411.322265625 267.668945312 412.921875 c 0,34,35
 265.614257812 414.778320312 265.614257812 414.778320312 261.353515625 418.744140625 c 128,-1,36
 257.092773438 422.7109375 257.092773438 422.7109375 255.931640625 423.645507812 c 128,-1,37
 254.770507812 424.579101562 254.770507812 424.579101562 251.705078125 426.86328125 c 128,-1,38
 248.639648438 429.147460938 248.639648438 429.147460938 246.374023438 429.94921875 c 128,-1,39
 244.108398438 430.75 244.108398438 430.75 240.412109375 431.987304688 c 128,-1,40
 236.716796875 433.224609375 236.716796875 433.224609375 231.694335938 434.374023438 c 0,41,42
 198.213867188 442.036132812 198.213867188 442.036132812 95.2607421875 439.834960938 c 0,43,44
 94.720703125 439.81640625 94.720703125 439.81640625 94.23046875 439.81640625 c 0,45,46
 81.9892578125 439.81640625 81.9892578125 439.81640625 73.326171875 448.48046875 c 128,-1,47
 64.6630859375 457.143554688 64.6630859375 457.143554688 64.6630859375 469.384765625 c 128,-1,48
 64.6630859375 481.529296875 64.6630859375 481.529296875 73.2578125 490.192382812 c 128,-1,49
 81.8525390625 498.85546875 81.8525390625 498.85546875 93.9970703125 498.951171875 c 0,50,51
 123.995117188 499.59375 123.995117188 499.59375 146.288085938 499.555664062 c 0,0,1
285.399414062 228.444335938 m 1,52,-1
 156.916015625 228.30859375 l 2,53,54
 123.434570312 228.265625 123.434570312 228.265625 103.935546875 213.346679688 c 0,55,56
 84.1357421875 198.198242188 84.1357421875 198.198242188 84.1357421875 167.490234375 c 0,57,58
 84.1357421875 114.1875 84.1357421875 114.1875 94.1552734375 90.4521484375 c 0,59,60
 98.58984375 79.947265625 98.58984375 79.947265625 103.71875 75.076171875 c 128,-1,61
 108.84765625 70.2041015625 108.84765625 70.2041015625 119.298828125 66.236328125 c 0,62,63
 142.390625 57.46875 142.390625 57.46875 265.56640625 57.9404296875 c 0,64,65
 278.543945312 57.990234375 278.543945312 57.990234375 285.309570312 58.0107421875 c 1,66,-1
 285.399414062 228.444335938 l 1,52,-1
EndSplineSet
EndChar

StartChar: Amacron
Encoding: 256 256 19
Width: 512
VWidth: 0
GlyphClass: 2
Flags: W
LayerCount: 2
Fore
SplineSet
279.811523438 701.383789062 m 5,0,-1
 279.913085938 701.383789062 l 5,1,-1
 433.133789062 700.53125 l 6,2,3
 445.287109375 700.462890625 445.287109375 700.462890625 453.888671875 691.8125 c 132,-1,4
 462.490234375 683.162109375 462.490234375 683.162109375 462.490234375 671.0078125 c 4,5,-1
 461.619140625 28.6376953125 l 5,6,-1
 461.622070312 28.2744140625 l 6,7,8
 461.622070312 16.0517578125 461.622070312 16.0517578125 452.971679688 7.40234375 c 132,-1,9
 444.321289062 -1.248046875 444.321289062 -1.248046875 432.098632812 -1.248046875 c 132,-1,10
 419.875976562 -1.248046875 419.875976562 -1.248046875 411.225585938 7.40234375 c 132,-1,11
 402.575195312 16.0517578125 402.575195312 16.0517578125 402.575195312 28.2744140625 c 6,12,-1
 402.578125 28.7177734375 l 5,13,-1
 403.030273438 360.984375 l 5,14,-1
 88.3857421875 361.1796875 l 5,15,-1
 84.16015625 361.182617188 l 5,16,-1
 84.607421875 28.58203125 l 5,17,-1
 84.6103515625 28.138671875 l 6,18,19
 84.6103515625 15.916015625 84.6103515625 15.916015625 75.9599609375 7.265625 c 132,-1,20
 67.3095703125 -1.384765625 67.3095703125 -1.384765625 55.0869140625 -1.384765625 c 132,-1,21
 42.8642578125 -1.384765625 42.8642578125 -1.384765625 34.2138671875 7.265625 c 132,-1,22
 25.5634765625 15.916015625 25.5634765625 15.916015625 25.5634765625 28.138671875 c 6,23,-1
 25.56640625 28.501953125 l 5,24,-1
 25 450.557617188 l 6,25,26
 26.0380859375 580.524414062 26.0380859375 580.524414062 92.4677734375 642.56640625 c 4,27,28
 155.193359375 701.1484375 155.193359375 701.1484375 279.811523438 701.383789062 c 5,0,-1
279.900390625 642.34375 m 6,29,30
 178.533203125 642.15234375 178.533203125 642.15234375 132.7890625 599.4296875 c 4,31,32
 84.900390625 554.70703125 84.900390625 554.70703125 84.064453125 450.374023438 c 4,33,-1
 84.10546875 420.221679688 l 5,34,-1
 88.4453125 420.219726562 l 5,35,-1
 403.134765625 420.022460938 l 5,36,-1
 403.434570312 641.655273438 l 5,37,-1
 279.900390625 642.34375 l 6,29,30
EndSplineSet
EndChar

StartChar: amacron
Encoding: 257 257 20
Width: 394
VWidth: 0
GlyphClass: 2
Flags: W
LayerCount: 2
Fore
SplineSet
146.288085938 499.555664062 m 0,0,1
 212.4375 499.443359375 212.4375 499.443359375 244.883789062 492.015625 c 0,2,3
 276.266601562 484.83203125 276.266601562 484.83203125 307.302734375 456.801757812 c 0,4,-1
 307.310546875 456.793945312 l 2,5,6
 344.62890625 423.069335938 344.62890625 423.069335938 344.590820312 350.701171875 c 2,7,-1
 344.421875 29.6904296875 l 1,8,-1
 344.423828125 29.2978515625 l 2,9,10
 344.423828125 22.1162109375 344.423828125 22.1162109375 340.904296875 15.6298828125 c 128,-1,11
 337.385742188 9.1435546875 337.385742188 9.1435546875 331.330078125 4.9267578125 c 128,-1,12
 325.2734375 0.708984375 325.2734375 0.708984375 318.13671875 -0.0869140625 c 0,13,14
 314.403320312 -1.08203125 314.403320312 -1.08203125 310.533203125 -1.08203125 c 0,15,16
 287.904296875 -1.080078125 287.904296875 -1.080078125 245.524414062 -1.8740234375 c 128,-1,17
 203.145507812 -2.66796875 203.145507812 -2.66796875 184.88671875 -2.4296875 c 128,-1,18
 166.626953125 -2.1923828125 166.626953125 -2.1923828125 141.573242188 0.921875 c 128,-1,19
 116.51953125 4.037109375 116.51953125 4.037109375 98.3046875 10.953125 c 0,20,21
 56.888671875 26.677734375 56.888671875 26.677734375 39.67578125 67.4521484375 c 0,22,23
 25 102.219726562 25 102.219726562 25 167.486328125 c 0,24,25
 25 227.40625 25 227.40625 68.001953125 260.305664062 c 0,26,27
 103.373046875 287.368164062 103.373046875 287.368164062 156.840820312 287.436523438 c 0,28,-1
 285.432617188 287.57421875 l 1,29,-1
 285.466796875 350.73046875 l 2,30,31
 285.4765625 368.551757812 285.4765625 368.551757812 280.997070312 384.055664062 c 128,-1,32
 276.518554688 399.559570312 276.518554688 399.559570312 272.979492188 405.440429688 c 128,-1,33
 269.440429688 411.322265625 269.440429688 411.322265625 267.668945312 412.921875 c 0,34,35
 265.614257812 414.778320312 265.614257812 414.778320312 261.353515625 418.744140625 c 128,-1,36
 257.092773438 422.7109375 257.092773438 422.7109375 255.931640625 423.645507812 c 128,-1,37
 254.770507812 424.579101562 254.770507812 424.579101562 251.705078125 426.86328125 c 128,-1,38
 248.639648438 429.147460938 248.639648438 429.147460938 246.374023438 429.94921875 c 128,-1,39
 244.108398438 430.75 244.108398438 430.75 240.412109375 431.987304688 c 128,-1,40
 236.716796875 433.224609375 236.716796875 433.224609375 231.694335938 434.374023438 c 0,41,42
 198.213867188 442.036132812 198.213867188 442.036132812 95.2607421875 439.834960938 c 0,43,44
 94.720703125 439.81640625 94.720703125 439.81640625 94.23046875 439.81640625 c 0,45,46
 81.9892578125 439.81640625 81.9892578125 439.81640625 73.326171875 448.48046875 c 128,-1,47
 64.6630859375 457.143554688 64.6630859375 457.143554688 64.6630859375 469.384765625 c 128,-1,48
 64.6630859375 481.529296875 64.6630859375 481.529296875 73.2578125 490.192382812 c 128,-1,49
 81.8525390625 498.85546875 81.8525390625 498.85546875 93.9970703125 498.951171875 c 0,50,51
 123.995117188 499.59375 123.995117188 499.59375 146.288085938 499.555664062 c 0,0,1
285.399414062 228.444335938 m 1,52,-1
 156.916015625 228.30859375 l 2,53,54
 123.434570312 228.265625 123.434570312 228.265625 103.935546875 213.346679688 c 0,55,56
 84.1357421875 198.198242188 84.1357421875 198.198242188 84.1357421875 167.490234375 c 0,57,58
 84.1357421875 114.1875 84.1357421875 114.1875 94.1552734375 90.4521484375 c 0,59,60
 98.58984375 79.947265625 98.58984375 79.947265625 103.71875 75.076171875 c 128,-1,61
 108.84765625 70.2041015625 108.84765625 70.2041015625 119.298828125 66.236328125 c 0,62,63
 142.390625 57.46875 142.390625 57.46875 265.56640625 57.9404296875 c 0,64,65
 278.543945312 57.990234375 278.543945312 57.990234375 285.309570312 58.0107421875 c 1,66,-1
 285.399414062 228.444335938 l 1,52,-1
EndSplineSet
EndChar

StartChar: Abreve
Encoding: 258 258 21
Width: 512
VWidth: 0
GlyphClass: 2
Flags: W
LayerCount: 2
Fore
SplineSet
279.811523438 701.383789062 m 5,0,-1
 279.913085938 701.383789062 l 5,1,-1
 433.133789062 700.53125 l 6,2,3
 445.287109375 700.462890625 445.287109375 700.462890625 453.888671875 691.8125 c 132,-1,4
 462.490234375 683.162109375 462.490234375 683.162109375 462.490234375 671.0078125 c 4,5,-1
 461.619140625 28.6376953125 l 5,6,-1
 461.622070312 28.2744140625 l 6,7,8
 461.622070312 16.0517578125 461.622070312 16.0517578125 452.971679688 7.40234375 c 132,-1,9
 444.321289062 -1.248046875 444.321289062 -1.248046875 432.098632812 -1.248046875 c 132,-1,10
 419.875976562 -1.248046875 419.875976562 -1.248046875 411.225585938 7.40234375 c 132,-1,11
 402.575195312 16.0517578125 402.575195312 16.0517578125 402.575195312 28.2744140625 c 6,12,-1
 402.578125 28.7177734375 l 5,13,-1
 403.030273438 360.984375 l 5,14,-1
 88.3857421875 361.1796875 l 5,15,-1
 84.16015625 361.182617188 l 5,16,-1
 84.607421875 28.58203125 l 5,17,-1
 84.6103515625 28.138671875 l 6,18,19
 84.6103515625 15.916015625 84.6103515625 15.916015625 75.9599609375 7.265625 c 132,-1,20
 67.3095703125 -1.384765625 67.3095703125 -1.384765625 55.0869140625 -1.384765625 c 132,-1,21
 42.8642578125 -1.384765625 42.8642578125 -1.384765625 34.2138671875 7.265625 c 132,-1,22
 25.5634765625 15.916015625 25.5634765625 15.916015625 25.5634765625 28.138671875 c 6,23,-1
 25.56640625 28.501953125 l 5,24,-1
 25 450.557617188 l 6,25,26
 26.0380859375 580.524414062 26.0380859375 580.524414062 92.4677734375 642.56640625 c 4,27,28
 155.193359375 701.1484375 155.193359375 701.1484375 279.811523438 701.383789062 c 5,0,-1
279.900390625 642.34375 m 6,29,30
 178.533203125 642.15234375 178.533203125 642.15234375 132.7890625 599.4296875 c 4,31,32
 84.900390625 554.70703125 84.900390625 554.70703125 84.064453125 450.374023438 c 4,33,-1
 84.10546875 420.221679688 l 5,34,-1
 88.4453125 420.219726562 l 5,35,-1
 403.134765625 420.022460938 l 5,36,-1
 403.434570312 641.655273438 l 5,37,-1
 279.900390625 642.34375 l 6,29,30
EndSplineSet
EndChar

StartChar: abreve
Encoding: 259 259 22
Width: 394
VWidth: 0
GlyphClass: 2
Flags: W
LayerCount: 2
Fore
SplineSet
146.288085938 499.555664062 m 0,0,1
 212.4375 499.443359375 212.4375 499.443359375 244.883789062 492.015625 c 0,2,3
 276.266601562 484.83203125 276.266601562 484.83203125 307.302734375 456.801757812 c 0,4,-1
 307.310546875 456.793945312 l 2,5,6
 344.62890625 423.069335938 344.62890625 423.069335938 344.590820312 350.701171875 c 2,7,-1
 344.421875 29.6904296875 l 1,8,-1
 344.423828125 29.2978515625 l 2,9,10
 344.423828125 22.1162109375 344.423828125 22.1162109375 340.904296875 15.6298828125 c 128,-1,11
 337.385742188 9.1435546875 337.385742188 9.1435546875 331.330078125 4.9267578125 c 128,-1,12
 325.2734375 0.708984375 325.2734375 0.708984375 318.13671875 -0.0869140625 c 0,13,14
 314.403320312 -1.08203125 314.403320312 -1.08203125 310.533203125 -1.08203125 c 0,15,16
 287.904296875 -1.080078125 287.904296875 -1.080078125 245.524414062 -1.8740234375 c 128,-1,17
 203.145507812 -2.66796875 203.145507812 -2.66796875 184.88671875 -2.4296875 c 128,-1,18
 166.626953125 -2.1923828125 166.626953125 -2.1923828125 141.573242188 0.921875 c 128,-1,19
 116.51953125 4.037109375 116.51953125 4.037109375 98.3046875 10.953125 c 0,20,21
 56.888671875 26.677734375 56.888671875 26.677734375 39.67578125 67.4521484375 c 0,22,23
 25 102.219726562 25 102.219726562 25 167.486328125 c 0,24,25
 25 227.40625 25 227.40625 68.001953125 260.305664062 c 0,26,27
 103.373046875 287.368164062 103.373046875 287.368164062 156.840820312 287.436523438 c 0,28,-1
 285.432617188 287.57421875 l 1,29,-1
 285.466796875 350.73046875 l 2,30,31
 285.4765625 368.551757812 285.4765625 368.551757812 280.997070312 384.055664062 c 128,-1,32
 276.518554688 399.559570312 276.518554688 399.559570312 272.979492188 405.440429688 c 128,-1,33
 269.440429688 411.322265625 269.440429688 411.322265625 267.668945312 412.921875 c 0,34,35
 265.614257812 414.778320312 265.614257812 414.778320312 261.353515625 418.744140625 c 128,-1,36
 257.092773438 422.7109375 257.092773438 422.7109375 255.931640625 423.645507812 c 128,-1,37
 254.770507812 424.579101562 254.770507812 424.579101562 251.705078125 426.86328125 c 128,-1,38
 248.639648438 429.147460938 248.639648438 429.147460938 246.374023438 429.94921875 c 128,-1,39
 244.108398438 430.75 244.108398438 430.75 240.412109375 431.987304688 c 128,-1,40
 236.716796875 433.224609375 236.716796875 433.224609375 231.694335938 434.374023438 c 0,41,42
 198.213867188 442.036132812 198.213867188 442.036132812 95.2607421875 439.834960938 c 0,43,44
 94.720703125 439.81640625 94.720703125 439.81640625 94.23046875 439.81640625 c 0,45,46
 81.9892578125 439.81640625 81.9892578125 439.81640625 73.326171875 448.48046875 c 128,-1,47
 64.6630859375 457.143554688 64.6630859375 457.143554688 64.6630859375 469.384765625 c 128,-1,48
 64.6630859375 481.529296875 64.6630859375 481.529296875 73.2578125 490.192382812 c 128,-1,49
 81.8525390625 498.85546875 81.8525390625 498.85546875 93.9970703125 498.951171875 c 0,50,51
 123.995117188 499.59375 123.995117188 499.59375 146.288085938 499.555664062 c 0,0,1
285.399414062 228.444335938 m 1,52,-1
 156.916015625 228.30859375 l 2,53,54
 123.434570312 228.265625 123.434570312 228.265625 103.935546875 213.346679688 c 0,55,56
 84.1357421875 198.198242188 84.1357421875 198.198242188 84.1357421875 167.490234375 c 0,57,58
 84.1357421875 114.1875 84.1357421875 114.1875 94.1552734375 90.4521484375 c 0,59,60
 98.58984375 79.947265625 98.58984375 79.947265625 103.71875 75.076171875 c 128,-1,61
 108.84765625 70.2041015625 108.84765625 70.2041015625 119.298828125 66.236328125 c 0,62,63
 142.390625 57.46875 142.390625 57.46875 265.56640625 57.9404296875 c 0,64,65
 278.543945312 57.990234375 278.543945312 57.990234375 285.309570312 58.0107421875 c 1,66,-1
 285.399414062 228.444335938 l 1,52,-1
EndSplineSet
EndChar

StartChar: Nacute
Encoding: 323 323 23
Width: 511
VWidth: 0
GlyphClass: 2
Flags: W
LayerCount: 2
Fore
SplineSet
431.905273438 702.821289062 m 4,0,-1
 432.315429688 702.823242188 l 6,1,2
 444.518554688 702.823242188 444.518554688 702.823242188 453.154296875 694.186523438 c 132,-1,3
 461.791015625 685.55078125 461.791015625 685.55078125 461.791015625 673.34765625 c 4,4,-1
 460.918945312 28.4111328125 l 6,5,6
 460.8984375 16.228515625 460.8984375 16.228515625 452.26171875 7.607421875 c 132,-1,7
 443.625976562 -1.0146484375 443.625976562 -1.0146484375 431.443359375 -1.0146484375 c 4,8,9
 414.543945312 -1.0146484375 414.543945312 -1.0146484375 406.005859375 13.5703125 c 6,10,-1
 84.0390625 564.014648438 l 5,11,-1
 84.5009765625 28.34765625 l 6,12,13
 84.5048828125 15.7158203125 84.5048828125 15.7158203125 75.8681640625 7.080078125 c 132,-1,14
 67.232421875 -1.556640625 67.232421875 -1.556640625 55.029296875 -1.556640625 c 132,-1,15
 42.826171875 -1.556640625 42.826171875 -1.556640625 34.1904296875 7.080078125 c 132,-1,16
 25.5537109375 15.7158203125 25.5537109375 15.7158203125 25.5537109375 27.9189453125 c 4,17,-1
 25 672.919921875 l 6,18,19
 25 685.139648438 25 685.139648438 33.63671875 693.775390625 c 132,-1,20
 42.2724609375 702.412109375 42.2724609375 702.412109375 54.4755859375 702.412109375 c 4,21,22
 71.3759765625 702.412109375 71.3759765625 702.412109375 79.9140625 687.827148438 c 6,23,-1
 402.11328125 136.971679688 l 5,24,-1
 402.8359375 672.971679688 l 6,25,26
 402.833984375 685.385742188 402.833984375 685.385742188 411.3515625 694.020507812 c 132,-1,27
 419.869140625 702.65625 419.869140625 702.65625 431.905273438 702.821289062 c 4,0,-1
EndSplineSet
EndChar

StartChar: nacute
Encoding: 324 324 24
Width: 407
GlyphClass: 2
Flags: W
LayerCount: 2
Fore
SplineSet
150.4765625 499.633789062 m 1,0,-1
 150.505859375 499.63671875 l 1,1,2
 216.135742188 499.63671875 216.135742188 499.63671875 254.879882812 491.322265625 c 128,-1,3
 293.623046875 483.0078125 293.623046875 483.0078125 318.583984375 458.083984375 c 0,4,5
 343.245117188 433.458984375 343.245117188 433.458984375 350.823242188 396.690429688 c 128,-1,6
 358.400390625 359.921875 358.400390625 359.921875 357.9296875 298.294921875 c 0,7,-1
 357.916015625 24.7958984375 l 2,8,9
 358.064453125 12.2958984375 358.064453125 12.2958984375 349.27734375 3.404296875 c 128,-1,10
 340.489257812 -5.4873046875 340.489257812 -5.4873046875 327.98828125 -5.486328125 c 128,-1,11
 315.487304688 -5.4853515625 315.487304688 -5.4853515625 306.701171875 3.4072265625 c 128,-1,12
 297.915039062 12.2998046875 297.915039062 12.2998046875 298.065429688 24.7998046875 c 2,13,-1
 298.080078125 298.411132812 l 1,14,-1
 298.080078125 298.525390625 l 2,15,16
 298.819335938 393.231445312 298.819335938 393.231445312 276.29296875 415.725585938 c 0,17,18
 252.205078125 439.780273438 252.205078125 439.780273438 150.50390625 439.780273438 c 2,19,-1
 85.111328125 439.659179688 l 1,20,-1
 85.111328125 24.63671875 l 2,21,22
 85.4091796875 5.4365234375 85.4091796875 5.4365234375 70.234375 -2.494140625 c 128,-1,23
 55.05859375 -10.4248046875 55.05859375 -10.4248046875 39.8828125 -2.494140625 c 128,-1,24
 24.7080078125 5.4365234375 24.7080078125 5.4365234375 25.005859375 24.63671875 c 2,25,-1
 25.005859375 466.114257812 l 2,26,27
 24.7734375 482.549804688 24.7734375 482.549804688 36.8037109375 492.772460938 c 0,28,29
 44.908203125 499.661132812 44.908203125 499.661132812 60.779296875 499.46484375 c 2,30,-1
 150.4765625 499.633789062 l 1,0,-1
EndSplineSet
EndChar

StartChar: uni01D5
Encoding: 469 469 25
Width: 395
VWidth: 0
Flags: W
LayerCount: 2
Fore
SplineSet
54.4501953125 502.107421875 m 1,0,-1
 54.8984375 502.110351562 l 2,1,2
 67.2783203125 502.110351562 67.2783203125 502.110351562 76.041015625 493.348632812 c 128,-1,3
 84.802734375 484.5859375 84.802734375 484.5859375 84.802734375 472.206054688 c 0,4,-1
 84.7998046875 152.551757812 l 2,5,6
 85.0517578125 106.645507812 85.0517578125 106.645507812 105.793945312 84.041015625 c 0,7,8
 129.53125 58.1708984375 129.53125 58.1708984375 185.001953125 58.1708984375 c 128,-1,9
 240.650390625 58.1708984375 240.650390625 58.1708984375 264.7890625 84.353515625 c 0,10,11
 285.861328125 107.208007812 285.861328125 107.208007812 285.206054688 151.951171875 c 0,12,-1
 285.203125 471.784179688 l 2,13,14
 285.200195312 484.610351562 285.200195312 484.610351562 293.961914062 493.373046875 c 128,-1,15
 302.724609375 502.134765625 302.724609375 502.134765625 315.104492188 502.134765625 c 128,-1,16
 327.485351562 502.134765625 327.485351562 502.134765625 336.247070312 493.373046875 c 128,-1,17
 345.009765625 484.610351562 345.009765625 484.610351562 345.009765625 472.23046875 c 0,18,-1
 345.005859375 152.389648438 l 1,19,-1
 345.005859375 152.828125 l 2,20,21
 346.012695312 84.2236328125 346.012695312 84.2236328125 308.7578125 43.8154296875 c 0,22,23
 266.858398438 -1.6318359375 266.858398438 -1.6318359375 185.00390625 -1.6318359375 c 128,-1,24
 103.244140625 -1.6318359375 103.244140625 -1.6318359375 61.7314453125 43.6064453125 c 0,25,26
 25.3779296875 83.2236328125 25.3779296875 83.2236328125 25 152.224609375 c 0,27,-1
 25 471.784179688 l 2,28,29
 24.99609375 484.401367188 24.99609375 484.401367188 33.6259765625 493.162109375 c 128,-1,30
 42.2568359375 501.923828125 42.2568359375 501.923828125 54.4501953125 502.107421875 c 1,0,-1
EndSplineSet
EndChar

StartChar: Aogonek
Encoding: 260 260 26
Width: 512
VWidth: 0
Flags: W
LayerCount: 2
Fore
SplineSet
279.811523438 701.383789062 m 5,0,-1
 279.913085938 701.383789062 l 5,1,-1
 433.133789062 700.53125 l 6,2,3
 445.287109375 700.462890625 445.287109375 700.462890625 453.888671875 691.8125 c 132,-1,4
 462.490234375 683.162109375 462.490234375 683.162109375 462.490234375 671.0078125 c 4,5,-1
 461.619140625 28.6376953125 l 5,6,-1
 461.622070312 28.2744140625 l 6,7,8
 461.622070312 16.0517578125 461.622070312 16.0517578125 452.971679688 7.40234375 c 132,-1,9
 444.321289062 -1.248046875 444.321289062 -1.248046875 432.098632812 -1.248046875 c 132,-1,10
 419.875976562 -1.248046875 419.875976562 -1.248046875 411.225585938 7.40234375 c 132,-1,11
 402.575195312 16.0517578125 402.575195312 16.0517578125 402.575195312 28.2744140625 c 6,12,-1
 402.578125 28.7177734375 l 5,13,-1
 403.030273438 360.984375 l 5,14,-1
 88.3857421875 361.1796875 l 5,15,-1
 84.16015625 361.182617188 l 5,16,-1
 84.607421875 28.58203125 l 5,17,-1
 84.6103515625 28.138671875 l 6,18,19
 84.6103515625 15.916015625 84.6103515625 15.916015625 75.9599609375 7.265625 c 132,-1,20
 67.3095703125 -1.384765625 67.3095703125 -1.384765625 55.0869140625 -1.384765625 c 132,-1,21
 42.8642578125 -1.384765625 42.8642578125 -1.384765625 34.2138671875 7.265625 c 132,-1,22
 25.5634765625 15.916015625 25.5634765625 15.916015625 25.5634765625 28.138671875 c 6,23,-1
 25.56640625 28.501953125 l 5,24,-1
 25 450.557617188 l 6,25,26
 26.0380859375 580.524414062 26.0380859375 580.524414062 92.4677734375 642.56640625 c 4,27,28
 155.193359375 701.1484375 155.193359375 701.1484375 279.811523438 701.383789062 c 5,0,-1
279.900390625 642.34375 m 6,29,30
 178.533203125 642.15234375 178.533203125 642.15234375 132.7890625 599.4296875 c 4,31,32
 84.900390625 554.70703125 84.900390625 554.70703125 84.064453125 450.374023438 c 4,33,-1
 84.10546875 420.221679688 l 5,34,-1
 88.4453125 420.219726562 l 5,35,-1
 403.134765625 420.022460938 l 5,36,-1
 403.434570312 641.655273438 l 5,37,-1
 279.900390625 642.34375 l 6,29,30
EndSplineSet
EndChar

StartChar: two
Encoding: 50 50 27
Width: 600
VWidth: 0
Flags: W
LayerCount: 2
Fore
SplineSet
113.663085938 693.159179688 m 128,-1,1
 120.154296875 699.614257812 120.154296875 699.614257812 136.063476562 699.614257812 c 2,2,-1
 348.540039062 699.924804688 l 2,3,4
 432.74609375 700.107421875 432.74609375 700.107421875 468.98828125 647.4140625 c 0,5,6
 497.1328125 606.498046875 497.1328125 606.498046875 492.00390625 530.571289062 c 2,7,-1
 491.794921875 528.635742188 l 2,8,9
 482.993164062 458.71484375 482.993164062 458.71484375 423.30078125 400.431640625 c 0,10,11
 391.870117188 369.743164062 391.870117188 369.743164062 315.489257812 313.186523438 c 0,12,13
 178.854492188 213.125 178.854492188 213.125 165.442382812 121.821289062 c 0,14,-1
 165.327148438 120.268554688 l 1,15,-1
 165.247070312 69.3623046875 l 1,16,-1
 165.23046875 59.0458984375 l 1,17,-1
 165.229492188 58.544921875 l 1,18,-1
 176.046875 58.544921875 l 1,19,-1
 463.401367188 58.544921875 l 2,20,21
 479.68359375 58.55078125 479.68359375 58.55078125 486.255859375 52.025390625 c 128,-1,22
 492.827148438 45.501953125 492.827148438 45.501953125 492.827148438 29.6689453125 c 128,-1,23
 492.827148438 13.705078125 492.827148438 13.705078125 486.336914062 7.2490234375 c 128,-1,24
 479.845703125 0.79296875 479.845703125 0.79296875 463.951171875 0.79296875 c 2,25,-1
 136.302734375 0.8046875 l 2,26,27
 120.338867188 0.8046875 120.338867188 0.8046875 113.8828125 7.2919921875 c 128,-1,28
 107.42578125 13.78125 107.42578125 13.78125 107.42578125 29.65234375 c 2,29,-1
 107.573242188 124.274414062 l 1,30,-1
 107.911132812 128.96875 l 1,31,32
 124.764648438 246.41796875 124.764648438 246.41796875 287.868164062 361.190429688 c 0,33,34
 357.357421875 414.73046875 357.357421875 414.73046875 383.00390625 441.712890625 c 0,35,36
 427.518554688 485.189453125 427.518554688 485.189453125 434.120117188 535.185546875 c 0,37,38
 437.474609375 591.2265625 437.474609375 591.2265625 421.384765625 614.620117188 c 0,39,40
 402.380859375 642.299804688 402.380859375 642.299804688 348.580078125 642.170898438 c 2,41,-1
 136.680664062 641.860351562 l 2,42,43
 120.3515625 641.860351562 120.3515625 641.860351562 113.760742188 648.390625 c 128,-1,44
 107.172851562 654.916992188 107.172851562 654.916992188 107.172851562 670.737304688 c 128,-1,0
 107.172851562 686.705078125 107.172851562 686.705078125 113.663085938 693.159179688 c 128,-1,1
107.911132812 128.46875 m 1,45,-1
 107.911132812 128.46875 l 1,45,-1
107.573242188 123.774414062 m 1,46,-1
 107.573242188 123.774414062 l 1,46,-1
EndSplineSet
EndChar

StartChar: semicolon
Encoding: 59 59 28
Width: 270
VWidth: 26
Flags: W
LayerCount: 2
Fore
SplineSet
181.15625 445.400390625 m 128,-1,1
 200.448100901 445.400390625 200.448100901 445.400390625 206.95647323 438.886434455 c 128,-1,2
 213.468752279 432.368568214 213.468752279 432.368568214 213.468752279 413.123190271 c 128,-1,3
 213.460672698 393.825273613 213.460672698 393.825273613 206.943415109 387.313502951 c 128,-1,4
 200.424225827 380.799802223 200.424225827 380.799802223 181.192961631 380.799802223 c 128,-1,5
 161.893795494 380.808205531 161.893795494 380.808205531 155.382511618 387.325311388 c 128,-1,6
 148.869140625 393.844506229 148.869140625 393.844506229 148.869140625 413.087890625 c 128,-1,7
 148.869140625 432.380976874 148.869140625 432.380976874 155.382549528 438.888692393 c 128,-1,0
 161.899944627 445.400390625 161.899944627 445.400390625 181.15625 445.400390625 c 128,-1,1
175.03211337 72.787201524 m 0,8,9
 188.348596134 72.8225428011 188.348596134 72.8225428011 199.972191216 63.5976103728 c 0,10,11
 212.892051707 50.0858879875 212.892051707 50.0858879875 212.815951956 41.368313584 c 0,12,13
 212.736838809 32.3055409363 212.736838809 32.3055409363 199.30058602 18.8689699565 c 2,14,-1
 84.1787451331 -92.9277668635 l 2,15,16
 70.3619748109 -106.712063447 70.3619748109 -106.712063447 61.1984263504 -106.704716271 c 128,-1,17
 52.0340229783 -106.697368408 52.0340229783 -106.697368408 38.3962649631 -93.0515340233 c 128,-1,18
 24.7692656159 -79.3841900584 24.7692656159 -79.3841900584 24.7725797274 -70.1866849848 c 128,-1,19
 24.7758921082 -60.9939829938 24.7758921082 -60.9939829938 38.2501955551 -47.5193602582 c 2,20,-1
 153.216247916 64.1261133321 l 2,21,22
 162.12058219 72.7527161724 162.12058219 72.7527161724 175.03211337 72.787201524 c 0,8,9
EndSplineSet
EndChar

StartChar: comma
Encoding: 44 44 29
Width: 270
VWidth: -20
Flags: W
LayerCount: 2
Fore
SplineSet
174.90711337 72.437592149 m 0,0,1
 188.223249626 72.4729325065 188.223249626 72.4729325065 199.845857731 63.2483390823 c 0,2,3
 212.766100297 49.7358086921 212.766100297 49.7358086921 212.689999045 41.0182337243 c 0,4,5
 212.61088585 31.9556337841 212.61088585 31.9556337841 199.174719891 18.5194678241 c 2,6,-1
 84.0526706495 -93.2774713328 l 2,7,8
 70.2355462022 -107.062360101 70.2355462022 -107.062360101 61.0724267455 -107.055116927 c 128,-1,9
 51.9086188147 -107.047873208 51.9086188147 -107.047873208 38.2712740883 -93.4021291127 c 128,-1,10
 24.643750933 -79.7342276707 24.643750933 -79.7342276707 24.647068032 -70.5365617093 c 128,-1,11
 24.6503833702 -61.3437786265 24.6503833702 -61.3437786265 38.1250850545 -47.8690769422 c 2,12,-1
 153.091247916 63.7765039571 l 2,13,14
 161.99558219 72.4031067974 161.99558219 72.4031067974 174.90711337 72.437592149 c 0,0,1
EndSplineSet
EndChar

StartChar: period
Encoding: 46 46 30
Width: 270
VWidth: -4
Flags: W
LayerCount: 2
Fore
SplineSet
149.992967562 90.5625 m 128,-1,1
 169.270122487 90.5708972392 169.270122487 90.5708972392 175.777843525 84.0599069852 c 128,-1,2
 182.291748033 77.5427301542 182.291748033 77.5427301542 182.299806967 58.2979949588 c 128,-1,3
 182.291729029 39.0040039984 182.291729029 39.0040039984 175.776049893 32.4999129643 c 128,-1,4
 169.256147697 25.9916063813 169.256147697 25.9916063813 149.987304688 26 c 128,-1,5
 130.710424886 26 130.710424886 26 124.208282873 32.5106377042 c 128,-1,6
 117.700195312 39.0272287242 117.700195312 39.0272287242 117.700195312 58.287109375 c 128,-1,7
 117.700195312 77.5559590514 117.700195312 77.5559590514 124.210240456 84.0555824729 c 128,-1,0
 130.727591402 90.5625 130.727591402 90.5625 149.992967562 90.5625 c 128,-1,1
EndSplineSet
EndChar

StartChar: slash
Encoding: 47 47 31
Width: 640
VWidth: 79
Flags: W
LayerCount: 2
Fore
SplineSet
501.331544354 773.988064809 m 2,0,-1
 502.523135586 774.006835938 l 2,1,2
 520.632714926 774.006835938 520.632714926 774.006835938 526.664549029 767.969950928 c 128,-1,3
 532.700195312 761.929250547 532.700195312 761.929250547 532.700195312 743.637695312 c 0,4,5
 532.700195312 735.847193754 532.700195312 735.847193754 528.88947373 728.920888517 c 0,6,-1
 528.636364264 728.432288565 l 1,7,-1
 194.793341695 42.5031131317 l 2,8,9
 186.327459182 25.8193359375 186.327459182 25.8193359375 167.681640625 25.8193359375 c 0,10,11
 149.347325092 25.8193359375 149.347325092 25.8193359375 143.324619688 31.8448311542 c 128,-1,12
 137.299804688 37.8724369433 137.299804688 37.8724369433 137.299804688 56.1884765625 c 0,13,14
 137.299804688 64.0396275826 137.299804688 64.0396275826 141.184981009 71.0139120352 c 0,15,-1
 141.466185049 71.553257625 l 1,16,-1
 475.305344827 757.472631971 l 2,17,18
 483.512947293 773.496898472 483.512947293 773.496898472 501.331544354 773.988064809 c 2,0,-1
EndSplineSet
EndChar

StartChar: zero
Encoding: 48 48 32
Width: 600
VWidth: 0
Flags: W
LayerCount: 2
Fore
SplineSet
95.8623046875 436.140625 m 2,0,1
 95.46484375 556.114257812 95.46484375 556.114257812 140.893554688 626.763671875 c 0,2,3
 187.740234375 699.62109375 187.740234375 699.62109375 258.794921875 699.62109375 c 2,4,-1
 341.2890625 699.62109375 l 2,5,6
 412.381835938 699.62109375 412.381835938 699.62109375 459.05859375 626.83984375 c 0,7,8
 503.806640625 555.953125 503.806640625 555.953125 504.138671875 436.104492188 c 2,9,-1
 504.138671875 267.723632812 l 2,10,11
 504.525390625 147.95703125 504.525390625 147.95703125 459.26953125 75.4482421875 c 0,12,13
 435.471679688 37.322265625 435.471679688 37.322265625 404.90234375 18.8037109375 c 0,14,15
 375.086914062 0.30078125 375.086914062 0.30078125 341.03515625 0.30078125 c 2,16,-1
 258.05078125 0.30078125 l 2,17,18
 187.790039062 0.30078125 187.790039062 0.30078125 140.758789062 75.404296875 c 0,19,20
 95.859375 148.096679688 95.859375 148.096679688 95.8623046875 267.758789062 c 2,21,-1
 95.8623046875 436.140625 l 2,0,1
407.522460938 594.560546875 m 0,22,23
 377.399414062 638.365234375 377.399414062 638.365234375 341.342773438 638.815429688 c 2,24,-1
 258.794921875 638.815429688 l 2,25,26
 224.638671875 638.815429688 224.638671875 638.815429688 192.698242188 594.727539062 c 0,27,28
 156.666992188 546.440429688 156.666992188 546.440429688 156.666992188 436.104492188 c 2,29,-1
 156.666992188 267.759765625 l 2,30,31
 156.659179688 156.986328125 156.659179688 156.986328125 192.768554688 107.038085938 c 0,32,33
 223.577148438 61.0927734375 223.577148438 61.0927734375 258.05078125 61.0927734375 c 2,34,-1
 341.03515625 61.0927734375 l 2,35,36
 375.6640625 61.0927734375 375.6640625 61.0927734375 407.293945312 106.9921875 c 0,37,38
 443.333984375 156.868164062 443.333984375 156.868164062 443.333984375 267.758789062 c 2,39,-1
 443.333984375 436.138671875 l 2,40,41
 442.987304688 546.159179688 442.987304688 546.159179688 407.522460938 594.560546875 c 0,22,23
EndSplineSet
EndChar

StartChar: one
Encoding: 49 49 33
Width: 600
VWidth: 79
Flags: W
LayerCount: 2
Fore
SplineSet
203.682617188 669.958007812 m 128,-1,1
 203.682617188 686.555664062 203.682617188 686.555664062 210.6953125 693.423828125 c 128,-1,2
 217.713867188 700.297851562 217.713867188 700.297851562 234.686523438 700.34765625 c 2,3,-1
 365.880859375 700.34765625 l 2,4,5
 382.615234375 700.297851562 382.615234375 700.297851562 389.465820312 693.396484375 c 128,-1,6
 396.31640625 686.495117188 396.31640625 686.495117188 396.31640625 669.958007812 c 2,7,-1
 396.31640625 30.0341796875 l 2,8,9
 396.319335938 12.8203125 396.319335938 12.8203125 389.401367188 5.876953125 c 128,-1,10
 382.486328125 -1.06640625 382.486328125 -1.06640625 365.9140625 -0.951171875 c 0,11,12
 349.15625 -1.0673828125 349.15625 -1.0673828125 342.336914062 5.802734375 c 128,-1,13
 335.516601562 12.673828125 335.516601562 12.673828125 335.51171875 29.451171875 c 2,14,-1
 335.524414062 628.755859375 l 1,15,-1
 335.524414062 639.055664062 l 1,16,-1
 335.024414062 639.555664062 l 1,17,-1
 324.723632812 639.555664062 l 1,18,-1
 234.637695312 639.555664062 l 2,19,20
 217.6015625 639.502929688 217.6015625 639.502929688 210.641601562 646.424804688 c 128,-1,0
 203.682617188 653.348632812 203.682617188 653.348632812 203.682617188 669.958007812 c 128,-1,1
EndSplineSet
EndChar

StartChar: three
Encoding: 51 51 34
Width: 600
VWidth: 0
Flags: W
LayerCount: 2
Fore
SplineSet
110.669921875 692.676757812 m 128,-1,1
 117.067382812 699.029296875 117.067382812 699.029296875 132.86328125 698.911132812 c 2,2,-1
 357.959960938 699.208984375 l 2,3,4
 438.831054688 699.310546875 438.831054688 699.310546875 472.603515625 647.787109375 c 0,5,6
 502.036132812 603.086914062 502.036132812 603.086914062 483.831054688 536.463867188 c 0,7,8
 464.19140625 468.236328125 464.19140625 468.236328125 383.701171875 407.661132812 c 2,9,-1
 371.1640625 398.078125 l 1,10,-1
 370.559570312 397.615234375 l 1,11,-1
 371.22265625 397.244140625 l 1,12,-1
 384.997070312 389.568359375 l 2,13,14
 437.556640625 360.697265625 437.556640625 360.697265625 460.497070312 330.967773438 c 0,15,16
 495.731445312 284.1015625 495.731445312 284.1015625 495.728515625 215.25390625 c 0,17,18
 495.731445312 145.522460938 495.731445312 145.522460938 454.913085938 78.8798828125 c 0,19,20
 406.965820312 -0.775390625 406.965820312 -0.775390625 343.327148438 -0.775390625 c 2,21,-1
 133.696289062 -0.775390625 l 2,22,23
 117.350585938 -0.95703125 117.350585938 -0.95703125 110.916992188 5.4375 c 128,-1,24
 104.483398438 11.830078125 104.483398438 11.830078125 104.625 27.796875 c 0,25,26
 104.482421875 43.7392578125 104.482421875 43.7392578125 110.854492188 50.076171875 c 128,-1,27
 117.23046875 56.4150390625 117.23046875 56.4150390625 133.196289062 56.3671875 c 2,28,-1
 343.364257812 56.3671875 l 2,29,30
 374.646484375 56.5126953125 374.646484375 56.5126953125 406.153320312 108.641601562 c 0,31,32
 439.078125 162.125976562 439.078125 162.125976562 438.59765625 215.248046875 c 0,33,34
 439.086914062 264.501953125 439.086914062 264.501953125 414.69140625 296.791015625 c 0,35,36
 382.224609375 339.2109375 382.224609375 339.2109375 309.7890625 364.899414062 c 0,37,38
 292.368164062 370.928710938 292.368164062 370.928710938 292.215820312 392.23046875 c 0,39,40
 292.368164062 414.311523438 292.368164062 414.311523438 310.349609375 419.750976562 c 0,41,42
 401.044921875 446.810546875 401.044921875 446.810546875 428.849609375 551.760742188 c 0,43,44
 439.927734375 593.4453125 439.927734375 593.4453125 424.966796875 616.2734375 c 0,45,46
 408.711914062 642.14453125 408.711914062 642.14453125 358.005859375 642.078125 c 2,47,-1
 133.375976562 641.76953125 l 2,48,49
 117.245117188 641.659179688 117.245117188 641.659179688 110.7578125 648.0859375 c 128,-1,50
 104.271484375 654.510742188 104.271484375 654.510742188 104.271484375 670.340820312 c 128,-1,0
 104.271484375 686.32421875 104.271484375 686.32421875 110.669921875 692.676757812 c 128,-1,1
EndSplineSet
EndChar

StartChar: four
Encoding: 52 52 35
Width: 600
VWidth: 0
Flags: W
LayerCount: 2
Fore
SplineSet
350.172851562 646.411132812 m 1,0,-1
 349.668945312 646.911132812 l 1,1,-1
 340.618164062 646.787109375 l 1,2,-1
 332.564453125 646.677734375 l 1,3,-1
 327.276367188 646.606445312 l 1,4,-1
 326.833007812 646.318359375 l 1,5,-1
 324.340820312 640.953125 l 1,6,-1
 164.272460938 314.41796875 l 1,7,-1
 163.037109375 312.10546875 l 1,8,-1
 162.978515625 311.865234375 l 1,9,-1
 163.001953125 309.234375 l 1,10,-1
 163.115234375 296.676757812 l 1,11,-1
 163.206054688 286.565429688 l 1,12,-1
 163.2109375 286.075195312 l 1,13,-1
 163.701171875 286.0703125 l 1,14,-1
 173.814453125 285.975585938 l 1,15,-1
 340.640625 284.256835938 l 1,16,-1
 349.670898438 284.16015625 l 1,17,-1
 350.172851562 284.66015625 l 1,18,-1
 350.172851562 295.056640625 l 1,19,-1
 350.172851562 635.98828125 l 1,20,-1
 350.172851562 646.411132812 l 1,0,-1
299.624023438 699.583007812 m 0,21,22
 305.534179688 704.028320312 305.534179688 704.028320312 311.770507812 704.110351562 c 2,23,-1
 375.849609375 704.939453125 l 2,24,25
 387.171875 705.204101562 387.171875 705.204101562 395.708984375 696.553710938 c 0,26,27
 404.09375 688.278320312 404.09375 688.278320312 404.09375 676.337890625 c 2,28,-1
 404.09375 294.825195312 l 1,29,-1
 404.09375 284.62109375 l 1,30,-1
 404.588867188 284.12109375 l 1,31,-1
 414.79296875 284.025390625 l 1,32,-1
 465.75 283.549804688 l 2,33,34
 477.685546875 283.901367188 477.685546875 283.901367188 485.73828125 275.340820312 c 0,35,36
 494.138671875 266.706054688 494.138671875 266.706054688 494.287109375 254.948242188 c 0,37,38
 494.138671875 242.787109375 494.138671875 242.787109375 485.908203125 234.73046875 c 0,39,40
 477.686523438 226.333984375 477.686523438 226.333984375 466.162109375 226.34765625 c 2,41,-1
 414.99609375 226.825195312 l 1,42,-1
 404.599609375 226.921875 l 1,43,-1
 404.09375 226.926757812 l 1,44,-1
 404.09375 216.025390625 l 2,45,46
 404.09375 184.954101562 404.09375 184.954101562 404.08203125 122.415039062 c 128,-1,47
 404.0703125 59.8720703125 404.0703125 59.8720703125 404.0703125 29.8056640625 c 2,48,-1
 404.130859375 25.83984375 l 2,49,50
 403.548828125 14.39453125 403.548828125 14.39453125 395.888671875 7.25390625 c 0,51,52
 387.169921875 -1.298828125 387.169921875 -1.298828125 375.494140625 -1.296875 c 0,53,54
 365.010742188 -1.298828125 365.010742188 -1.298828125 357.2890625 7.248046875 c 0,55,56
 352.733398438 12.240234375 352.733398438 12.240234375 350.176757812 28.2177734375 c 2,57,-1
 350.176757812 216.763671875 l 1,58,-1
 350.176757812 226.967773438 l 1,59,-1
 350.176757812 227.462890625 l 1,60,-1
 340.822265625 227.563476562 l 1,61,-1
 134.478515625 229.650390625 l 2,62,63
 123.087890625 229.485351562 123.087890625 229.485351562 114.866210938 237.903320312 c 0,64,65
 106.376953125 246.967773438 106.376953125 246.967773438 106.276367188 257.984375 c 2,66,-1
 105.712890625 319.446289062 l 2,67,68
 105.712890625 326.711914062 105.712890625 326.711914062 109.092773438 333.03125 c 2,69,-1
 290.174804688 688.9375 l 2,70,71
 293.107421875 695.004882812 293.107421875 695.004882812 299.624023438 699.583007812 c 0,21,22
EndSplineSet
EndChar

StartChar: six
Encoding: 54 54 36
Width: 600
VWidth: 0
Flags: W
LayerCount: 2
Fore
SplineSet
107.576171875 508.44140625 m 2,0,1
 107.576171875 578.043945312 107.576171875 578.043945312 175.348632812 640.065429688 c 0,2,3
 239.642578125 699.71875 239.642578125 699.71875 299.751953125 699.71875 c 2,4,-1
 461.752929688 699.71875 l 2,5,6
 478.897460938 699.71875 478.897460938 699.71875 485.747070312 692.896484375 c 128,-1,7
 492.594726562 686.079101562 492.594726562 686.079101562 492.418945312 669.6328125 c 0,8,9
 492.596679688 653.21875 492.596679688 653.21875 485.803710938 646.459960938 c 128,-1,10
 479.005859375 639.696289062 479.005859375 639.696289062 462.267578125 639.524414062 c 2,11,-1
 299.822265625 639.53515625 l 2,12,13
 260.025390625 639.990234375 260.025390625 639.990234375 215.850585938 595.58984375 c 0,14,15
 167.747070312 551.892578125 167.747070312 551.892578125 167.747070312 508.44140625 c 2,16,-1
 167.747070312 426.307617188 l 1,17,-1
 167.747070312 415.9453125 l 1,18,-1
 167.747070312 415.442382812 l 1,19,-1
 168.25 415.4453125 l 1,20,-1
 178.612304688 415.5078125 l 1,21,-1
 299.396484375 416.30078125 l 2,22,23
 354.090820312 416.46484375 354.090820312 416.46484375 390.676757812 404.8359375 c 0,24,25
 434.362304688 392.150390625 434.362304688 392.150390625 457.774414062 361.068359375 c 0,26,27
 490.825195312 317.506835938 490.825195312 317.506835938 491.849609375 190.473632812 c 0,28,29
 491.827148438 101.18359375 491.827148438 101.18359375 440.11328125 50.6083984375 c 0,30,31
 414.7421875 26.1171875 414.7421875 26.1171875 377.272460938 13.1474609375 c 0,32,33
 343.762695312 0.1728515625 343.762695312 0.1728515625 300.495117188 -0.923828125 c 0,34,35
 207.354492188 -2.6923828125 207.354492188 -2.6923828125 156.42578125 49.724609375 c 0,36,37
 107.576171875 99.9921875 107.576171875 99.9921875 107.576171875 190.201171875 c 2,38,-1
 107.576171875 508.44140625 l 2,0,1
215.850585938 595.58984375 m 1,39,-1
 215.850585938 595.58984375 l 1,39,-1
409.950195312 324.53125 m 0,40,41
 398.340820312 339.790039062 398.340820312 339.790039062 373.467773438 347.198242188 c 0,42,43
 347.208007812 356.059570312 347.208007812 356.059570312 299.640625 356.108398438 c 2,44,-1
 178.475585938 355.23046875 l 1,45,-1
 168.244140625 355.162109375 l 1,46,-1
 167.747070312 355.159179688 l 1,47,-1
 167.747070312 344.430664062 l 1,48,-1
 167.747070312 190.169921875 l 2,49,50
 167.9375 124.216796875 167.9375 124.216796875 199.57421875 91.701171875 c 0,51,52
 233.713867188 56.03515625 233.713867188 56.03515625 298.490234375 59.1171875 c 2,53,-1
 299.751953125 59.1171875 l 2,54,55
 363.546875 59.1171875 363.546875 59.1171875 398.1875 93.7138671875 c 0,56,57
 431.591796875 126.184570312 431.591796875 126.184570312 431.65625 190.118164062 c 0,58,59
 430.943359375 297.041015625 430.943359375 297.041015625 409.950195312 324.53125 c 0,40,41
EndSplineSet
EndChar

StartChar: five
Encoding: 53 53 37
Width: 600
VWidth: 0
Flags: W
LayerCount: 2
Fore
SplineSet
107.822265625 669.0625 m 2,0,1
 108.00390625 685.624023438 108.00390625 685.624023438 114.850585938 692.421875 c 128,-1,2
 121.696289062 699.219726562 121.696289062 699.219726562 137.91796875 699.219726562 c 2,3,-1
 462.08203125 699.219726562 l 2,4,5
 478.84765625 699.219726562 478.84765625 699.219726562 485.755859375 692.360351562 c 128,-1,6
 492.663085938 685.500976562 492.663085938 685.500976562 492.759765625 669.122070312 c 128,-1,7
 492.663085938 652.828125 492.663085938 652.828125 485.806640625 646.012695312 c 128,-1,8
 478.948242188 639.196289062 478.948242188 639.196289062 462.606445312 639.025390625 c 2,9,-1
 178.803710938 639.025390625 l 1,10,-1
 168.50390625 639.025390625 l 1,11,-1
 168.00390625 638.525390625 l 1,12,-1
 168.00390625 628.225585938 l 1,13,-1
 168.00390625 490.962890625 l 2,14,15
 168.046875 465.465820312 168.046875 465.465820312 176.935546875 456.8046875 c 0,16,17
 189.005859375 445.9375 189.005859375 445.9375 224.680664062 445.115234375 c 0,18,19
 232.834960938 444.907226562 232.834960938 444.907226562 278.5390625 443.668945312 c 0,20,21
 306.80859375 442.751953125 306.80859375 442.751953125 330.700195312 442.23046875 c 0,22,23
 396.611328125 441.750976562 396.611328125 441.750976562 442.482421875 392.35546875 c 0,24,25
 492.505859375 338.10546875 492.505859375 338.10546875 492.177734375 238.854492188 c 0,26,27
 492.51171875 133.188476562 492.51171875 133.188476562 453.750976562 70.6484375 c 0,28,29
 409.541015625 -1.5048828125 409.541015625 -1.5048828125 329.024414062 -1.5048828125 c 2,30,-1
 137.995117188 -1.5048828125 l 2,31,32
 121.0546875 -1.384765625 121.0546875 -1.384765625 114.145507812 5.4814453125 c 128,-1,33
 107.240234375 12.3447265625 107.240234375 12.3447265625 107.240234375 28.591796875 c 0,34,35
 107.240234375 45.0849609375 107.240234375 45.0849609375 114.05859375 51.8603515625 c 128,-1,36
 120.87890625 58.63671875 120.87890625 58.63671875 137.337890625 58.689453125 c 2,37,-1
 330.528320312 58.689453125 l 2,38,39
 375.41796875 58.5419921875 375.41796875 58.5419921875 402.45703125 102.112304688 c 0,40,41
 431.7109375 150.807617188 431.7109375 150.807617188 431.99609375 238.9296875 c 0,42,43
 431.704101562 314.559570312 431.704101562 314.559570312 397.999023438 351.78515625 c 0,44,45
 370.041992188 381.9375 370.041992188 381.9375 330.400390625 382.048828125 c 0,46,47
 311.654296875 381.950195312 311.654296875 381.950195312 277.368164062 383.479492188 c 0,48,49
 249.28125 384.005859375 249.28125 384.005859375 223.969726562 384.9140625 c 0,50,51
 163.706054688 385.991210938 163.706054688 385.991210938 134.8125 413.822265625 c 0,52,53
 107.822265625 440.012695312 107.822265625 440.012695312 107.822265625 492.25390625 c 2,54,-1
 107.822265625 669.0625 l 2,0,1
EndSplineSet
EndChar

StartChar: seven
Encoding: 55 55 38
Width: 600
VWidth: 0
Flags: W
LayerCount: 2
Fore
SplineSet
107.340820312 672.82421875 m 128,-1,1
 107.340820312 689.791992188 107.340820312 689.791992188 114.525390625 696.8125 c 128,-1,2
 121.71484375 703.836914062 121.71484375 703.836914062 138.947265625 703.836914062 c 2,3,-1
 461.69140625 703.836914062 l 2,4,5
 478.682617188 703.8125 478.682617188 703.8125 485.669921875 696.755859375 c 128,-1,6
 492.659179688 689.697265625 492.659179688 689.697265625 492.659179688 672.82421875 c 0,7,8
 492.659179688 665.974609375 492.659179688 665.974609375 489.80078125 659.797851562 c 2,9,-1
 211.87890625 12.9755859375 l 2,10,11
 203.530273438 -4.986328125 203.530273438 -4.986328125 183.743164062 -4.986328125 c 0,12,13
 166.71875 -4.986328125 166.71875 -4.986328125 159.719726562 2.0703125 c 128,-1,14
 152.71875 9.1279296875 152.71875 9.1279296875 152.71875 26.0263671875 c 0,15,16
 152.71875 32.857421875 152.71875 32.857421875 155.614257812 39.0888671875 c 2,17,-1
 406.028320312 626.48046875 l 1,18,-1
 412.799804688 641.102539062 l 1,19,-1
 413.127929688 641.8125 l 1,20,-1
 412.345703125 641.8125 l 1,21,-1
 396.224609375 641.8125 l 1,22,-1
 138.947265625 641.8125 l 2,23,24
 121.588867188 641.8125 121.588867188 641.8125 114.463867188 648.90625 c 128,-1,0
 107.340820312 655.998046875 107.340820312 655.998046875 107.340820312 672.82421875 c 128,-1,1
EndSplineSet
EndChar

StartChar: eight
Encoding: 56 56 39
Width: 600
VWidth: 0
Flags: W
LayerCount: 2
Fore
SplineSet
111.053710938 518.698242188 m 0,0,1
 111.053710938 594.233398438 111.053710938 594.233398438 169.694335938 648.877929688 c 0,2,3
 228.649414062 703.81640625 228.649414062 703.81640625 300 703.81640625 c 128,-1,4
 371.362304688 703.81640625 371.362304688 703.81640625 430.352539062 648.84375 c 0,5,6
 489.001953125 594.178710938 489.001953125 594.178710938 488.946289062 518.639648438 c 0,7,8
 488.84765625 422.955078125 488.84765625 422.955078125 397.461914062 363.30078125 c 2,9,-1
 385.064453125 355.208984375 l 1,10,-1
 384.462890625 354.81640625 l 1,11,-1
 385.040039062 354.388671875 l 1,12,-1
 396.9375 345.578125 l 2,13,14
 428.416992188 322.264648438 428.416992188 322.264648438 432.317382812 318.69140625 c 0,15,16
 488.946289062 256.171875 488.946289062 256.171875 488.946289062 186.752929688 c 128,-1,17
 488.946289062 117.4375 488.946289062 117.4375 430.69921875 58.45703125 c 0,18,19
 369.432617188 -3.564453125 369.432617188 -3.564453125 300 -3.564453125 c 128,-1,20
 230.567382812 -3.564453125 230.567382812 -3.564453125 169.301757812 58.4560546875 c 0,21,22
 111.053710938 117.4375 111.053710938 117.4375 111.053710938 186.752929688 c 128,-1,23
 111.053710938 255.975585938 111.053710938 255.975585938 168.064453125 318.752929688 c 0,24,25
 172.474609375 322.645507812 172.474609375 322.645507812 203.15625 345.43359375 c 2,26,-1
 215.038085938 354.258789062 l 1,27,-1
 215.615234375 354.6875 l 1,28,-1
 215.012695312 355.079101562 l 1,29,-1
 202.608398438 363.155273438 l 2,30,31
 111.053710938 422.76171875 111.053710938 422.76171875 111.053710938 518.698242188 c 0,0,1
429.985351562 518.693359375 m 0,32,33
 430.010742188 567.622070312 430.010742188 567.622070312 388.337890625 606.391601562 c 0,34,35
 349.69140625 644.842773438 349.69140625 644.842773438 300 644.842773438 c 128,-1,36
 250.296875 644.842773438 250.296875 644.842773438 211.671875 606.40234375 c 0,37,38
 170.014648438 567.662109375 170.014648438 567.662109375 170.014648438 518.698242188 c 0,39,40
 170.014648438 468.946289062 170.014648438 468.946289062 211.48046875 427.668945312 c 0,41,42
 250.244140625 386.41796875 250.244140625 386.41796875 300 386.41796875 c 0,43,44
 349.08984375 386.41796875 349.08984375 386.41796875 388.10546875 427.838867188 c 0,45,46
 429.947265625 469.276367188 429.947265625 469.276367188 429.985351562 518.693359375 c 0,32,33
429.985351562 186.752929688 m 0,47,48
 429.985351562 233.807617188 429.985351562 233.807617188 388.612304688 279.15625 c 0,49,50
 347.612304688 327.446289062 347.612304688 327.446289062 300 327.446289062 c 0,51,52
 252.880859375 327.446289062 252.880859375 327.446289062 211.716796875 279.08984375 c 0,53,54
 170.014648438 233.564453125 170.014648438 233.564453125 170.014648438 186.752929688 c 0,55,56
 170.014648438 141.622070312 170.014648438 141.622070312 211.286132812 99.8583984375 c 0,57,58
 252.174804688 55.4091796875 252.174804688 55.4091796875 300 55.4091796875 c 128,-1,59
 347.884765625 55.4091796875 347.884765625 55.4091796875 388.783203125 99.8564453125 c 0,60,61
 429.985351562 141.551757812 429.985351562 141.551757812 429.985351562 186.752929688 c 0,47,48
EndSplineSet
EndChar

StartChar: nine
Encoding: 57 57 40
Width: 600
VWidth: 0
Flags: W
LayerCount: 2
Fore
SplineSet
108.140625 512.293945312 m 0,0,1
 108.140625 601.991210938 108.140625 601.991210938 159.90234375 652.279296875 c 0,2,3
 212.671875 703.55859375 212.671875 703.55859375 299.81640625 703.774414062 c 0,4,5
 390.391601562 707.643554688 390.391601562 707.643554688 443.485351562 653.053710938 c 0,6,7
 492.234375 602.919921875 492.234375 602.919921875 492.426757812 512.72265625 c 2,8,-1
 492.426757812 188.297851562 l 2,9,10
 492.426757812 118.369140625 492.426757812 118.369140625 432.354492188 58.5654296875 c 0,11,12
 372.509765625 -0.98828125 372.509765625 -0.98828125 312.516601562 -0.98828125 c 2,13,-1
 138.235351562 -0.98828125 l 2,14,15
 121.342773438 -0.9931640625 121.342773438 -0.9931640625 114.458007812 5.853515625 c 128,-1,16
 107.573242188 12.6982421875 107.573242188 12.6982421875 107.573242188 29.109375 c 128,-1,17
 107.573242188 45.677734375 107.573242188 45.677734375 114.384765625 52.44140625 c 128,-1,18
 121.1953125 59.2080078125 121.1953125 59.2080078125 137.666992188 59.2080078125 c 2,19,-1
 312.516601562 59.1943359375 l 2,20,21
 350.778320312 59.1943359375 350.778320312 59.1943359375 389.844726562 101.25 c 0,22,23
 432.233398438 143.43359375 432.233398438 143.43359375 432.233398438 188.297851562 c 2,24,-1
 432.233398438 301.072265625 l 1,25,-1
 432.233398438 311.434570312 l 1,26,-1
 432.233398438 311.9375 l 1,27,-1
 431.73046875 311.934570312 l 1,28,-1
 421.368164062 311.873046875 l 1,29,-1
 300.395507812 311.078125 l 2,30,31
 191.043945312 311.19140625 191.043945312 311.19140625 141.134765625 383.408203125 c 0,32,33
 108.676757812 430.377929688 108.676757812 430.377929688 108.140625 512.293945312 c 0,0,1
432.233398438 512.524414062 m 2,34,35
 432.068359375 578.479492188 432.068359375 578.479492188 400.340820312 611.083984375 c 0,36,37
 366.125 646.828125 366.125 646.828125 301.497070312 643.74609375 c 0,38,39
 236.3671875 643.655273438 236.3671875 643.655273438 201.793945312 609.139648438 c 0,40,41
 168.38671875 576.678710938 168.38671875 576.678710938 168.336914062 512.576171875 c 0,42,43
 168.7734375 449.205078125 168.7734375 449.205078125 190.616210938 417.626953125 c 0,44,45
 222.5703125 371.361328125 222.5703125 371.361328125 300.303710938 371.260742188 c 2,46,-1
 421.504882812 372.138671875 l 1,47,-1
 431.736328125 372.20703125 l 1,48,-1
 432.233398438 372.209960938 l 1,49,-1
 432.233398438 372.70703125 l 1,50,-1
 432.233398438 382.938476562 l 1,51,-1
 432.233398438 512.524414062 l 2,34,35
EndSplineSet
EndChar

StartChar: colon
Encoding: 58 58 41
Width: 364
VWidth: 77
Flags: W
LayerCount: 2
Fore
SplineSet
181.981445312 537.401367188 m 128,-1,1
 203.987304688 537.401367188 203.987304688 537.401367188 211.837890625 529.555664062 c 128,-1,2
 219.685546875 521.711914062 219.685546875 521.711914062 219.685546875 499.75 c 128,-1,3
 219.672851562 477.748046875 219.672851562 477.748046875 211.821289062 469.896484375 c 128,-1,4
 203.97265625 462.048828125 203.97265625 462.048828125 182 462.048828125 c 128,-1,5
 160.00390625 462.048828125 160.00390625 462.048828125 152.158203125 469.892578125 c 128,-1,6
 144.314453125 477.734375 144.314453125 477.734375 144.314453125 499.715820312 c 128,-1,7
 144.314453125 521.711914062 144.314453125 521.711914062 152.158203125 529.557617188 c 128,-1,0
 160 537.401367188 160 537.401367188 181.981445312 537.401367188 c 128,-1,1
181.981445312 221.037109375 m 128,-1,9
 203.965820312 221.037109375 203.965820312 221.037109375 211.819335938 213.188476562 c 128,-1,10
 219.672851562 205.33984375 219.672851562 205.33984375 219.685546875 183.38671875 c 128,-1,11
 219.672851562 161.395507812 219.672851562 161.395507812 211.823242188 153.549804688 c 128,-1,12
 203.975585938 145.704101562 203.975585938 145.704101562 182 145.704101562 c 128,-1,13
 160.00390625 145.704101562 160.00390625 145.704101562 152.158203125 153.547851562 c 128,-1,14
 144.314453125 161.389648438 144.314453125 161.389648438 144.314453125 183.37109375 c 128,-1,15
 144.314453125 205.35546875 144.314453125 205.35546875 152.15625 213.196289062 c 128,-1,8
 159.997070312 221.037109375 159.997070312 221.037109375 181.981445312 221.037109375 c 128,-1,9
EndSplineSet
EndChar

StartChar: equal
Encoding: 61 61 42
Width: 640
VWidth: 0
Flags: W
LayerCount: 2
Fore
SplineSet
148.600473789 523.45703125 m 2,0,-1
 514.827372756 523.457031819 l 2,1,2
 532.652043868 523.46194022 532.652043868 523.46194022 539.288912559 516.916875498 c 128,-1,3
 545.92578125 510.371810775 545.92578125 510.371810775 545.92578125 493 c 128,-1,4
 545.92578125 475.564971203 545.92578125 475.564971203 539.414549072 469.053969973 c 128,-1,5
 532.903316894 462.542968742 532.903316894 462.542968742 515.469229833 462.542968742 c 2,6,-1
 148.598408494 462.555663493 l 6,7,8
 130.772378916 462.550754718 130.772378916 462.550754718 124.136189458 469.093339871 c 128,-1,9
 117.5 475.635925023 117.5 475.635925023 117.5 493 c 128,-1,10
 117.5 510.370868692 117.5 510.370868692 124.137078988 516.913949971 c 128,-1,11
 130.774157977 523.45703125 130.774157977 523.45703125 148.600473789 523.45703125 c 2,0,-1
148.602539062 293.244140625 m 2,12,-1
 514.823242188 293.244140625 l 2,13,14
 532.650067344 293.244140625 532.650067344 293.244140625 539.287924297 286.698084502 c 128,-1,15
 545.92578125 280.152028379 545.92578125 280.152028379 545.92578125 262.787109375 c 128,-1,16
 545.92578125 245.351977444 545.92578125 245.351977444 539.414586253 238.841027785 c 128,-1,17
 532.903391257 232.330078125 532.903391257 232.330078125 515.46875 232.330078125 c 2,18,-1
 148.602539062 232.330078125 l 2,19,20
 130.775713906 232.330078125 130.775713906 232.330078125 124.137856953 238.876134248 c 128,-1,21
 117.5 245.422190371 117.5 245.422190371 117.5 262.787109375 c 128,-1,22
 117.5 280.152572253 117.5 280.152572253 124.138075853 286.698356439 c 128,-1,23
 130.776151707 293.244140625 130.776151707 293.244140625 148.602539062 293.244140625 c 2,12,-1
EndSplineSet
EndChar

StartChar: percent
Encoding: 37 37 43
Width: 620
VWidth: 0
Flags: W
LayerCount: 2
Fore
SplineSet
104.231445312 719.452148438 m 128,-1,1
 133.182617188 748.421875 133.182617188 748.421875 195.471075638 748.421875 c 0,2,3
 251.140091827 748.421875 251.140091827 748.421875 277.004944857 719.450195312 c 128,-1,4
 302.868926165 690.478515625 302.868926165 690.478515625 302.868926165 628.122070312 c 128,-1,5
 302.868926165 565.810546875 302.868926165 565.810546875 277.005816579 536.858398438 c 128,-1,6
 251.143578714 507.90625 251.143578714 507.90625 195.471075638 507.90625 c 0,7,8
 133.1796875 507.90625 133.1796875 507.90625 104.229492188 536.856445312 c 128,-1,9
 75.279296875 565.807617188 75.279296875 565.807617188 75.279296875 628.122070312 c 128,-1,0
 75.279296875 690.482421875 75.279296875 690.482421875 104.231445312 719.452148438 c 128,-1,1
252.602840753 692.11328125 m 128,-1,11
 232.247268541 714.9140625 232.247268541 714.9140625 195.471075638 714.9140625 c 0,12,13
 154.303710938 714.9140625 154.303710938 714.9140625 131.502929688 692.114257812 c 128,-1,14
 108.702148438 669.315429688 108.702148438 669.315429688 108.702148438 628.122070312 c 128,-1,15
 108.702148438 586.96875 108.702148438 586.96875 131.504882812 564.192382812 c 128,-1,16
 154.30859375 541.415039062 154.30859375 541.415039062 195.471075638 541.415039062 c 0,17,18
 232.239423046 541.415039062 232.239423046 541.415039062 252.598482145 564.190429688 c 128,-1,19
 272.958412965 586.965820312 272.958412965 586.965820312 272.958412965 628.122070312 c 128,-1,10
 272.958412965 669.313476562 272.958412965 669.313476562 252.602840753 692.11328125 c 128,-1,11
362.9933117 168.416015625 m 128,-1,21
 388.856421286 197.365234375 388.856421286 197.365234375 444.528924362 197.365234375 c 0,22,23
 506.8203125 197.365234375 506.8203125 197.365234375 535.770507812 168.41796875 c 128,-1,24
 564.720703125 139.470703125 564.720703125 139.470703125 564.720703125 77.1640625 c 128,-1,25
 564.720703125 14.849609375 564.720703125 14.849609375 535.770507812 -14.1005859375 c 128,-1,26
 506.8203125 -43.05078125 506.8203125 -43.05078125 444.528924362 -43.05078125 c 0,27,28
 388.856421286 -43.05078125 388.856421286 -43.05078125 362.994183421 -14.0986328125 c 128,-1,29
 337.131073835 14.853515625 337.131073835 14.853515625 337.131073835 77.1640625 c 128,-1,20
 337.131073835 139.467773438 337.131073835 139.467773438 362.9933117 168.416015625 c 128,-1,21
508.436523438 141.15234375 m 128,-1,31
 485.661132812 163.95703125 485.661132812 163.95703125 444.528924362 163.95703125 c 0,32,33
 407.755346624 163.95703125 407.755346624 163.95703125 387.398030969 141.157226562 c 128,-1,34
 367.041587035 118.358398438 367.041587035 118.358398438 367.041587035 77.1640625 c 128,-1,35
 367.041587035 35.966796875 367.041587035 35.966796875 387.397159247 13.1630859375 c 128,-1,36
 407.751859737 -9.6416015625 407.751859737 -9.6416015625 444.528924362 -9.6416015625 c 0,37,38
 485.66015625 -9.6416015625 485.66015625 -9.6416015625 508.436523438 13.1650390625 c 128,-1,39
 531.212890625 35.97265625 531.212890625 35.97265625 531.212890625 77.1640625 c 128,-1,30
 531.212890625 118.348632812 531.212890625 118.348632812 508.436523438 141.15234375 c 128,-1,31
477.803710938 769.510742188 m 2,40,41
 485.592773438 787.421875 485.592773438 787.421875 502.358398438 788 c 0,42,43
 519.950195312 788 519.950195312 788 526.140625 780.560546875 c 0,44,45
 532.274414062 773.654296875 532.274414062 773.654296875 532.274414062 754.189453125 c 0,46,47
 532.274414062 748.106445312 532.274414062 748.106445312 528.654296875 742.595703125 c 2,48,-1
 144.28125 -64.7333984375 l 2,49,50
 136.172851562 -82.69921875 136.172851562 -82.69921875 118.80078125 -82.69921875 c 0,51,52
 101.729492188 -82.69921875 101.729492188 -82.69921875 95.83203125 -75.3388671875 c 0,53,54
 89.9345703125 -68.53515625 89.9345703125 -68.53515625 89.9345703125 -48.8466796875 c 0,55,56
 89.9345703125 -42.9208984375 89.9345703125 -42.9208984375 93.3125 -37.6494140625 c 2,57,-1
 477.803710938 769.510742188 l 2,40,41
EndSplineSet
EndChar

StartChar: question
Encoding: 63 63 44
Width: 465
VWidth: 0
Flags: W
LayerCount: 2
Fore
SplineSet
52.66015625 700.421875 m 1,0,-1
 272.1796875 700.421875 l 2,1,2
 339.280273438 700.421875 339.280273438 700.421875 379.571289062 652.88671875 c 0,3,4
 414.944335938 611.155273438 414.944335938 611.155273438 415.046875 551.909179688 c 128,-1,5
 415.149414062 492.603515625 415.149414062 492.603515625 379.84765625 450.860351562 c 0,6,7
 339.625976562 403.297851562 339.625976562 403.297851562 272.327148438 403.297851562 c 0,8,9
 224.064453125 403.297851562 224.064453125 403.297851562 198.34375 390.364257812 c 0,10,11
 179.748046875 381.012695312 179.748046875 381.012695312 171.986328125 363.08203125 c 0,12,13
 169.08984375 356.390625 169.08984375 356.390625 167.364257812 347.870117188 c 128,-1,14
 165.638671875 339.350585938 165.638671875 339.350585938 165.063476562 327.33984375 c 128,-1,15
 164.48828125 315.328125 164.48828125 315.328125 164.38671875 306.908203125 c 128,-1,16
 164.28515625 298.48828125 164.28515625 298.48828125 164.5078125 281.91796875 c 128,-1,17
 164.731445312 265.348632812 164.731445312 265.348632812 164.731445312 257.788085938 c 2,18,-1
 164.731445312 195.512695312 l 1,19,-1
 164.733398438 195.177734375 l 2,20,21
 164.733398438 183.91796875 164.733398438 183.91796875 156.764648438 175.950195312 c 128,-1,22
 148.796875 167.981445312 148.796875 167.981445312 137.537109375 167.981445312 c 128,-1,23
 126.27734375 167.981445312 126.27734375 167.981445312 118.309570312 175.950195312 c 128,-1,24
 110.340820312 183.91796875 110.340820312 183.91796875 110.340820312 195.177734375 c 2,25,-1
 110.342773438 195.512695312 l 1,26,-1
 110.342773438 257.788085938 l 2,27,28
 110.342773438 264.658203125 110.342773438 264.658203125 109.623046875 286.311523438 c 128,-1,29
 108.904296875 307.963867188 108.904296875 307.963867188 109.118164062 320.08203125 c 128,-1,30
 109.33203125 332.19921875 109.33203125 332.19921875 112.428710938 350.877929688 c 128,-1,31
 115.525390625 369.556640625 115.525390625 369.556640625 122.073242188 384.68359375 c 0,32,33
 137.677734375 420.735351562 137.677734375 420.735351562 173.91015625 438.955078125 c 0,34,35
 211.153320312 457.68359375 211.153320312 457.68359375 272.327148438 457.68359375 c 0,36,37
 314.389648438 457.68359375 314.389648438 457.68359375 338.318359375 485.979492188 c 0,38,39
 360.73046875 512.483398438 360.73046875 512.483398438 360.662109375 551.814453125 c 128,-1,40
 360.59375 591.161132812 360.59375 591.161132812 338.083007812 617.717773438 c 0,41,42
 314.079101562 646.037109375 314.079101562 646.037109375 272.1796875 646.037109375 c 2,43,-1
 52.66015625 646.037109375 l 1,44,-1
 52.1962890625 646.033203125 l 2,45,46
 40.9365234375 646.033203125 40.9365234375 646.033203125 32.96875 654.001953125 c 128,-1,47
 25 661.969726562 25 661.969726562 25 673.229492188 c 128,-1,48
 25 684.489257812 25 684.489257812 32.96875 692.45703125 c 128,-1,49
 40.9365234375 700.42578125 40.9365234375 700.42578125 52.1962890625 700.42578125 c 2,50,-1
 52.66015625 700.421875 l 1,0,-1
137.430664062 53.470703125 m 128,-1,52
 148.765625 53.470703125 148.765625 53.470703125 156.788085938 45.4482421875 c 128,-1,53
 164.810546875 37.42578125 164.810546875 37.42578125 164.810546875 26.0908203125 c 128,-1,54
 164.810546875 14.7529296875 164.810546875 14.7529296875 156.788085938 6.73046875 c 128,-1,55
 148.766601562 -1.2919921875 148.766601562 -1.2919921875 137.430664062 -1.29296875 c 128,-1,56
 126.092773438 -1.29296875 126.092773438 -1.29296875 118.0703125 6.7294921875 c 128,-1,57
 110.047851562 14.751953125 110.047851562 14.751953125 110.047851562 26.087890625 c 128,-1,58
 110.047851562 37.4267578125 110.047851562 37.4267578125 118.0703125 45.4482421875 c 128,-1,51
 126.092773438 53.470703125 126.092773438 53.470703125 137.430664062 53.470703125 c 128,-1,52
EndSplineSet
EndChar

StartChar: a
Encoding: 97 97 45
Width: 394
VWidth: 0
Flags: W
LayerCount: 2
Fore
SplineSet
146.288085938 499.555664062 m 0,0,1
 212.4375 499.443359375 212.4375 499.443359375 244.883789062 492.015625 c 0,2,3
 276.266601562 484.83203125 276.266601562 484.83203125 307.302734375 456.801757812 c 0,4,-1
 307.310546875 456.793945312 l 2,5,6
 344.62890625 423.069335938 344.62890625 423.069335938 344.590820312 350.701171875 c 2,7,-1
 344.421875 29.6904296875 l 1,8,-1
 344.423828125 29.2978515625 l 2,9,10
 344.423828125 22.1162109375 344.423828125 22.1162109375 340.904296875 15.6298828125 c 128,-1,11
 337.385742188 9.1435546875 337.385742188 9.1435546875 331.330078125 4.9267578125 c 128,-1,12
 325.2734375 0.708984375 325.2734375 0.708984375 318.13671875 -0.0869140625 c 0,13,14
 314.403320312 -1.08203125 314.403320312 -1.08203125 310.533203125 -1.08203125 c 0,15,16
 287.904296875 -1.080078125 287.904296875 -1.080078125 245.524414062 -1.8740234375 c 128,-1,17
 203.145507812 -2.66796875 203.145507812 -2.66796875 184.88671875 -2.4296875 c 128,-1,18
 166.626953125 -2.1923828125 166.626953125 -2.1923828125 141.573242188 0.921875 c 128,-1,19
 116.51953125 4.037109375 116.51953125 4.037109375 98.3046875 10.953125 c 0,20,21
 56.888671875 26.677734375 56.888671875 26.677734375 39.67578125 67.4521484375 c 0,22,23
 25 102.219726562 25 102.219726562 25 167.486328125 c 0,24,25
 25 227.40625 25 227.40625 68.001953125 260.305664062 c 0,26,27
 103.373046875 287.368164062 103.373046875 287.368164062 156.840820312 287.436523438 c 0,28,-1
 285.432617188 287.57421875 l 1,29,-1
 285.466796875 350.73046875 l 2,30,31
 285.4765625 368.551757812 285.4765625 368.551757812 280.997070312 384.055664062 c 128,-1,32
 276.518554688 399.559570312 276.518554688 399.559570312 272.979492188 405.440429688 c 128,-1,33
 269.440429688 411.322265625 269.440429688 411.322265625 267.668945312 412.921875 c 0,34,35
 265.614257812 414.778320312 265.614257812 414.778320312 261.353515625 418.744140625 c 128,-1,36
 257.092773438 422.7109375 257.092773438 422.7109375 255.931640625 423.645507812 c 128,-1,37
 254.770507812 424.579101562 254.770507812 424.579101562 251.705078125 426.86328125 c 128,-1,38
 248.639648438 429.147460938 248.639648438 429.147460938 246.374023438 429.94921875 c 128,-1,39
 244.108398438 430.75 244.108398438 430.75 240.412109375 431.987304688 c 128,-1,40
 236.716796875 433.224609375 236.716796875 433.224609375 231.694335938 434.374023438 c 0,41,42
 198.213867188 442.036132812 198.213867188 442.036132812 95.2607421875 439.834960938 c 0,43,44
 94.720703125 439.81640625 94.720703125 439.81640625 94.23046875 439.81640625 c 0,45,46
 81.9892578125 439.81640625 81.9892578125 439.81640625 73.326171875 448.48046875 c 128,-1,47
 64.6630859375 457.143554688 64.6630859375 457.143554688 64.6630859375 469.384765625 c 128,-1,48
 64.6630859375 481.529296875 64.6630859375 481.529296875 73.2578125 490.192382812 c 128,-1,49
 81.8525390625 498.85546875 81.8525390625 498.85546875 93.9970703125 498.951171875 c 0,50,51
 123.995117188 499.59375 123.995117188 499.59375 146.288085938 499.555664062 c 0,0,1
285.399414062 228.444335938 m 1,52,-1
 156.916015625 228.30859375 l 2,53,54
 123.434570312 228.265625 123.434570312 228.265625 103.935546875 213.346679688 c 0,55,56
 84.1357421875 198.198242188 84.1357421875 198.198242188 84.1357421875 167.490234375 c 0,57,58
 84.1357421875 114.1875 84.1357421875 114.1875 94.1552734375 90.4521484375 c 0,59,60
 98.58984375 79.947265625 98.58984375 79.947265625 103.71875 75.076171875 c 128,-1,61
 108.84765625 70.2041015625 108.84765625 70.2041015625 119.298828125 66.236328125 c 0,62,63
 142.390625 57.46875 142.390625 57.46875 265.56640625 57.9404296875 c 0,64,65
 278.543945312 57.990234375 278.543945312 57.990234375 285.309570312 58.0107421875 c 1,66,-1
 285.399414062 228.444335938 l 1,52,-1
EndSplineSet
EndChar

StartChar: backslash
Encoding: 92 92 46
Width: 640
VWidth: 79
Flags: W
LayerCount: 2
Fore
SplineSet
168.668455645 773.988064809 m 2,0,1
 186.487052707 773.496898472 186.487052707 773.496898472 194.694655173 757.472631971 c 2,2,-1
 528.533814951 71.553257625 l 1,3,-1
 528.666958266 71.2796960103 l 2,4,5
 532.700195312 64.0396275826 532.700195312 64.0396275826 532.700195312 56.1884765625 c 0,6,7
 532.700195312 37.8641503861 532.700195312 37.8641503861 526.67438176 31.8438138543 c 128,-1,8
 520.644423054 25.8193359375 520.644423054 25.8193359375 502.318359375 25.8193359375 c 0,9,10
 483.672540818 25.8193359375 483.672540818 25.8193359375 475.206658305 42.5031131317 c 2,11,-1
 141.363635736 728.432288565 l 1,12,-1
 141.243193385 728.679754939 l 2,13,14
 137.299804688 735.847193754 137.299804688 735.847193754 137.299804688 743.637695312 c 0,15,16
 137.299804688 761.940231555 137.299804688 761.940231555 143.334379925 767.972761672 c 128,-1,17
 149.370499834 774.006835938 149.370499834 774.006835938 167.476864414 774.006835938 c 2,18,-1
 168.668455645 773.988064809 l 2,0,1
EndSplineSet
EndChar

StartChar: Utilde
Encoding: 360 360 47
Width: 520
VWidth: 0
Flags: W
LayerCount: 2
Fore
SplineSet
54.07421875 701.104492188 m 4,0,-1
 54.0849609375 701.114257812 l 5,1,-1
 54.5234375 701.1171875 l 6,2,3
 66.748046875 701.1171875 66.748046875 701.1171875 75.3994140625 692.465820312 c 132,-1,4
 84.05078125 683.814453125 84.05078125 683.814453125 84.05078125 671.58984375 c 6,5,-1
 84.0478515625 671.170898438 l 5,6,-1
 84.0478515625 208.848632812 l 6,7,8
 84.453125 137.274414062 84.453125 137.274414062 118.926757812 100.684570312 c 4,9,10
 158.6953125 58.4794921875 158.6953125 58.4794921875 247.959960938 58.4794921875 c 4,11,12
 337.46875 58.4794921875 337.46875 58.4794921875 377.827148438 101.112304688 c 4,13,14
 412.926757812 138.189453125 412.926757812 138.189453125 411.872070312 208.236328125 c 4,15,-1
 411.872070312 671.170898438 l 5,16,-1
 411.870117188 671.533203125 l 6,17,18
 411.870117188 683.7578125 411.870117188 683.7578125 420.521484375 692.41015625 c 132,-1,19
 429.172851562 701.061523438 429.172851562 701.061523438 441.397460938 701.061523438 c 132,-1,20
 453.622070312 701.061523438 453.622070312 701.061523438 462.274414062 692.41015625 c 132,-1,21
 470.92578125 683.7578125 470.92578125 683.7578125 470.92578125 671.533203125 c 6,22,-1
 470.923828125 671.170898438 l 5,23,-1
 470.923828125 209.126953125 l 6,24,25
 472.337890625 115.04296875 472.337890625 115.04296875 420.71875 60.515625 c 4,26,27
 362.888671875 -0.572265625 362.888671875 -0.572265625 247.963867188 -0.572265625 c 132,-1,28
 133.202148438 -0.572265625 133.202148438 -0.572265625 75.9521484375 60.1875 c 4,29,30
 25.5380859375 113.692382812 25.5380859375 113.692382812 25.00390625 208.509765625 c 4,31,-1
 25.00390625 671.161132812 l 5,32,-1
 25 671.580078125 l 6,33,34
 25 683.618164062 25 683.618164062 33.5185546875 692.26953125 c 132,-1,35
 42.0380859375 700.919921875 42.0380859375 700.919921875 54.07421875 701.104492188 c 4,0,-1
EndSplineSet
EndChar

StartChar: b
Encoding: 98 98 48
Width: 394
VWidth: 0
Flags: W
LayerCount: 2
Fore
SplineSet
55.029296875 701.877929688 m 1,0,1
 67.091796875 701.697265625 67.091796875 701.697265625 75.62890625 693.032226562 c 128,-1,2
 84.1650390625 684.366210938 84.1650390625 684.366210938 84.162109375 671.87890625 c 2,3,-1
 84.162109375 499.779296875 l 1,4,5
 170.165039062 500.369140625 170.165039062 500.369140625 189.55859375 498.848632812 c 0,6,7
 243.728515625 494.599609375 243.728515625 494.599609375 282.025390625 468.079101562 c 0,8,9
 325.94140625 437.66796875 325.94140625 437.66796875 338.78125 352.834960938 c 0,10,11
 344.833984375 312.849609375 344.833984375 312.849609375 344.94140625 234.6015625 c 0,12,13
 345.034179688 174.779296875 345.034179688 174.779296875 332.782226562 120.545898438 c 0,14,15
 324.36328125 83.2783203125 324.36328125 83.2783203125 312.973632812 59.6376953125 c 128,-1,16
 301.583984375 35.998046875 301.583984375 35.998046875 277.565429688 22.4970703125 c 0,17,18
 267.001953125 16.55859375 267.001953125 16.55859375 256.361328125 12.349609375 c 128,-1,19
 245.720703125 8.140625 245.720703125 8.140625 230.805664062 5.541015625 c 128,-1,20
 215.891601562 2.94140625 215.891601562 2.94140625 205.955078125 1.4365234375 c 128,-1,21
 196.018554688 -0.068359375 196.018554688 -0.068359375 174.220703125 -0.6318359375 c 128,-1,22
 152.422851562 -1.1943359375 152.422851562 -1.1943359375 141.5 -1.2958984375 c 128,-1,23
 130.576171875 -1.396484375 130.576171875 -1.396484375 100.204101562 -1.224609375 c 128,-1,24
 69.83203125 -1.052734375 69.83203125 -1.052734375 55.3876953125 -1.052734375 c 0,25,26
 52.6728515625 -1.0478515625 52.6728515625 -1.0478515625 49.3076171875 -0.23046875 c 128,-1,27
 45.94140625 0.587890625 45.94140625 0.587890625 42.7744140625 1.990234375 c 128,-1,28
 39.607421875 3.3935546875 39.607421875 3.3935546875 37.4521484375 5.0439453125 c 0,29,30
 36.875 5.466796875 36.875 5.466796875 36.3291015625 5.91015625 c 0,31,32
 25.0263671875 14.7734375 25.0263671875 14.7734375 25.0029296875 29.138671875 c 2,33,-1
 25 672.297851562 l 0,34,35
 25 684.54296875 25 684.54296875 33.6669921875 693.208984375 c 128,-1,36
 42.3330078125 701.875 42.3330078125 701.875 54.578125 701.875 c 2,37,-1
 55.029296875 701.877929688 l 1,0,1
135.529296875 440.93359375 m 0,38,39
 133.0703125 440.918945312 133.0703125 440.918945312 114.057617188 440.793945312 c 128,-1,40
 95.0458984375 440.668945312 95.0458984375 440.668945312 84.1630859375 440.612304688 c 1,41,-1
 84.1630859375 58.201171875 l 1,42,43
 161.388671875 58.3203125 161.388671875 58.3203125 196.045898438 61.1552734375 c 128,-1,44
 230.704101562 63.990234375 230.704101562 63.990234375 248.595703125 74.0517578125 c 0,45,46
 250.650390625 75.20703125 250.650390625 75.20703125 255.225585938 82.5712890625 c 128,-1,47
 259.80078125 89.9345703125 259.80078125 89.9345703125 265.71875 104.161132812 c 128,-1,48
 271.63671875 118.388671875 271.63671875 118.388671875 275.065429688 133.567382812 c 0,49,50
 285.869140625 181.3984375 285.869140625 181.3984375 285.78125 234.50390625 c 0,51,52
 285.66015625 308.483398438 285.66015625 308.483398438 280.294921875 343.974609375 c 0,53,54
 271.276367188 403.551757812 271.276367188 403.551757812 248.338867188 419.436523438 c 0,55,56
 223.208007812 436.840820312 223.208007812 436.840820312 184.94140625 439.842773438 c 0,57,58
 168.475585938 441.133789062 168.475585938 441.133789062 135.529296875 440.93359375 c 0,38,39
EndSplineSet
EndChar

StartChar: c
Encoding: 99 99 49
Width: 391
VWidth: 0
Flags: W
LayerCount: 2
Fore
SplineSet
211.478515625 500.77734375 m 0,0,1
 225.389648438 500.924804688 225.389648438 500.924804688 257.926757812 500.352539062 c 128,-1,2
 290.46484375 499.780273438 290.46484375 499.780273438 310.1640625 499.80859375 c 0,3,4
 323.219726562 499.8125 323.219726562 499.8125 332.112304688 490.919921875 c 128,-1,5
 341.004882812 482.02734375 341.004882812 482.02734375 341.004882812 469.461914062 c 128,-1,6
 341.004882812 456.897460938 341.004882812 456.897460938 332.112304688 448.004882812 c 128,-1,7
 323.219726562 439.112304688 323.219726562 439.112304688 310.654296875 439.112304688 c 0,8,9
 289.756835938 439.0859375 289.756835938 439.0859375 260.813476562 439.53515625 c 128,-1,10
 231.87109375 439.984375 231.87109375 439.984375 220.7109375 440.047851562 c 128,-1,11
 209.549804688 440.110351562 209.549804688 440.110351562 188.784179688 439.297851562 c 0,12,13
 149.419921875 436.7421875 149.419921875 436.7421875 124.123046875 419.224609375 c 0,14,15
 100.43359375 402.817382812 100.43359375 402.817382812 91.3046875 344.96875 c 0,16,17
 85.8056640625 310.116210938 85.8056640625 310.116210938 85.701171875 236.190429688 c 0,18,-1
 85.701171875 236.184570312 l 2,19,20
 85.599609375 174.783203125 85.599609375 174.783203125 93.5498046875 134.83984375 c 0,21,22
 98.1044921875 111.961914062 98.1044921875 111.961914062 106.250976562 95.7490234375 c 128,-1,23
 114.3984375 79.537109375 114.3984375 79.537109375 121.6796875 75.54296875 c 0,24,25
 146.350585938 62.01171875 146.350585938 62.01171875 187.567382812 59.693359375 c 0,26,27
 198.350585938 59.0869140625 198.350585938 59.0869140625 310.022460938 59.7890625 c 0,28,29
 310.313476562 59.7958984375 310.313476562 59.7958984375 310.62109375 59.7958984375 c 0,30,31
 323.186523438 59.7958984375 323.186523438 59.7958984375 332.079101562 50.9033203125 c 128,-1,32
 340.971679688 42.009765625 340.971679688 42.009765625 340.971679688 29.4453125 c 128,-1,33
 340.971679688 16.880859375 340.971679688 16.880859375 332.079101562 7.98828125 c 128,-1,34
 323.186523438 -0.904296875 323.186523438 -0.904296875 310.62109375 -0.904296875 c 0,35,36
 196.844726562 -1.6181640625 196.844726562 -1.6181640625 184.150390625 -0.904296875 c 0,37,38
 129.20703125 2.1875 129.20703125 2.1875 92.4833984375 22.3291015625 c 0,39,40
 49.34375 45.9921875 49.34375 45.9921875 34.015625 122.993164062 c 0,41,42
 24.8896484375 168.834960938 24.8896484375 168.834960938 25.0009765625 236.270507812 c 0,43,44
 25.111328125 314.913085938 25.111328125 314.913085938 31.345703125 354.42578125 c 0,45,46
 44.5224609375 437.922851562 44.5224609375 437.922851562 89.5625 469.115234375 c 0,47,48
 128.694335938 496.213867188 128.694335938 496.213867188 184.846679688 499.859375 c 0,49,50
 196.703125 500.62890625 196.703125 500.62890625 211.478515625 500.77734375 c 0,0,1
EndSplineSet
EndChar

StartChar: d
Encoding: 100 100 50
Width: 394
VWidth: 0
Flags: W
LayerCount: 2
Fore
SplineSet
314.913085938 701.877929688 m 1,0,-1
 315.364257812 701.875 l 2,1,2
 327.609375 701.875 327.609375 701.875 336.275390625 693.208984375 c 128,-1,3
 344.942382812 684.54296875 344.942382812 684.54296875 344.942382812 672.297851562 c 0,4,-1
 344.939453125 29.138671875 l 2,5,6
 344.916015625 14.7734375 344.916015625 14.7734375 333.61328125 5.91015625 c 0,7,8
 333.067382812 5.466796875 333.067382812 5.466796875 332.490234375 5.0439453125 c 0,9,10
 330.334960938 3.3935546875 330.334960938 3.3935546875 327.16796875 1.990234375 c 128,-1,11
 324.000976562 0.587890625 324.000976562 0.587890625 320.634765625 -0.23046875 c 128,-1,12
 317.26953125 -1.0478515625 317.26953125 -1.0478515625 314.5546875 -1.052734375 c 0,13,14
 300.110351562 -1.052734375 300.110351562 -1.052734375 269.73828125 -1.224609375 c 128,-1,15
 239.366210938 -1.396484375 239.366210938 -1.396484375 228.442382812 -1.2958984375 c 128,-1,16
 217.51953125 -1.1943359375 217.51953125 -1.1943359375 195.721679688 -0.6318359375 c 128,-1,17
 173.923828125 -0.068359375 173.923828125 -0.068359375 163.987304688 1.4365234375 c 128,-1,18
 154.05078125 2.94140625 154.05078125 2.94140625 139.13671875 5.541015625 c 128,-1,19
 124.221679688 8.140625 124.221679688 8.140625 113.581054688 12.349609375 c 128,-1,20
 102.940429688 16.55859375 102.940429688 16.55859375 92.376953125 22.4970703125 c 0,21,22
 68.3583984375 35.998046875 68.3583984375 35.998046875 56.96875 59.6376953125 c 128,-1,23
 45.5791015625 83.2783203125 45.5791015625 83.2783203125 37.16015625 120.545898438 c 0,24,25
 24.908203125 174.779296875 24.908203125 174.779296875 25.0009765625 234.6015625 c 0,26,27
 25.1083984375 312.849609375 25.1083984375 312.849609375 31.1611328125 352.834960938 c 0,28,29
 44.0009765625 437.66796875 44.0009765625 437.66796875 87.9169921875 468.079101562 c 0,30,31
 126.213867188 494.599609375 126.213867188 494.599609375 180.383789062 498.848632812 c 0,32,33
 199.77734375 500.369140625 199.77734375 500.369140625 285.780273438 499.779296875 c 1,34,-1
 285.780273438 671.87890625 l 2,35,36
 285.77734375 684.366210938 285.77734375 684.366210938 294.313476562 693.032226562 c 128,-1,37
 302.850585938 701.697265625 302.850585938 701.697265625 314.913085938 701.877929688 c 1,0,-1
234.413085938 440.93359375 m 0,38,39
 201.466796875 441.133789062 201.466796875 441.133789062 185.000976562 439.842773438 c 0,40,41
 146.734375 436.840820312 146.734375 436.840820312 121.603515625 419.436523438 c 0,42,43
 98.666015625 403.551757812 98.666015625 403.551757812 89.6474609375 343.974609375 c 0,44,45
 84.2822265625 308.483398438 84.2822265625 308.483398438 84.1611328125 234.50390625 c 0,46,47
 84.0732421875 181.3984375 84.0732421875 181.3984375 94.876953125 133.567382812 c 0,48,49
 98.3056640625 118.388671875 98.3056640625 118.388671875 104.223632812 104.161132812 c 128,-1,50
 110.141601562 89.9345703125 110.141601562 89.9345703125 114.716796875 82.5712890625 c 128,-1,51
 119.291992188 75.20703125 119.291992188 75.20703125 121.346679688 74.0517578125 c 0,52,53
 139.23828125 63.990234375 139.23828125 63.990234375 173.896484375 61.1552734375 c 128,-1,54
 208.553710938 58.3203125 208.553710938 58.3203125 285.779296875 58.201171875 c 1,55,-1
 285.779296875 440.612304688 l 1,56,57
 274.896484375 440.668945312 274.896484375 440.668945312 255.884765625 440.793945312 c 128,-1,58
 236.872070312 440.918945312 236.872070312 440.918945312 234.413085938 440.93359375 c 0,38,39
EndSplineSet
EndChar

StartChar: e
Encoding: 101 101 51
Width: 392
VWidth: 0
Flags: W
LayerCount: 2
Fore
SplineSet
188.017578125 499.588867188 m 4,0,1
 271.530273438 499.604492188 271.530273438 499.604492188 309.811523438 456.448242188 c 4,2,3
 342.686523438 419.392578125 342.686523438 419.392578125 342.686523438 347.10546875 c 4,4,5
 342.686523438 310.840820312 342.686523438 310.840820312 328.43359375 283.380859375 c 132,-1,6
 314.180664062 255.920898438 314.180664062 255.920898438 290.413085938 241.991210938 c 4,7,8
 257.487304688 222.692382812 257.487304688 222.692382812 197.452148438 222.616210938 c 6,9,-1
 87.17578125 222.478515625 l 5,10,11
 87.33984375 107.904296875 87.33984375 107.904296875 107.475585938 79.4228515625 c 4,12,13
 114.233398438 69.8642578125 114.233398438 69.8642578125 118.647460938 67.439453125 c 132,-1,14
 123.060546875 65.0146484375 123.060546875 65.0146484375 140.9375 62.3935546875 c 4,15,16
 172.921875 57.7021484375 172.921875 57.7021484375 291.137695312 60.2314453125 c 4,17,18
 291.653320312 60.2490234375 291.653320312 60.2490234375 292.174804688 60.2490234375 c 4,19,20
 304.685546875 60.2490234375 304.685546875 60.2490234375 313.540039062 51.39453125 c 132,-1,21
 322.393554688 42.541015625 322.393554688 42.541015625 322.393554688 30.0302734375 c 4,22,23
 322.393554688 21.8955078125 322.393554688 21.8955078125 318.3828125 14.9580078125 c 132,-1,24
 314.37109375 8.021484375 314.37109375 8.021484375 307.467773438 3.951171875 c 132,-1,25
 300.565429688 -0.119140625 300.565429688 -0.119140625 292.4296875 -0.1875 c 4,26,27
 169.166015625 -2.82421875 169.166015625 -2.82421875 132.174804688 2.5986328125 c 4,28,29
 82.6484375 9.8623046875 82.6484375 9.8623046875 58.1337890625 44.5380859375 c 4,30,31
 45.62109375 62.2392578125 45.62109375 62.2392578125 38.05078125 83.1142578125 c 132,-1,32
 30.48046875 103.990234375 30.48046875 103.990234375 28.044921875 129.352539062 c 132,-1,33
 25.609375 154.715820312 25.609375 154.715820312 25.1455078125 172.127929688 c 132,-1,34
 24.6806640625 189.5390625 24.6806640625 189.5390625 25.7041015625 219.583007812 c 132,-1,35
 26.7265625 249.626953125 26.7265625 249.626953125 26.748046875 260.59375 c 4,36,37
 26.875 324.6953125 26.875 324.6953125 32.9697265625 365.774414062 c 132,-1,38
 39.0654296875 406.852539062 39.0654296875 406.852539062 56.5400390625 436.848632812 c 4,39,40
 93.0986328125 499.588867188 93.0986328125 499.588867188 188.017578125 499.588867188 c 4,0,1
188.017578125 439.155273438 m 4,41,42
 152.938476562 439.159179688 152.938476562 439.159179688 136.189453125 431.958984375 c 132,-1,43
 119.44140625 424.759765625 119.44140625 424.759765625 108.763671875 406.431640625 c 4,44,45
 89.7763671875 373.833007812 89.7763671875 373.833007812 87.5234375 282.909179688 c 5,46,-1
 197.385742188 283.046875 l 6,47,48
 241.052734375 283.100585938 241.052734375 283.100585938 259.862304688 294.125976562 c 4,49,50
 271.404296875 300.889648438 271.404296875 300.889648438 276.833984375 311.759765625 c 132,-1,51
 282.262695312 322.62890625 282.262695312 322.62890625 282.262695312 347.102539062 c 4,52,53
 282.262695312 396.446289062 282.262695312 396.446289062 264.61328125 416.338867188 c 4,54,55
 244.37109375 439.155273438 244.37109375 439.155273438 188.017578125 439.155273438 c 4,41,42
EndSplineSet
EndChar

StartChar: f
Encoding: 102 102 52
Width: 351
VWidth: 0
Flags: W
HStem: -1.3252 21G<126.375 138.641> 440.336 59.252<33.9528 102.884 162.136 254.446> 642.966 59.252<184.253 342.783>
VStem: 102.884 59.249<7.62765 440.336 499.588 627.576>
LayerCount: 2
Fore
SplineSet
321.744140625 702.217773438 m 1,0,-1
 322.107421875 702.21875 l 2,1,2
 334.373046875 702.21875 334.373046875 702.21875 343.0546875 693.538085938 c 128,-1,3
 351.735351562 684.857421875 351.735351562 684.857421875 351.735351562 672.591796875 c 128,-1,4
 351.735351562 660.326171875 351.735351562 660.326171875 343.0546875 651.64453125 c 128,-1,5
 334.373046875 642.963867188 334.373046875 642.963867188 322.107421875 642.963867188 c 2,6,-1
 321.744140625 642.965820312 l 2,7,8
 249.599609375 642.965820312 249.599609375 642.965820312 225.622070312 640.400390625 c 0,9,10
 195.288085938 637.15625 195.288085938 637.15625 183.892578125 627.859375 c 0,11,12
 172.938476562 618.926757812 172.938476562 618.926757812 167.90234375 593.458984375 c 0,13,14
 162.169921875 564.475585938 162.169921875 564.475585938 162.135742188 499.587890625 c 1,15,-1
 233.408203125 499.587890625 l 2,16,17
 246.037109375 499.58984375 246.037109375 499.58984375 254.717773438 490.909179688 c 128,-1,18
 263.3984375 482.227539062 263.3984375 482.227539062 263.3984375 469.961914062 c 128,-1,19
 263.3984375 457.696289062 263.3984375 457.696289062 254.717773438 449.014648438 c 128,-1,20
 246.037109375 440.333984375 246.037109375 440.333984375 233.771484375 440.333984375 c 0,21,-1
 162.1328125 440.3359375 l 1,22,-1
 162.1328125 28.7470703125 l 1,23,-1
 162.135742188 28.302734375 l 2,24,25
 162.135742188 16.037109375 162.135742188 16.037109375 153.455078125 7.35546875 c 128,-1,26
 144.7734375 -1.3251953125 144.7734375 -1.3251953125 132.5078125 -1.3251953125 c 128,-1,27
 120.2421875 -1.3251953125 120.2421875 -1.3251953125 111.561523438 7.35546875 c 128,-1,28
 102.880859375 16.037109375 102.880859375 16.037109375 102.880859375 28.302734375 c 2,29,-1
 102.883789062 28.7470703125 l 1,30,-1
 102.883789062 440.3359375 l 1,31,-1
 54.990234375 440.3359375 l 1,32,-1
 54.6279296875 440.333984375 l 2,33,34
 42.3623046875 440.333984375 42.3623046875 440.333984375 33.6806640625 449.014648438 c 128,-1,35
 25 457.696289062 25 457.696289062 25 469.961914062 c 128,-1,36
 25 482.227539062 25 482.227539062 33.6806640625 490.909179688 c 128,-1,37
 42.3623046875 499.58984375 42.3623046875 499.58984375 54.6279296875 499.58984375 c 2,38,-1
 54.990234375 499.587890625 l 1,39,-1
 102.88671875 499.587890625 l 1,40,41
 102.915039062 570.237304688 102.915039062 570.237304688 109.779296875 604.952148438 c 0,42,43
 118.955078125 651.3515625 118.955078125 651.3515625 146.439453125 673.771484375 c 0,44,45
 171.478515625 694.197265625 171.478515625 694.197265625 219.319335938 699.314453125 c 0,46,47
 246.459960938 702.217773438 246.459960938 702.217773438 321.744140625 702.217773438 c 1,0,-1
EndSplineSet
EndChar

StartChar: g
Encoding: 103 103 53
Width: 394
VWidth: 0
Flags: W
LayerCount: 2
Fore
SplineSet
222.874023438 500.833007812 m 0,0,1
 233.151367188 500.807617188 233.151367188 500.807617188 262.595703125 500.298828125 c 128,-1,2
 292.040039062 499.7890625 292.040039062 499.7890625 311.240234375 499.815429688 c 0,3,4
 312.158203125 499.905273438 312.158203125 499.905273438 313.129882812 499.939453125 c 0,5,6
 326.293945312 499.942382812 326.293945312 499.942382812 335.283203125 490.953125 c 128,-1,7
 344.272460938 481.963867188 344.272460938 481.963867188 344.272460938 469.26171875 c 0,8,-1
 344.26953125 2.8603515625 l 2,9,10
 344.26953125 -69.322265625 344.26953125 -69.322265625 330.936523438 -110.583984375 c 0,11,12
 315.686523438 -157.771484375 315.686523438 -157.771484375 279.091796875 -180.616210938 c 0,13,14
 271.138671875 -185.581054688 271.138671875 -185.581054688 262.995117188 -189.514648438 c 128,-1,15
 254.8515625 -193.448242188 254.8515625 -193.448242188 244.204101562 -196.254882812 c 128,-1,16
 233.555664062 -199.061523438 233.555664062 -199.061523438 226.475585938 -201.112304688 c 128,-1,17
 219.396484375 -203.163085938 219.396484375 -203.163085938 205.314453125 -204.413085938 c 128,-1,18
 191.232421875 -205.663085938 191.232421875 -205.663085938 185.02734375 -206.430664062 c 128,-1,19
 178.823242188 -207.198242188 178.823242188 -207.198242188 161.119140625 -207.490234375 c 128,-1,20
 143.415039062 -207.782226562 143.415039062 -207.782226562 137.897460938 -207.865234375 c 128,-1,21
 132.37890625 -207.948242188 132.37890625 -207.948242188 110.864257812 -207.880859375 c 128,-1,22
 89.3505859375 -207.814453125 89.3505859375 -207.814453125 83.779296875 -207.814453125 c 0,23,24
 70.697265625 -207.817382812 70.697265625 -207.817382812 61.7080078125 -198.828125 c 128,-1,25
 52.71875 -189.838867188 52.71875 -189.838867188 52.71875 -177.13671875 c 128,-1,26
 52.71875 -164.434570312 52.71875 -164.434570312 61.7080078125 -155.4453125 c 128,-1,27
 70.697265625 -146.456054688 70.697265625 -146.456054688 83.3984375 -146.456054688 c 0,28,29
 217.947265625 -146.458007812 217.947265625 -146.458007812 246.602539062 -128.5703125 c 0,30,31
 264.192382812 -117.58984375 264.192382812 -117.58984375 272.552734375 -91.716796875 c 0,32,33
 282.379882812 -61.310546875 282.379882812 -61.310546875 282.8828125 -3.298828125 c 1,34,35
 207.720703125 -4.2890625 207.720703125 -4.2890625 184.821289062 -3.0009765625 c 0,36,37
 129.643554688 0.1025390625 129.643554688 0.1025390625 92.7705078125 20.328125 c 0,38,39
 49.4501953125 44.0888671875 49.4501953125 44.0888671875 34.056640625 121.415039062 c 0,40,41
 24.8916015625 167.46484375 24.8916015625 167.46484375 25.0009765625 235.173828125 c 0,42,43
 25.1142578125 314.140625 25.1142578125 314.140625 31.375 353.82421875 c 0,44,45
 44.6064453125 437.6796875 44.6064453125 437.6796875 89.833984375 469 c 0,46,47
 129.1328125 496.2109375 129.1328125 496.2109375 185.517578125 499.872070312 c 0,48,49
 197.46875 500.647460938 197.46875 500.647460938 212.259765625 500.796875 c 0,50,51
 217.323242188 500.84765625 217.323242188 500.84765625 222.874023438 500.833007812 c 0,0,1
212.787109375 439.78515625 m 0,52,53
 199.26171875 439.685546875 199.26171875 439.685546875 189.466796875 439.049804688 c 0,54,55
 149.936523438 436.483398438 149.936523438 436.483398438 124.534179688 418.893554688 c 0,56,57
 100.745117188 402.418945312 100.745117188 402.418945312 91.5791015625 344.325195312 c 0,58,59
 86.0576171875 309.3359375 86.0576171875 309.3359375 85.951171875 235.086914062 c 0,60,-1
 85.951171875 235.080078125 l 2,61,62
 85.8515625 173.4140625 85.8515625 173.4140625 93.8330078125 133.311523438 c 0,63,64
 98.40625 110.337890625 98.40625 110.337890625 106.587890625 94.0576171875 c 128,-1,65
 114.768554688 77.7783203125 114.768554688 77.7783203125 122.080078125 73.767578125 c 0,66,67
 146.852539062 60.1796875 146.852539062 60.1796875 188.243164062 57.8515625 c 0,68,69
 207.6328125 56.7607421875 207.6328125 56.7607421875 282.915039062 57.673828125 c 1,70,-1
 282.915039062 439.01953125 l 1,71,72
 272.997070312 439.124023438 272.997070312 439.124023438 257.926757812 439.366210938 c 128,-1,73
 242.857421875 439.608398438 242.857421875 439.608398438 232.079101562 439.728515625 c 128,-1,74
 221.30078125 439.848632812 221.30078125 439.848632812 212.787109375 439.78515625 c 0,52,53
EndSplineSet
EndChar

StartChar: i
Encoding: 105 105 54
Width: 155
VWidth: 0
Flags: W
LayerCount: 2
Fore
SplineSet
65.2861328125 688.844726562 m 128,-1,1
 77.82421875 688.844726562 77.82421875 688.844726562 86.6982421875 679.971679688 c 128,-1,2
 95.5712890625 671.09765625 95.5712890625 671.09765625 95.5712890625 658.559570312 c 128,-1,3
 95.5712890625 646.021484375 95.5712890625 646.021484375 86.6982421875 637.1484375 c 128,-1,4
 77.82421875 628.275390625 77.82421875 628.275390625 65.2861328125 628.275390625 c 128,-1,5
 52.74609375 628.275390625 52.74609375 628.275390625 43.873046875 637.1484375 c 128,-1,6
 35 646.021484375 35 646.021484375 35 658.559570312 c 128,-1,7
 35 671.09765625 35 671.09765625 43.873046875 679.971679688 c 128,-1,0
 52.74609375 688.844726562 52.74609375 688.844726562 65.2861328125 688.844726562 c 128,-1,1
64.884765625 501.489257812 m 0,8,9
 77.875 501.4921875 77.875 501.4921875 86.7470703125 492.620117188 c 128,-1,10
 95.619140625 483.748046875 95.619140625 483.748046875 95.619140625 471.211914062 c 0,11,-1
 95.6162109375 29.794921875 l 1,12,-1
 95.619140625 29.3447265625 l 2,13,14
 95.619140625 16.8095703125 95.619140625 16.8095703125 86.7470703125 7.9375 c 128,-1,15
 77.875 -0.9345703125 77.875 -0.9345703125 65.33984375 -0.9345703125 c 128,-1,16
 52.8037109375 -0.9345703125 52.8037109375 -0.9345703125 43.931640625 7.9375 c 128,-1,17
 35.0595703125 16.8095703125 35.0595703125 16.8095703125 35.0595703125 29.3447265625 c 2,18,-1
 35.0625 29.794921875 l 1,19,-1
 35.0625 470.783203125 l 2,20,21
 35.0595703125 483.561523438 35.0595703125 483.561523438 43.798828125 492.431640625 c 128,-1,22
 52.537109375 501.302734375 52.537109375 501.302734375 64.884765625 501.489257812 c 0,8,9
EndSplineSet
EndChar

StartChar: j
Encoding: 106 106 55
Width: 191
VWidth: 0
Flags: W
LayerCount: 2
Fore
SplineSet
120.610351562 688.166992188 m 128,-1,1
 133.17578125 688.165039062 133.17578125 688.165039062 142.069335938 679.272460938 c 128,-1,2
 150.962890625 670.37890625 150.962890625 670.37890625 150.963867188 657.813476562 c 128,-1,3
 150.963867188 645.247070312 150.963867188 645.247070312 142.0703125 636.352539062 c 128,-1,4
 133.176757812 627.458984375 133.176757812 627.458984375 120.610351562 627.458007812 c 128,-1,5
 108.04296875 627.458007812 108.04296875 627.458007812 99.1494140625 636.3515625 c 128,-1,6
 90.2548828125 645.24609375 90.2548828125 645.24609375 90.2548828125 657.813476562 c 128,-1,7
 90.2568359375 670.379882812 90.2568359375 670.379882812 99.150390625 679.2734375 c 128,-1,0
 108.043945312 688.166992188 108.043945312 688.166992188 120.610351562 688.166992188 c 128,-1,1
120.157226562 500.14453125 m 1,8,-1
 120.614257812 500.146484375 l 2,9,10
 133.1796875 500.146484375 133.1796875 500.146484375 142.072265625 491.25390625 c 128,-1,11
 150.965820312 482.360351562 150.965820312 482.360351562 150.965820312 469.794921875 c 2,12,-1
 150.962890625 469.366210938 l 1,13,-1
 150.962890625 8.3994140625 l 2,14,15
 150.962890625 -64.658203125 150.962890625 -64.658203125 143.899414062 -100.380859375 c 0,16,17
 134.499023438 -147.912109375 134.499023438 -147.912109375 106.342773438 -170.87890625 c 0,18,19
 80.69140625 -191.802734375 80.69140625 -191.802734375 31.685546875 -197.04296875 c 0,20,21
 3.8955078125 -200.013671875 3.8955078125 -200.013671875 -73.23828125 -200.013671875 c 0,22,23
 -86.21484375 -200.016601562 -86.21484375 -200.016601562 -95.107421875 -191.124023438 c 128,-1,24
 -104 -182.23046875 -104 -182.23046875 -104 -169.665039062 c 128,-1,25
 -104 -157.099609375 -104 -157.099609375 -95.107421875 -148.20703125 c 128,-1,26
 -86.21484375 -139.314453125 -86.21484375 -139.314453125 -73.6494140625 -139.314453125 c 0,27,28
 0.6591796875 -139.31640625 0.6591796875 -139.31640625 25.2314453125 -136.688476562 c 0,29,30
 56.306640625 -133.366210938 56.306640625 -133.366210938 67.9794921875 -123.845703125 c 0,31,32
 79.1982421875 -114.694335938 79.1982421875 -114.694335938 84.3564453125 -88.6064453125 c 0,33,34
 90.2685546875 -58.7138671875 90.2685546875 -58.7138671875 90.2685546875 8.4013671875 c 2,35,-1
 90.2685546875 469.368164062 l 1,36,-1
 90.265625 469.796875 l 2,37,38
 90.265625 482.172851562 90.265625 482.172851562 99.0234375 491.065429688 c 128,-1,39
 107.782226562 499.95703125 107.782226562 499.95703125 120.157226562 500.14453125 c 1,8,-1
EndSplineSet
EndChar

StartChar: p
Encoding: 112 112 56
Width: 398
Flags: W
LayerCount: 2
Fore
SplineSet
132.583984375 498.888671875 m 0,0,1
 189.108398438 498.848632812 189.108398438 498.848632812 221.633789062 494.262695312 c 128,-1,2
 254.158203125 489.67578125 254.158203125 489.67578125 280.694335938 474.759765625 c 0,3,4
 305.009765625 461.091796875 305.009765625 461.091796875 316.53515625 437.170898438 c 128,-1,5
 328.059570312 413.249023438 328.059570312 413.249023438 336.583007812 375.51953125 c 0,6,7
 349 320.545898438 349 320.545898438 348.901367188 260.03125 c 0,8,9
 348.791015625 180.782226562 348.791015625 180.782226562 342.668945312 140.331054688 c 0,10,11
 329.669921875 54.458984375 329.669921875 54.458984375 285.203125 23.6640625 c 0,12,13
 246.452148438 -3.1708984375 246.452148438 -3.1708984375 191.598632812 -7.47265625 c 0,14,15
 173.8203125 -8.8662109375 173.8203125 -8.8662109375 84.88671875 -8.3271484375 c 1,16,-1
 84.88671875 -174.171875 l 2,17,18
 85.0595703125 -186.6953125 85.0595703125 -186.6953125 76.2646484375 -195.612304688 c 128,-1,19
 67.4697265625 -204.530273438 67.4697265625 -204.530273438 54.9453125 -204.530273438 c 128,-1,20
 42.419921875 -204.530273438 42.419921875 -204.530273438 33.625 -195.612304688 c 128,-1,21
 24.830078125 -186.6953125 24.830078125 -186.6953125 25.00390625 -174.171875 c 2,22,-1
 25.00390625 468.05078125 l 2,23,24
 24.7763671875 485.711914062 24.7763671875 485.711914062 39.13671875 493.782226562 c 0,25,26
 47.87890625 498.696289062 47.87890625 498.696289062 55.7529296875 498.618164062 c 0,27,28
 70.669921875 498.618164062 70.669921875 498.618164062 96.1923828125 498.756835938 c 128,-1,29
 121.713867188 498.895507812 121.713867188 498.895507812 132.583984375 498.888671875 c 0,0,1
84.884765625 438.704101562 m 1,30,-1
 84.8857421875 51.57421875 l 1,31,32
 173.153320312 51.15625 173.153320312 51.15625 186.916015625 52.2353515625 c 0,33,34
 225.654296875 55.2724609375 225.654296875 55.2724609375 251.109375 72.900390625 c 0,35,36
 274.326171875 88.978515625 274.326171875 88.978515625 283.45703125 149.294921875 c 0,37,38
 288.909179688 185.3125 288.909179688 185.3125 289.013671875 260.122070312 c 0,39,-1
 289.013671875 260.12890625 l 2,40,41
 289.100585938 313.9296875 289.100585938 313.9296875 278.168945312 362.327148438 c 0,42,43
 274.697265625 377.693359375 274.697265625 377.693359375 268.700195312 392.091796875 c 128,-1,44
 262.704101562 406.490234375 262.704101562 406.490234375 258.068359375 413.938476562 c 128,-1,45
 253.43359375 421.387695312 253.43359375 421.387695312 251.3515625 422.557617188 c 0,46,47
 233.045898438 432.846679688 233.045898438 432.846679688 198.395507812 435.720703125 c 128,-1,48
 163.744140625 438.595703125 163.744140625 438.595703125 84.884765625 438.704101562 c 1,30,-1
EndSplineSet
EndChar

StartChar: q
Encoding: 113 113 57
Width: 398
Flags: W
LayerCount: 2
Fore
SplineSet
241.31640625 500.444335938 m 0,0,1
 252.158203125 500.463867188 252.158203125 500.463867188 277.680664062 500.323242188 c 128,-1,2
 303.203125 500.18359375 303.203125 500.18359375 318.145507812 500.18359375 c 0,3,4
 328.620117188 500.319335938 328.620117188 500.319335938 336.680664062 494.491210938 c 0,5,6
 349.099609375 485.51171875 349.099609375 485.51171875 348.89453125 469.618164062 c 2,7,-1
 348.89453125 -172.603515625 l 2,8,9
 349.068359375 -185.126953125 349.068359375 -185.126953125 340.2734375 -194.044921875 c 128,-1,10
 331.478515625 -202.961914062 331.478515625 -202.961914062 318.955078125 -202.961914062 c 128,-1,11
 306.4296875 -202.961914062 306.4296875 -202.961914062 297.635742188 -194.044921875 c 128,-1,12
 288.840820312 -185.126953125 288.840820312 -185.126953125 289.013671875 -172.603515625 c 2,13,-1
 289.013671875 -6.759765625 l 1,14,15
 200.091796875 -7.296875 200.091796875 -7.296875 182.303710938 -5.90234375 c 0,16,17
 127.442382812 -1.599609375 127.442382812 -1.599609375 88.697265625 25.232421875 c 0,18,19
 44.2294921875 56.0263671875 44.2294921875 56.0263671875 31.2314453125 141.8984375 c 0,20,21
 25.1103515625 182.330078125 25.1103515625 182.330078125 25.0009765625 261.598632812 c 0,22,23
 24.9013671875 322.110351562 24.9013671875 322.110351562 37.3173828125 377.077148438 c 0,24,25
 45.83984375 414.807617188 45.83984375 414.807617188 57.365234375 438.729492188 c 128,-1,26
 68.8896484375 462.651367188 68.8896484375 462.651367188 93.205078125 476.319335938 c 0,27,28
 119.743164062 491.235351562 119.743164062 491.235351562 152.267578125 495.822265625 c 128,-1,29
 184.79296875 500.408203125 184.79296875 500.408203125 241.31640625 500.444335938 c 0,0,1
289.014648438 440.259765625 m 1,30,31
 210.154296875 440.147460938 210.154296875 440.147460938 175.504882812 437.2734375 c 128,-1,32
 140.854492188 434.3984375 140.854492188 434.3984375 122.55078125 424.110351562 c 0,33,34
 120.46875 422.939453125 120.46875 422.939453125 115.833984375 415.490234375 c 128,-1,35
 111.198242188 408.041015625 111.198242188 408.041015625 105.202148438 393.641601562 c 128,-1,36
 99.205078125 379.2421875 99.205078125 379.2421875 95.734375 363.876953125 c 0,37,38
 84.7998046875 315.466796875 84.7998046875 315.466796875 84.88671875 261.680664062 c 0,39,-1
 84.88671875 261.671875 l 2,40,41
 84.9912109375 186.87109375 84.9912109375 186.87109375 90.4443359375 150.846679688 c 0,42,43
 99.57421875 90.53125 99.57421875 90.53125 122.791992188 74.4521484375 c 0,44,45
 148.248046875 56.8232421875 148.248046875 56.8232421875 186.985351562 53.78515625 c 0,46,47
 200.735351562 52.70703125 200.735351562 52.70703125 289.014648438 53.126953125 c 1,48,-1
 289.014648438 440.259765625 l 1,30,31
EndSplineSet
EndChar

StartChar: r
Encoding: 114 114 58
Width: 267
Flags: W
LayerCount: 2
Fore
SplineSet
187.161132812 501.900390625 m 5,0,-1
 187.525390625 501.90234375 l 6,1,2
 200.141601562 501.90234375 200.141601562 501.90234375 209.069335938 492.973632812 c 132,-1,3
 217.998046875 484.044921875 217.998046875 484.044921875 217.998046875 471.428710938 c 132,-1,4
 217.998046875 458.8125 217.998046875 458.8125 209.069335938 449.883789062 c 132,-1,5
 200.141601562 440.955078125 200.141601562 440.955078125 187.525390625 440.955078125 c 6,6,-1
 187.157226562 440.958007812 l 6,7,8
 114.436523438 440.958007812 114.436523438 440.958007812 97.22265625 421.897460938 c 4,9,10
 85.9443359375 409.409179688 85.9443359375 409.409179688 85.9443359375 357.314453125 c 6,11,-1
 85.9443359375 22.1806640625 l 6,12,13
 85.947265625 9.197265625 85.947265625 9.197265625 77.0185546875 0.2685546875 c 132,-1,14
 68.08984375 -8.66015625 68.08984375 -8.66015625 55.4736328125 -8.66015625 c 132,-1,15
 42.857421875 -8.66015625 42.857421875 -8.66015625 33.9287109375 0.2685546875 c 132,-1,16
 25 9.197265625 25 9.197265625 25 21.8134765625 c 4,17,-1
 25.0029296875 357.314453125 l 6,18,19
 25.0029296875 382.368164062 25.0029296875 382.368164062 25.9677734375 396.279296875 c 132,-1,20
 26.931640625 410.190429688 26.931640625 410.190429688 33.2216796875 429.557617188 c 132,-1,21
 39.5107421875 448.924804688 39.5107421875 448.924804688 51.9951171875 462.747070312 c 4,22,23
 87.3623046875 501.900390625 87.3623046875 501.900390625 187.161132812 501.900390625 c 5,0,-1
EndSplineSet
EndChar

StartChar: s
Encoding: 115 115 59
Width: 357
VWidth: 0
Flags: W
LayerCount: 2
Fore
SplineSet
191.287109375 499.698242188 m 2,0,-1
 191.295898438 499.698242188 l 1,1,-1
 276.956054688 499.6484375 l 1,2,-1
 277.385742188 499.651367188 l 2,3,4
 289.766601562 499.651367188 289.766601562 499.651367188 298.528320312 490.889648438 c 128,-1,5
 307.291015625 482.126953125 307.291015625 482.126953125 307.291015625 469.747070312 c 128,-1,6
 307.291015625 457.366210938 307.291015625 457.366210938 298.528320312 448.604492188 c 128,-1,7
 289.766601562 439.842773438 289.766601562 439.842773438 277.385742188 439.842773438 c 2,8,-1
 276.920898438 439.845703125 l 1,9,-1
 191.270507812 439.895507812 l 2,10,11
 131.873046875 439.895507812 131.873046875 439.895507812 115.178710938 434.275390625 c 0,12,13
 100.171875 429.223632812 100.171875 429.223632812 92.021484375 403.23828125 c 0,14,15
 84.8837890625 380.487304688 84.8837890625 380.487304688 84.802734375 348.504882812 c 2,16,-1
 84.802734375 348.498046875 l 2,17,18
 84.7314453125 324.735351562 84.7314453125 324.735351562 98.4033203125 307.6796875 c 0,19,20
 118.752929688 282.293945312 118.752929688 282.293945312 168.106445312 279.02734375 c 0,21,22
 243.71875 274.025390625 243.71875 274.025390625 280.526367188 228.104492188 c 0,23,24
 307.400390625 194.576171875 307.400390625 194.576171875 307.266601562 149.71484375 c 0,25,26
 307.16015625 108.65625 307.16015625 108.65625 297.305664062 77.2431640625 c 0,27,28
 280.036132812 22.19921875 280.036132812 22.19921875 236.170898438 7.4296875 c 0,29,30
 210.185546875 -1.318359375 210.185546875 -1.318359375 140.977539062 -1.318359375 c 0,31,-1
 55.30859375 -1.2685546875 l 1,32,-1
 54.9580078125 -1.2705078125 l 2,33,34
 42.5771484375 -1.2705078125 42.5771484375 -1.2705078125 33.8154296875 7.4912109375 c 128,-1,35
 25.0537109375 16.25390625 25.0537109375 16.25390625 25.0537109375 28.634765625 c 128,-1,36
 25.0537109375 41.0146484375 25.0537109375 41.0146484375 33.8154296875 49.77734375 c 128,-1,37
 42.5771484375 58.5390625 42.5771484375 58.5390625 54.9580078125 58.5390625 c 2,38,-1
 55.34375 58.5361328125 l 1,39,-1
 140.994140625 58.486328125 l 2,40,41
 200.393554688 58.4873046875 200.393554688 58.4873046875 217.087890625 64.107421875 c 0,42,43
 232.091796875 69.158203125 232.091796875 69.158203125 240.244140625 95.142578125 c 0,44,45
 247.379882812 117.89453125 247.379882812 117.89453125 247.461914062 149.875976562 c 0,46,-1
 247.461914062 149.891601562 l 2,47,48
 247.532226562 173.645507812 247.532226562 173.645507812 233.861328125 190.700195312 c 0,49,50
 213.509765625 216.08984375 213.509765625 216.08984375 164.158203125 219.35546875 c 0,51,52
 88.546875 224.357421875 88.546875 224.357421875 51.7412109375 270.27734375 c 0,53,54
 24.8681640625 303.801757812 24.8681640625 303.801757812 25.0009765625 348.65625 c 0,55,-1
 25.0009765625 348.671875 l 2,56,57
 25.1044921875 389.725585938 25.1044921875 389.725585938 34.958984375 421.13671875 c 0,58,59
 52.2265625 476.180664062 52.2265625 476.180664062 96.0966796875 490.950195312 c 0,60,61
 122.081054688 499.698242188 122.081054688 499.698242188 191.287109375 499.698242188 c 2,0,-1
EndSplineSet
EndChar

StartChar: t
Encoding: 116 116 60
Width: 339
VWidth: 0
Flags: W
HStem: -0.946289 59.4619<186.856 285.757> 440.192 59.8086<34.514 104.565 164.384 258.016>
VStem: 104.565 59.8184<72.39 440.204 499.989 697.636>
LayerCount: 2
Fore
SplineSet
134.474609375 705.77734375 m 128,-1,1
 146.625 705.77734375 146.625 705.77734375 155.50390625 697.883789062 c 128,-1,2
 164.383789062 689.990234375 164.383789062 689.990234375 164.383789062 675.866210938 c 2,3,-1
 164.383789062 499.989257812 l 1,4,-1
 236.299804688 499.989257812 l 2,5,6
 236.701171875 500.000976562 236.701171875 500.000976562 237.1484375 500.000976562 c 0,7,8
 249.528320312 500.000976562 249.528320312 500.000976562 258.291015625 491.239257812 c 128,-1,9
 267.052734375 482.4765625 267.052734375 482.4765625 267.052734375 470.096679688 c 128,-1,10
 267.052734375 457.715820312 267.052734375 457.715820312 258.291015625 448.954101562 c 128,-1,11
 249.528320312 440.192382812 249.528320312 440.192382812 237.1484375 440.192382812 c 0,12,13
 236.701171875 440.192382812 236.701171875 440.192382812 236.299804688 440.204101562 c 2,14,-1
 164.383789062 440.204101562 l 1,15,-1
 164.383789062 201.475585938 l 2,16,17
 164.383789062 135.265625 164.383789062 135.265625 170.188476562 105.909179688 c 0,18,19
 175.272460938 80.1982421875 175.272460938 80.1982421875 186.345703125 71.16796875 c 0,20,21
 202.59765625 57.91015625 202.59765625 57.91015625 228.450195312 58.515625 c 2,22,-1
 258.673828125 59.22265625 l 2,23,24
 278.02734375 59.67578125 278.02734375 59.67578125 286.008789062 44.802734375 c 128,-1,25
 293.990234375 29.9287109375 293.990234375 29.9287109375 286.010742188 14.78515625 c 128,-1,26
 278.03125 -0.359375 278.03125 -0.359375 258.673828125 -0.5625 c 2,27,-1
 222.091796875 -0.9462890625 l 2,28,29
 180.66796875 -1.3798828125 180.66796875 -1.3798828125 148.51953125 24.84375 c 0,30,31
 120.80078125 47.4541015625 120.80078125 47.4541015625 111.538085938 94.296875 c 0,32,33
 104.565429688 129.559570312 104.565429688 129.559570312 104.565429688 201.475585938 c 2,34,-1
 104.565429688 440.204101562 l 1,35,-1
 56.23046875 440.204101562 l 2,36,37
 55.8291015625 440.192382812 55.8291015625 440.192382812 55.3818359375 440.192382812 c 0,38,39
 43.001953125 440.192382812 43.001953125 440.192382812 34.2392578125 448.954101562 c 128,-1,40
 25.4775390625 457.715820312 25.4775390625 457.715820312 25.4775390625 470.096679688 c 128,-1,41
 25.4775390625 482.4765625 25.4775390625 482.4765625 34.2392578125 491.239257812 c 128,-1,42
 43.001953125 500.000976562 43.001953125 500.000976562 55.3818359375 500.000976562 c 0,43,44
 55.8291015625 500.000976562 55.8291015625 500.000976562 56.23046875 499.989257812 c 2,45,-1
 104.565429688 499.989257812 l 1,46,-1
 104.565429688 675.866210938 l 2,47,48
 104.565429688 689.990234375 104.565429688 689.990234375 113.4453125 697.883789062 c 128,-1,0
 122.32421875 705.77734375 122.32421875 705.77734375 134.474609375 705.77734375 c 128,-1,1
EndSplineSet
EndChar

StartChar: u
Encoding: 117 117 61
Width: 395
VWidth: 0
Flags: W
LayerCount: 2
Fore
SplineSet
54.4501953125 502.107421875 m 1,0,-1
 54.8984375 502.110351562 l 2,1,2
 67.2783203125 502.110351562 67.2783203125 502.110351562 76.041015625 493.348632812 c 128,-1,3
 84.802734375 484.5859375 84.802734375 484.5859375 84.802734375 472.206054688 c 0,4,-1
 84.7998046875 152.551757812 l 2,5,6
 85.0517578125 106.645507812 85.0517578125 106.645507812 105.793945312 84.041015625 c 0,7,8
 129.53125 58.1708984375 129.53125 58.1708984375 185.001953125 58.1708984375 c 128,-1,9
 240.650390625 58.1708984375 240.650390625 58.1708984375 264.7890625 84.353515625 c 0,10,11
 285.861328125 107.208007812 285.861328125 107.208007812 285.206054688 151.951171875 c 0,12,-1
 285.203125 471.784179688 l 2,13,14
 285.200195312 484.610351562 285.200195312 484.610351562 293.961914062 493.373046875 c 128,-1,15
 302.724609375 502.134765625 302.724609375 502.134765625 315.104492188 502.134765625 c 128,-1,16
 327.485351562 502.134765625 327.485351562 502.134765625 336.247070312 493.373046875 c 128,-1,17
 345.009765625 484.610351562 345.009765625 484.610351562 345.009765625 472.23046875 c 0,18,-1
 345.005859375 152.389648438 l 1,19,-1
 345.005859375 152.828125 l 2,20,21
 346.012695312 84.2236328125 346.012695312 84.2236328125 308.7578125 43.8154296875 c 0,22,23
 266.858398438 -1.6318359375 266.858398438 -1.6318359375 185.00390625 -1.6318359375 c 128,-1,24
 103.244140625 -1.6318359375 103.244140625 -1.6318359375 61.7314453125 43.6064453125 c 0,25,26
 25.3779296875 83.2236328125 25.3779296875 83.2236328125 25 152.224609375 c 0,27,-1
 25 471.784179688 l 2,28,29
 24.99609375 484.401367188 24.99609375 484.401367188 33.6259765625 493.162109375 c 128,-1,30
 42.2568359375 501.923828125 42.2568359375 501.923828125 54.4501953125 502.107421875 c 1,0,-1
EndSplineSet
EndChar

StartChar: v
Encoding: 118 118 62
Width: 399
VWidth: 0
Flags: W
LayerCount: 2
Fore
SplineSet
320.424804688 499.373046875 m 4,0,1
 332.390625 498.82421875 332.390625 498.82421875 340.859375 489.958984375 c 132,-1,2
 349.328125 481.094726562 349.328125 481.094726562 349.328125 469.116210938 c 4,3,4
 349.328125 464.92578125 349.328125 464.92578125 348.190429688 460.891601562 c 6,5,-1
 230.694335938 20.6923828125 l 6,6,7
 228.209960938 11.3876953125 228.209960938 11.3876953125 219.63671875 4.8017578125 c 132,-1,8
 211.0625 -1.783203125 211.0625 -1.783203125 201.432617188 -1.7841796875 c 6,9,-1
 160.965820312 -1.7841796875 l 6,10,11
 151.080078125 -1.783203125 151.080078125 -1.783203125 142.450195312 5.0205078125 c 132,-1,12
 133.821289062 11.8251953125 133.821289062 11.8251953125 131.514648438 21.4384765625 c 6,13,-1
 25.9287109375 461.638671875 l 6,14,15
 25 465.30078125 25 465.30078125 25 469.080078125 c 4,16,17
 25 481.620117188 25 481.620117188 33.875 490.494140625 c 132,-1,18
 42.7490234375 499.369140625 42.7490234375 499.369140625 55.2890625 499.369140625 c 4,19,20
 65.3076171875 499.369140625 65.3076171875 499.369140625 73.9638671875 492.453125 c 132,-1,21
 82.619140625 485.538085938 82.619140625 485.538085938 84.8310546875 475.765625 c 6,22,-1
 181.686523438 71.9599609375 l 5,23,-1
 289.66796875 476.512695312 l 6,24,25
 292.053710938 485.990234375 292.053710938 485.990234375 300.66015625 492.697265625 c 132,-1,26
 309.265625 499.404296875 309.265625 499.404296875 319.0390625 499.404296875 c 4,27,28
 319.74609375 499.404296875 319.74609375 499.404296875 320.424804688 499.373046875 c 4,0,1
EndSplineSet
EndChar

StartChar: w
Encoding: 119 119 63
Width: 653
VWidth: 0
Flags: W
LayerCount: 2
Fore
SplineSet
54.357421875 499.987304688 m 0,0,1
 66.9580078125 500.177734375 66.9580078125 500.177734375 75.8740234375 491.270507812 c 128,-1,2
 84.7900390625 482.36328125 84.7900390625 482.36328125 84.611328125 469.76171875 c 2,3,-1
 84.611328125 151.51953125 l 2,4,5
 84.8779296875 105.806640625 84.8779296875 105.806640625 105.536132812 83.2939453125 c 0,6,7
 129.194335938 57.5107421875 129.194335938 57.5107421875 184.483398438 57.5107421875 c 128,-1,8
 239.9453125 57.5107421875 239.9453125 57.5107421875 264.005859375 83.6064453125 c 0,9,10
 285.010742188 106.390625 285.010742188 106.390625 284.357421875 150.98046875 c 0,11,-1
 284.353515625 378.712890625 l 2,12,13
 284.188476562 391.173828125 284.188476562 391.173828125 292.94140625 400.04296875 c 128,-1,14
 301.6953125 408.912109375 301.6953125 408.912109375 314.157226562 408.912109375 c 128,-1,15
 326.618164062 408.912109375 326.618164062 408.912109375 335.37109375 400.04296875 c 128,-1,16
 344.125 391.173828125 344.125 391.173828125 343.9609375 378.712890625 c 2,17,-1
 343.995117188 151.44921875 l 2,18,19
 344.2421875 106.493164062 344.2421875 106.493164062 365.529296875 83.2939453125 c 0,20,21
 389.189453125 57.5107421875 389.189453125 57.5107421875 444.4765625 57.5107421875 c 128,-1,22
 499.939453125 57.5107421875 499.939453125 57.5107421875 524 83.6064453125 c 0,23,24
 545.004882812 106.390625 545.004882812 106.390625 544.3515625 150.98046875 c 0,25,-1
 544.348632812 469.76171875 l 2,26,27
 544.172851562 482.098632812 544.172851562 482.098632812 552.768554688 490.94921875 c 128,-1,28
 561.364257812 499.80078125 561.364257812 499.80078125 573.702148438 499.987304688 c 0,29,30
 586.302734375 500.176757812 586.302734375 500.176757812 595.217773438 491.26953125 c 128,-1,31
 604.1328125 482.362304688 604.1328125 482.362304688 603.954101562 469.76171875 c 2,32,-1
 603.954101562 151.516601562 l 1,33,-1
 603.954101562 151.418945312 l 2,34,35
 604.82421875 83.3369140625 604.82421875 83.3369140625 567.823242188 43.203125 c 0,36,37
 526.061523438 -2.09375 526.061523438 -2.09375 444.4765625 -2.09375 c 128,-1,38
 362.982421875 -2.09375 362.982421875 -2.09375 321.610351562 42.9951171875 c 0,39,40
 317.97265625 46.9599609375 317.97265625 46.9599609375 314.65234375 51.291015625 c 1,41,42
 311.3671875 47.0419921875 311.3671875 47.0419921875 307.830078125 43.203125 c 0,43,44
 266.068359375 -2.09375 266.068359375 -2.09375 184.483398438 -2.09375 c 128,-1,45
 102.989257812 -2.09375 102.989257812 -2.09375 61.6171875 42.9951171875 c 0,46,47
 42.4697265625 63.8603515625 42.4697265625 63.8603515625 33.8251953125 91.5087890625 c 128,-1,48
 25.1806640625 119.157226562 25.1806640625 119.157226562 25.00390625 151.25390625 c 0,49,-1
 25.00390625 469.76171875 l 2,50,51
 24.828125 482.098632812 24.828125 482.098632812 33.423828125 490.94921875 c 128,-1,52
 42.01953125 499.80078125 42.01953125 499.80078125 54.357421875 499.987304688 c 0,0,1
EndSplineSet
EndChar

StartChar: x
Encoding: 120 120 64
Width: 399
VWidth: 0
Flags: W
LayerCount: 2
Fore
SplineSet
53.68359375 499.844726562 m 0,0,1
 54.4228515625 499.8828125 54.4228515625 499.8828125 55.1962890625 499.8828125 c 128,-1,2
 55.9697265625 499.8828125 55.9697265625 499.8828125 56.708984375 499.844726562 c 0,3,4
 73.2646484375 499.094726562 73.2646484375 499.094726562 81.5712890625 484.75 c 2,5,-1
 187.431640625 307.887695312 l 1,6,-1
 293.29296875 484.75 l 2,7,8
 302.055664062 499.854492188 302.055664062 499.854492188 319.516601562 499.854492188 c 0,9,10
 319.91796875 499.854492188 319.91796875 499.854492188 320.259765625 499.844726562 c 0,11,12
 332.506835938 499.547851562 332.506835938 499.547851562 341.173828125 490.66796875 c 128,-1,13
 349.841796875 481.788085938 349.841796875 481.788085938 349.841796875 469.537109375 c 0,14,15
 349.841796875 460.930664062 349.841796875 460.930664062 345.319335938 453.607421875 c 2,16,-1
 222.751953125 248.856445312 l 1,17,-1
 345.319335938 44.138671875 l 2,18,19
 349.624023438 36.9482421875 349.624023438 36.9482421875 349.624023438 28.5673828125 c 0,20,21
 349.624023438 16.015625 349.624023438 16.015625 340.741210938 7.1328125 c 128,-1,22
 331.858398438 -1.75 331.858398438 -1.75 319.306640625 -1.75 c 0,23,24
 302.12109375 -1.75 302.12109375 -1.75 293.29296875 12.99609375 c 2,25,-1
 187.431640625 189.858398438 l 1,26,-1
 81.5712890625 12.99609375 l 2,27,28
 72.7412109375 -1.7373046875 72.7412109375 -1.7373046875 55.5654296875 -1.7373046875 c 0,29,30
 43.013671875 -1.7373046875 43.013671875 -1.7373046875 34.130859375 7.146484375 c 128,-1,31
 25.248046875 16.029296875 25.248046875 16.029296875 25.248046875 28.5810546875 c 0,32,33
 25.248046875 36.955078125 25.248046875 36.955078125 29.544921875 44.138671875 c 2,34,-1
 152.112304688 248.856445312 l 1,35,-1
 29.544921875 453.607421875 l 2,36,37
 25 460.942382812 25 460.942382812 25 469.572265625 c 0,38,39
 25 481.46484375 25 481.46484375 33.404296875 490.333984375 c 128,-1,40
 41.80859375 499.204101562 41.80859375 499.204101562 53.68359375 499.844726562 c 0,0,1
EndSplineSet
EndChar

StartChar: y
Encoding: 121 121 65
Width: 382
VWidth: 0
Flags: W
LayerCount: 2
Fore
SplineSet
54.390625 501.171875 m 0,0,-1
 54.8388671875 501.174804688 l 2,1,2
 67.1787109375 501.174804688 67.1787109375 501.174804688 75.912109375 492.44140625 c 128,-1,3
 84.6455078125 483.708984375 84.6455078125 483.708984375 84.6455078125 471.369140625 c 0,4,-1
 84.6318359375 198.828125 l 2,5,6
 83.958984375 103.538085938 83.958984375 103.538085938 104.497070312 80.919921875 c 0,7,8
 125.291992188 58.0185546875 125.291992188 58.0185546875 215.118164062 58.0185546875 c 2,9,-1
 272.057617188 58.1337890625 l 1,10,-1
 272.057617188 470.3125 l 1,11,-1
 272.0546875 470.737304688 l 2,12,13
 272.0546875 482.973632812 272.0546875 482.973632812 280.713867188 491.763671875 c 128,-1,14
 289.373046875 500.5546875 289.373046875 500.5546875 301.608398438 500.73828125 c 0,15,16
 314.482421875 500.741210938 314.482421875 500.741210938 323.2734375 491.950195312 c 128,-1,17
 332.065429688 483.158203125 332.065429688 483.158203125 332.065429688 470.737304688 c 2,18,-1
 332.0625 470.3125 l 1,19,-1
 332.0625 14.61328125 l 2,20,21
 332.0625 -57.60546875 332.0625 -57.60546875 325.079101562 -92.9228515625 c 0,22,23
 315.786132812 -139.911132812 315.786132812 -139.911132812 287.950195312 -162.6171875 c 0,24,25
 262.58984375 -183.301757812 262.58984375 -183.301757812 214.145507812 -188.48046875 c 0,26,27
 186.684570312 -191.416992188 186.684570312 -191.416992188 110.421875 -191.416992188 c 2,28,-1
 109.9765625 -191.419921875 l 2,29,30
 97.5546875 -191.419921875 97.5546875 -191.419921875 88.763671875 -182.62890625 c 128,-1,31
 79.97265625 -173.837890625 79.97265625 -173.837890625 79.97265625 -161.416015625 c 128,-1,32
 79.97265625 -148.994140625 79.97265625 -148.994140625 88.763671875 -140.202148438 c 128,-1,33
 97.5546875 -131.411132812 97.5546875 -131.411132812 109.9765625 -131.411132812 c 2,34,-1
 110.421875 -131.415039062 l 2,35,36
 183.469726562 -131.415039062 183.469726562 -131.415039062 207.765625 -128.817382812 c 0,37,38
 238.481445312 -125.533203125 238.481445312 -125.533203125 250.024414062 -116.120117188 c 0,39,40
 261.116210938 -107.072265625 261.116210938 -107.072265625 266.215820312 -81.28515625 c 0,41,42
 271.372070312 -55.208984375 271.372070312 -55.208984375 271.970703125 -1.4716796875 c 1,43,-1
 215.1484375 -1.5888671875 l 2,44,45
 155.6015625 -1.5888671875 155.6015625 -1.5888671875 119.40234375 7.05859375 c 128,-1,46
 83.2021484375 15.705078125 83.2021484375 15.705078125 60.369140625 40.8505859375 c 0,47,48
 37.8740234375 65.6240234375 37.8740234375 65.6240234375 31.2353515625 101.451171875 c 128,-1,49
 24.5966796875 137.278320312 24.5966796875 137.278320312 25.0263671875 198.934570312 c 0,50,-1
 25.0263671875 199.14453125 l 1,51,-1
 25.037109375 470.948242188 l 2,52,53
 25.0341796875 483.5234375 25.0341796875 483.5234375 33.6357421875 492.255859375 c 128,-1,54
 42.2373046875 500.989257812 42.2373046875 500.989257812 54.390625 501.171875 c 0,0,-1
EndSplineSet
EndChar

StartChar: z
Encoding: 122 122 66
Width: 457
VWidth: 0
Flags: W
LayerCount: 2
Fore
SplineSet
377.834960938 501.77734375 m 6,0,1
 390.275390625 501.77734375 390.275390625 501.77734375 399.078125 492.974609375 c 132,-1,2
 407.880859375 484.171875 407.880859375 484.171875 407.880859375 471.734375 c 4,3,4
 407.880859375 461.956054688 407.880859375 461.956054688 402.125976562 454.051757812 c 6,5,-1
 114.0859375 58.5283203125 l 5,6,-1
 376.76953125 58.5703125 l 5,7,-1
 377.127929688 58.572265625 l 6,8,9
 389.565429688 58.572265625 389.565429688 58.572265625 398.368164062 49.76953125 c 132,-1,10
 407.170898438 40.966796875 407.170898438 40.966796875 407.170898438 28.5283203125 c 132,-1,11
 407.170898438 16.08984375 407.170898438 16.08984375 398.368164062 7.2880859375 c 132,-1,12
 389.56640625 -1.5146484375 389.56640625 -1.5146484375 377.127929688 -1.5146484375 c 6,13,-1
 376.78125 -1.5126953125 l 5,14,-1
 55.04296875 -1.5625 l 6,15,16
 42.60546875 -1.5625 42.60546875 -1.5625 33.802734375 7.240234375 c 132,-1,17
 25 16.04296875 25 16.04296875 25 28.48046875 c 4,18,19
 25 38.2587890625 25 38.2587890625 30.7548828125 46.1630859375 c 6,20,-1
 318.794921875 441.686523438 l 5,21,-1
 56.1103515625 441.64453125 l 5,22,-1
 55.669921875 441.641601562 l 6,23,24
 43.232421875 441.641601562 43.232421875 441.641601562 34.4287109375 450.444335938 c 132,-1,25
 25.6259765625 459.247070312 25.6259765625 459.247070312 25.6259765625 471.684570312 c 132,-1,26
 25.6259765625 484.123046875 25.6259765625 484.123046875 34.4287109375 492.92578125 c 132,-1,27
 43.232421875 501.728515625 43.232421875 501.728515625 55.669921875 501.728515625 c 6,28,-1
 56.099609375 501.725585938 l 5,29,-1
 377.834960938 501.77734375 l 6,0,1
EndSplineSet
EndChar

StartChar: h
Encoding: 104 104 67
Width: 391
VWidth: 0
Flags: W
LayerCount: 2
Fore
SplineSet
55.0185546875 704.645507812 m 4,0,1
 67.9033203125 704.83984375 67.9033203125 704.83984375 77.0205078125 695.732421875 c 132,-1,2
 86.13671875 686.624023438 86.13671875 686.624023438 85.9541015625 673.73828125 c 6,3,-1
 85.9541015625 501.631835938 l 5,4,-1
 146.7421875 501.755859375 l 6,5,6
 207.599609375 501.755859375 207.599609375 501.755859375 244.614257812 492.9140625 c 132,-1,7
 281.629882812 484.073242188 281.629882812 484.073242188 304.977539062 458.361328125 c 4,8,9
 327.999023438 433.0078125 327.999023438 433.0078125 334.780273438 396.338867188 c 132,-1,10
 341.560546875 359.669921875 341.560546875 359.669921875 341.114257812 296.5 c 6,11,-1
 341.116210938 296.71484375 l 5,12,-1
 341.103515625 24.92578125 l 6,13,14
 341.30078125 12.1630859375 341.30078125 12.1630859375 332.345703125 3.0693359375 c 132,-1,15
 323.390625 -6.025390625 323.390625 -6.025390625 310.626953125 -6.0244140625 c 132,-1,16
 297.86328125 -6.0234375 297.86328125 -6.0234375 288.909179688 3.072265625 c 132,-1,17
 279.955078125 12.16796875 279.955078125 12.16796875 280.155273438 24.9296875 c 6,18,-1
 280.166015625 296.823242188 l 6,19,20
 280.856445312 394.2578125 280.856445312 394.2578125 259.853515625 417.38671875 c 4,21,22
 238.58984375 440.8046875 238.58984375 440.8046875 146.7421875 440.8046875 c 6,23,-1
 85.9541015625 440.681640625 l 5,24,-1
 85.9541015625 23.77734375 l 6,25,26
 86.0634765625 15.4248046875 86.0634765625 15.4248046875 82.0107421875 8.3076171875 c 132,-1,27
 77.9580078125 1.19140625 77.9580078125 1.19140625 70.8955078125 -2.953125 c 132,-1,28
 63.83203125 -7.0986328125 63.83203125 -7.0986328125 55.478515625 -7.0986328125 c 4,29,30
 42.7373046875 -7.0986328125 42.7373046875 -7.0986328125 33.787109375 1.9697265625 c 132,-1,31
 24.8369140625 11.037109375 24.8369140625 11.037109375 25.00390625 23.77734375 c 6,32,-1
 25.00390625 673.73828125 l 6,33,34
 24.82421875 686.353515625 24.82421875 686.353515625 33.61328125 695.404296875 c 132,-1,35
 42.4033203125 704.455078125 42.4033203125 704.455078125 55.0185546875 704.645507812 c 4,0,1
EndSplineSet
EndChar

StartChar: A
Encoding: 65 65 68
Width: 512
VWidth: 0
Flags: W
LayerCount: 2
Fore
SplineSet
279.811523438 701.383789062 m 5,0,-1
 279.913085938 701.383789062 l 5,1,-1
 433.133789062 700.53125 l 6,2,3
 445.287109375 700.462890625 445.287109375 700.462890625 453.888671875 691.8125 c 132,-1,4
 462.490234375 683.162109375 462.490234375 683.162109375 462.490234375 671.0078125 c 4,5,-1
 461.619140625 28.6376953125 l 5,6,-1
 461.622070312 28.2744140625 l 6,7,8
 461.622070312 16.0517578125 461.622070312 16.0517578125 452.971679688 7.40234375 c 132,-1,9
 444.321289062 -1.248046875 444.321289062 -1.248046875 432.098632812 -1.248046875 c 132,-1,10
 419.875976562 -1.248046875 419.875976562 -1.248046875 411.225585938 7.40234375 c 132,-1,11
 402.575195312 16.0517578125 402.575195312 16.0517578125 402.575195312 28.2744140625 c 6,12,-1
 402.578125 28.7177734375 l 5,13,-1
 403.030273438 360.984375 l 5,14,-1
 88.3857421875 361.1796875 l 5,15,-1
 84.16015625 361.182617188 l 5,16,-1
 84.607421875 28.58203125 l 5,17,-1
 84.6103515625 28.138671875 l 6,18,19
 84.6103515625 15.916015625 84.6103515625 15.916015625 75.9599609375 7.265625 c 132,-1,20
 67.3095703125 -1.384765625 67.3095703125 -1.384765625 55.0869140625 -1.384765625 c 132,-1,21
 42.8642578125 -1.384765625 42.8642578125 -1.384765625 34.2138671875 7.265625 c 132,-1,22
 25.5634765625 15.916015625 25.5634765625 15.916015625 25.5634765625 28.138671875 c 6,23,-1
 25.56640625 28.501953125 l 5,24,-1
 25 450.557617188 l 6,25,26
 26.0380859375 580.524414062 26.0380859375 580.524414062 92.4677734375 642.56640625 c 4,27,28
 155.193359375 701.1484375 155.193359375 701.1484375 279.811523438 701.383789062 c 5,0,-1
279.900390625 642.34375 m 6,29,30
 178.533203125 642.15234375 178.533203125 642.15234375 132.7890625 599.4296875 c 4,31,32
 84.900390625 554.70703125 84.900390625 554.70703125 84.064453125 450.374023438 c 4,33,-1
 84.10546875 420.221679688 l 5,34,-1
 88.4453125 420.219726562 l 5,35,-1
 403.134765625 420.022460938 l 5,36,-1
 403.434570312 641.655273438 l 5,37,-1
 279.900390625 642.34375 l 6,29,30
EndSplineSet
EndChar

StartChar: B
Encoding: 66 66 69
Width: 513
VWidth: 0
Flags: W
LayerCount: 2
Fore
SplineSet
158.172851562 702.946289062 m 4,0,1
 231.483398438 702.946289062 231.483398438 702.946289062 273.709960938 680.036132812 c 4,2,3
 316.56640625 656.78515625 316.56640625 656.78515625 333.69921875 607.99609375 c 4,4,5
 345.883789062 573.297851562 345.883789062 573.297851562 347.848632812 520.137695312 c 132,-1,6
 349.813476562 466.977539062 349.813476562 466.977539062 347.237304688 415.196289062 c 5,7,8
 390.112304688 407.443359375 390.112304688 407.443359375 416.2421875 381.287109375 c 4,9,10
 463.295898438 334.19140625 463.295898438 334.19140625 463.295898438 215.298828125 c 132,-1,11
 463.295898438 96.2353515625 463.295898438 96.2353515625 433.336914062 45.7099609375 c 4,12,13
 417.845703125 19.5849609375 417.845703125 19.5849609375 391.484375 7.0546875 c 132,-1,14
 365.123046875 -5.4755859375 365.123046875 -5.4755859375 335.700195312 -4.962890625 c 4,15,16
 314.677734375 -4.9306640625 314.677734375 -4.9306640625 213.9453125 -4.7587890625 c 132,-1,17
 113.211914062 -4.587890625 113.211914062 -4.587890625 55.3427734375 -4.4921875 c 4,18,19
 43.1591796875 -4.4697265625 43.1591796875 -4.4697265625 34.5244140625 4.16796875 c 132,-1,20
 25.8896484375 12.806640625 25.8896484375 12.806640625 25.873046875 24.9892578125 c 6,21,-1
 25 672.534179688 l 6,22,23
 25 684.69140625 25 684.69140625 33.5791015625 693.341796875 c 132,-1,24
 42.158203125 701.991210938 42.158203125 701.991210938 54.2802734375 702.091796875 c 6,25,-1
 158.172851562 702.946289062 l 4,0,1
158.284179688 643.903320312 m 4,26,-1
 84.1162109375 643.291992188 l 5,27,-1
 84.416015625 420.081054688 l 5,28,-1
 288.049804688 419.323242188 l 5,29,30
 288.084960938 424.7265625 288.084960938 424.7265625 288.165039062 435.2890625 c 4,31,32
 289.08203125 556.9609375 289.08203125 556.9609375 278.030273438 588.434570312 c 4,33,34
 268.4375 615.749023438 268.4375 615.749023438 245.592773438 628.141601562 c 4,35,36
 216.5625 643.892578125 216.5625 643.892578125 158.284179688 643.903320312 c 4,26,-1
84.5068359375 361.04296875 m 5,37,-1
 84.919921875 54.4951171875 l 5,38,39
 133.716796875 54.4140625 133.716796875 54.4140625 219.372070312 54.2685546875 c 132,-1,40
 305.02734375 54.123046875 305.02734375 54.123046875 336.30859375 54.0703125 c 6,41,-1
 336.7734375 54.0654296875 l 6,42,43
 356.270507812 53.7255859375 356.270507812 53.7255859375 365.221679688 57.6689453125 c 132,-1,44
 374.173828125 61.611328125 374.173828125 61.611328125 382.59765625 75.8193359375 c 4,45,46
 404.298828125 112.424804688 404.298828125 112.424804688 404.298828125 215.296875 c 4,47,48
 404.298828125 309.755859375 404.298828125 309.755859375 374.517578125 339.563476562 c 4,49,50
 355.549804688 358.548828125 355.549804688 358.548828125 301.99609375 360.201171875 c 4,51,52
 301.630859375 360.21484375 301.630859375 360.21484375 301.26171875 360.23828125 c 6,53,-1
 84.5068359375 361.04296875 l 5,37,-1
EndSplineSet
EndChar

StartChar: C
Encoding: 67 67 70
Width: 517
VWidth: 0
Flags: W
LayerCount: 2
Fore
SplineSet
304.83984375 702.57421875 m 4,0,1
 319.634765625 702.521484375 319.634765625 702.521484375 363.840820312 701.795898438 c 132,-1,2
 408.046875 701.069335938 408.046875 701.069335938 437.137695312 701.111328125 c 6,3,-1
 437.623046875 701.115234375 l 6,4,5
 449.9453125 701.115234375 449.9453125 701.115234375 458.665039062 692.395507812 c 132,-1,6
 467.384765625 683.674804688 467.384765625 683.674804688 467.384765625 671.353515625 c 132,-1,7
 467.384765625 659.032226562 467.384765625 659.032226562 458.665039062 650.311523438 c 132,-1,8
 449.9453125 641.590820312 449.9453125 641.590820312 437.623046875 641.590820312 c 6,9,-1
 437.221679688 641.59375 l 6,10,11
 406.791015625 641.549804688 406.791015625 641.549804688 363.342773438 642.217773438 c 132,-1,12
 319.89453125 642.88671875 319.89453125 642.88671875 302.922851562 642.971679688 c 132,-1,13
 285.951171875 643.057617188 285.951171875 643.057617188 253.899414062 641.82421875 c 4,14,15
 190.28515625 637.811523438 190.28515625 637.811523438 148.64453125 609.791015625 c 4,16,17
 107.774414062 582.294921875 107.774414062 582.294921875 93.1064453125 491.95703125 c 4,18,19
 84.6826171875 440.075195312 84.6826171875 440.075195312 84.525390625 331.235351562 c 4,20,-1
 84.525390625 331.223632812 l 6,21,22
 84.359375 240.369140625 84.359375 240.369140625 96.5673828125 180.768554688 c 4,23,24
 112.614257812 102.44140625 112.614257812 102.44140625 146.385742188 84.4384765625 c 4,25,26
 159.203125 77.607421875 159.203125 77.607421875 172.022460938 72.875 c 132,-1,27
 184.842773438 68.1416015625 184.842773438 68.1416015625 203.076171875 65.267578125 c 132,-1,28
 221.310546875 62.3935546875 221.310546875 62.3935546875 234.21484375 60.8095703125 c 132,-1,29
 247.120117188 59.2265625 247.120117188 59.2265625 274.7109375 58.7880859375 c 132,-1,30
 302.302734375 58.3505859375 302.302734375 58.3505859375 318.258789062 58.3896484375 c 132,-1,31
 334.215820312 58.427734375 334.215820312 58.427734375 374.131835938 58.8994140625 c 132,-1,32
 414.047851562 59.37109375 414.047851562 59.37109375 436.997070312 59.51171875 c 4,33,34
 437.321289062 59.517578125 437.321289062 59.517578125 437.5859375 59.517578125 c 4,35,36
 449.908203125 59.517578125 449.908203125 59.517578125 458.627929688 50.7978515625 c 132,-1,37
 467.34765625 42.0771484375 467.34765625 42.0771484375 467.34765625 29.755859375 c 132,-1,38
 467.34765625 17.4345703125 467.34765625 17.4345703125 458.627929688 8.7138671875 c 132,-1,39
 449.908203125 -0.0068359375 449.908203125 -0.0068359375 437.5859375 -0.0068359375 c 4,40,41
 412.927734375 -0.1552734375 412.927734375 -0.1552734375 365.211914062 -0.87109375 c 132,-1,42
 317.497070312 -1.5869140625 317.497070312 -1.5869140625 299.6171875 -1.537109375 c 132,-1,43
 281.737304688 -1.48828125 281.737304688 -1.48828125 249.012695312 -0.1484375 c 132,-1,44
 216.287109375 1.1904296875 216.287109375 1.1904296875 199.094726562 4.7060546875 c 132,-1,45
 181.903320312 8.2216796875 181.903320312 8.2216796875 159.815429688 14.9140625 c 132,-1,46
 137.727539062 21.6064453125 137.727539062 21.6064453125 118.385742188 31.9150390625 c 4,47,48
 59.919921875 63.080078125 59.919921875 63.080078125 38.255859375 168.826171875 c 4,49,50
 24.8251953125 234.383789062 24.8251953125 234.383789062 25.001953125 331.326171875 c 4,51,-1
 25.001953125 331.336914062 l 6,52,53
 25.16796875 444.947265625 25.16796875 444.947265625 34.3515625 501.50390625 c 4,54,55
 53.1494140625 617.283203125 53.1494140625 617.283203125 115.41015625 659.181640625 c 4,56,57
 170.442382812 696.2109375 170.442382812 696.2109375 250.154296875 701.237304688 c 4,58,59
 267.38671875 702.32421875 267.38671875 702.32421875 289.1796875 702.528320312 c 4,60,61
 296.404296875 702.595703125 296.404296875 702.595703125 304.83984375 702.57421875 c 4,0,1
EndSplineSet
EndChar

StartChar: D
Encoding: 68 68 71
Width: 524
VWidth: 0
Flags: W
LayerCount: 2
Fore
SplineSet
139.090820312 702.387695312 m 4,0,1
 192.297851562 702.325195312 192.297851562 702.325195312 228.272460938 700.090820312 c 4,2,3
 335.450195312 693.435546875 335.450195312 693.435546875 386.094726562 660.776367188 c 4,4,5
 386.340820312 660.619140625 386.340820312 660.619140625 386.609375 660.4375 c 4,6,7
 447.49609375 619.365234375 447.49609375 619.365234375 465.879882812 501.038085938 c 4,8,9
 474.802734375 443.611328125 474.802734375 443.611328125 474.966796875 330.104492188 c 4,10,11
 475.122070312 245.182617188 475.122070312 245.182617188 456.428710938 165.580078125 c 4,12,13
 444.405273438 114.376953125 444.405273438 114.376953125 428.061523438 81.294921875 c 132,-1,14
 411.716796875 48.212890625 411.716796875 48.212890625 380.908203125 31.6474609375 c 4,15,16
 338.571289062 8.8828125 338.571289062 8.8828125 282.68359375 3.7255859375 c 132,-1,17
 226.795898438 -1.431640625 226.795898438 -1.431640625 98.6376953125 -1.33984375 c 4,18,19
 70.0244140625 -1.318359375 70.0244140625 -1.318359375 54.685546875 -1.3369140625 c 4,20,21
 42.376953125 -1.3369140625 42.376953125 -1.3369140625 33.6884765625 7.349609375 c 132,-1,22
 25.0009765625 16.037109375 25.0009765625 16.037109375 25 28.3115234375 c 6,23,-1
 25 672.65625 l 6,24,25
 25.001953125 684.930664062 25.001953125 684.930664062 33.689453125 693.6171875 c 132,-1,26
 42.376953125 702.303710938 42.376953125 702.303710938 54.6513671875 702.303710938 c 4,27,28
 62.380859375 702.134765625 62.380859375 702.134765625 95.7626953125 702.266601562 c 132,-1,29
 129.14453125 702.399414062 129.14453125 702.399414062 139.090820312 702.387695312 c 4,0,1
139.146484375 643.05078125 m 4,30,31
 119.8046875 643.072265625 119.8046875 643.072265625 84.3037109375 643.020507812 c 5,32,-1
 84.3037109375 58.109375 l 5,33,34
 211.134765625 58.390625 211.134765625 58.390625 266.700195312 62.9091796875 c 132,-1,35
 322.266601562 67.4267578125 322.266601562 67.4267578125 352.836914062 83.865234375 c 4,36,37
 362.563476562 89.0947265625 362.563476562 89.0947265625 376.497070312 116.4765625 c 132,-1,38
 390.431640625 143.857421875 390.431640625 143.857421875 398.712890625 179.123046875 c 4,39,40
 415.826171875 251.997070312 415.826171875 251.997070312 415.6796875 329.989257812 c 4,41,-1
 415.6796875 330.001953125 l 6,42,43
 415.5234375 438.977539062 415.5234375 438.977539062 407.296875 491.924804688 c 4,44,45
 392.948242188 584.274414062 392.948242188 584.274414062 353.724609375 611.080078125 c 4,46,47
 315.990234375 635.235351562 315.990234375 635.235351562 224.61328125 640.909179688 c 4,48,49
 191.149414062 642.987304688 191.149414062 642.987304688 139.146484375 643.05078125 c 4,30,31
EndSplineSet
EndChar

StartChar: E
Encoding: 69 69 72
Width: 523
VWidth: 0
Flags: W
LayerCount: 2
Fore
SplineSet
443.192382812 701.227539062 m 4,0,1
 443.52734375 701.2421875 443.52734375 701.2421875 443.87109375 701.2421875 c 4,2,3
 456.09375 701.2421875 456.09375 701.2421875 464.744140625 692.591796875 c 132,-1,4
 473.39453125 683.94140625 473.39453125 683.94140625 473.39453125 671.71875 c 132,-1,5
 473.39453125 659.49609375 473.39453125 659.49609375 464.744140625 650.845703125 c 132,-1,6
 456.09375 642.1953125 456.09375 642.1953125 443.87109375 642.1953125 c 4,7,8
 297.1484375 640.833007812 297.1484375 640.833007812 274.498046875 639.252929688 c 4,9,10
 183.448242188 632.903320312 183.448242188 632.903320312 145.630859375 608.615234375 c 4,11,12
 116.451171875 588.920898438 116.451171875 588.920898438 106.9921875 577.874023438 c 132,-1,13
 97.533203125 566.828125 97.533203125 566.828125 92.115234375 542.650390625 c 4,14,15
 85.392578125 512.647460938 85.392578125 512.647460938 84.439453125 419.927734375 c 5,16,-1
 408.862304688 419.927734375 l 5,17,-1
 409.340820312 419.931640625 l 6,18,19
 421.563476562 419.931640625 421.563476562 419.931640625 430.213867188 411.28125 c 132,-1,20
 438.864257812 402.630859375 438.864257812 402.630859375 438.864257812 390.408203125 c 132,-1,21
 438.864257812 378.185546875 438.864257812 378.185546875 430.213867188 369.53515625 c 132,-1,22
 421.563476562 360.884765625 421.563476562 360.884765625 409.340820312 360.884765625 c 6,23,-1
 408.862304688 360.888671875 l 5,24,-1
 84.1171875 360.888671875 l 5,25,26
 84.076171875 344.448242188 84.076171875 344.448242188 84.052734375 327.974609375 c 4,27,28
 83.8251953125 170.796875 83.8251953125 170.796875 99.91796875 126.041015625 c 4,29,30
 105.6328125 110.146484375 105.6328125 110.146484375 115.557617188 101.680664062 c 4,31,32
 122.091796875 96.1083984375 122.091796875 96.1083984375 146.6171875 82.919921875 c 4,33,34
 178.916992188 65.5498046875 178.916992188 65.5498046875 237.0703125 61.4228515625 c 132,-1,35
 295.224609375 57.296875 295.224609375 57.296875 443.505859375 57.12109375 c 4,36,37
 456.096679688 57.123046875 456.096679688 57.123046875 464.747070312 48.47265625 c 132,-1,38
 473.397460938 39.822265625 473.397460938 39.822265625 473.397460938 27.599609375 c 132,-1,39
 473.397460938 15.376953125 473.397460938 15.376953125 464.747070312 6.7275390625 c 132,-1,40
 456.096679688 -1.9228515625 456.096679688 -1.9228515625 443.874023438 -1.9228515625 c 4,41,42
 428.16015625 -1.9013671875 428.16015625 -1.9013671875 399.6640625 -1.921875 c 4,43,44
 272.078125 -2.013671875 272.078125 -2.013671875 216.436523438 3.12109375 c 132,-1,45
 160.794921875 8.2548828125 160.794921875 8.2548828125 118.647460938 30.9189453125 c 4,46,47
 88.5849609375 47.08203125 88.5849609375 47.08203125 77.23828125 56.7587890625 c 4,48,49
 55.375 75.40625 55.375 75.40625 44.3515625 106.064453125 c 4,50,51
 24.76171875 160.55078125 24.76171875 160.55078125 25.0029296875 328.053710938 c 4,52,53
 25.0205078125 340.466796875 25.0205078125 340.466796875 25.0234375 364.688476562 c 132,-1,54
 25.0263671875 388.91015625 25.0263671875 388.91015625 25.0517578125 398.98828125 c 132,-1,55
 25.076171875 409.065429688 25.076171875 409.065429688 25.1875 428.135742188 c 132,-1,56
 25.298828125 447.205078125 25.298828125 447.205078125 25.55078125 456.015625 c 132,-1,57
 25.8017578125 464.825195312 25.8017578125 464.825195312 26.2392578125 479.364257812 c 132,-1,58
 26.6767578125 493.903320312 26.6767578125 493.903320312 27.373046875 502.067382812 c 132,-1,59
 28.068359375 510.231445312 28.068359375 510.231445312 29.05078125 520.860351562 c 132,-1,60
 30.0322265625 531.489257812 30.0322265625 531.489257812 31.390625 539.627929688 c 132,-1,61
 32.748046875 547.766601562 32.748046875 547.766601562 34.4931640625 555.553710938 c 4,62,63
 41.94921875 588.826171875 41.94921875 588.826171875 61.08984375 612.274414062 c 132,-1,64
 80.23046875 635.723632812 80.23046875 635.723632812 112.969726562 657.8125 c 4,65,66
 113.275390625 658.016601562 113.275390625 658.016601562 113.481445312 658.1484375 c 4,67,68
 163.991210938 690.723632812 163.991210938 690.723632812 270.381835938 698.14453125 c 4,69,70
 294.83984375 699.850585938 294.83984375 699.850585938 443.192382812 701.227539062 c 4,0,1
EndSplineSet
EndChar

StartChar: F
Encoding: 70 70 73
Width: 523
VWidth: 0
Flags: W
LayerCount: 2
Fore
SplineSet
375.250976562 700.618164062 m 4,0,1
 381.578125 700.620117188 381.578125 700.620117188 405.537109375 700.598632812 c 132,-1,2
 429.49609375 700.577148438 429.49609375 700.577148438 443.489257812 700.577148438 c 6,3,-1
 443.89453125 700.580078125 l 6,4,5
 456.1171875 700.580078125 456.1171875 700.580078125 464.767578125 691.9296875 c 132,-1,6
 473.41796875 683.279296875 473.41796875 683.279296875 473.41796875 671.056640625 c 132,-1,7
 473.41796875 658.833984375 473.41796875 658.833984375 464.767578125 650.18359375 c 132,-1,8
 456.1171875 641.533203125 456.1171875 641.533203125 443.89453125 641.533203125 c 6,9,-1
 443.489257812 641.536132812 l 6,10,11
 160.110351562 641.536132812 160.110351562 641.536132812 114.922851562 622.8515625 c 4,12,13
 101.704101562 617.384765625 101.704101562 617.384765625 97.158203125 612.28125 c 132,-1,14
 92.6123046875 607.176757812 92.6123046875 607.176757812 89.2197265625 595.030273438 c 4,15,16
 84.0439453125 576.5 84.0439453125 576.5 84.0439453125 512.673828125 c 6,17,-1
 84.0439453125 419.797851562 l 5,18,-1
 346.232421875 419.797851562 l 6,19,20
 358.860351562 419.80078125 358.860351562 419.80078125 367.510742188 411.150390625 c 132,-1,21
 376.161132812 402.5 376.161132812 402.5 376.161132812 390.27734375 c 132,-1,22
 376.161132812 378.0546875 376.161132812 378.0546875 367.510742188 369.404296875 c 132,-1,23
 358.860351562 360.75390625 358.860351562 360.75390625 346.637695312 360.75390625 c 4,24,-1
 84.0439453125 360.756835938 l 5,25,-1
 84.0439453125 28.7900390625 l 5,26,-1
 84.046875 28.3857421875 l 6,27,28
 84.046875 16.1630859375 84.046875 16.1630859375 75.396484375 7.5126953125 c 132,-1,29
 66.74609375 -1.1376953125 66.74609375 -1.1376953125 54.5234375 -1.1376953125 c 132,-1,30
 42.30078125 -1.1376953125 42.30078125 -1.1376953125 33.650390625 7.5126953125 c 132,-1,31
 25 16.1630859375 25 16.1630859375 25 28.3857421875 c 6,32,-1
 25.0029296875 28.7900390625 l 5,33,-1
 25.0029296875 512.66796875 l 6,34,35
 25.0029296875 584.579101562 25.0029296875 584.579101562 32.35546875 610.90625 c 4,36,37
 45.517578125 658.037109375 45.517578125 658.037109375 92.3623046875 677.408203125 c 4,38,39
 129.537109375 692.78125 129.537109375 692.78125 188.561523438 696.731445312 c 132,-1,40
 247.586914062 700.682617188 247.586914062 700.682617188 375.250976562 700.618164062 c 4,0,1
EndSplineSet
EndChar

StartChar: G
Encoding: 71 71 74
Width: 527
VWidth: 0
Flags: W
LayerCount: 2
Fore
SplineSet
315.096679688 698.7265625 m 4,0,1
 320.665039062 698.712890625 320.665039062 698.712890625 326.178710938 698.67578125 c 4,2,3
 330.1875 698.649414062 330.1875 698.649414062 367.969726562 698.25390625 c 132,-1,4
 405.751953125 697.858398438 405.751953125 697.858398438 428.935546875 697.890625 c 4,5,6
 441.612304688 697.89453125 441.612304688 697.89453125 450.239257812 689.267578125 c 132,-1,7
 458.8671875 680.639648438 458.8671875 680.639648438 458.8671875 668.44921875 c 132,-1,8
 458.8671875 656.258789062 458.8671875 656.258789062 450.239257812 647.630859375 c 132,-1,9
 441.612304688 639.002929688 441.612304688 639.002929688 429.420898438 639.002929688 c 4,10,11
 402.565429688 638.969726562 402.565429688 638.969726562 360.641601562 639.443359375 c 132,-1,12
 318.717773438 639.916015625 318.717773438 639.916015625 293.947265625 639.71875 c 132,-1,13
 269.17578125 639.520507812 269.17578125 639.520507812 249.853515625 638.0625 c 4,14,15
 187.8359375 633.380859375 187.8359375 633.380859375 146.444335938 605.793945312 c 4,16,17
 106.783203125 579.362304688 106.783203125 579.362304688 92.3095703125 487.341796875 c 4,18,19
 84.0439453125 434.788085938 84.0439453125 434.788085938 83.8876953125 326.638671875 c 4,20,-1
 83.8876953125 326.631835938 l 6,21,22
 83.7548828125 248.134765625 83.7548828125 248.134765625 100.361328125 177.380859375 c 4,23,24
 108.661132812 142.01953125 108.661132812 142.01953125 122.521484375 115.0859375 c 132,-1,25
 136.380859375 88.1513671875 136.380859375 88.1513671875 147.30078125 82.244140625 c 4,26,27
 178.790039062 65.2099609375 178.790039062 65.2099609375 233.061523438 61.1513671875 c 132,-1,28
 287.333984375 57.0927734375 287.333984375 57.0927734375 418.260742188 57.107421875 c 5,29,-1
 418.260742188 267.248046875 l 5,30,-1
 418.2578125 267.665039062 l 6,31,32
 418.2578125 279.672851562 418.2578125 279.672851562 426.754882812 288.298828125 c 132,-1,33
 435.250976562 296.924804688 435.250976562 296.924804688 447.2578125 297.10546875 c 4,34,35
 459.889648438 297.108398438 459.889648438 297.108398438 468.516601562 288.481445312 c 132,-1,36
 477.143554688 279.854492188 477.143554688 279.854492188 477.143554688 267.665039062 c 6,37,-1
 477.140625 267.248046875 l 5,38,-1
 477.140625 28.552734375 l 5,39,-1
 477.142578125 28.166015625 l 6,40,41
 477.142578125 10.6015625 477.142578125 10.6015625 461.686523438 2.2568359375 c 4,42,43
 454.791015625 -1.78515625 454.791015625 -1.78515625 446.796875 -1.78515625 c 6,44,-1
 446.49609375 -1.7841796875 l 6,45,46
 426.142578125 -1.7841796875 426.142578125 -1.7841796875 386.61328125 -1.9404296875 c 132,-1,47
 347.083007812 -2.095703125 347.083007812 -2.095703125 331.541992188 -2.052734375 c 132,-1,48
 316.000976562 -2.0087890625 316.000976562 -2.0087890625 286.372070312 -1.517578125 c 132,-1,49
 256.743164062 -1.0263671875 256.743164062 -1.0263671875 243.477539062 0.1953125 c 132,-1,50
 230.211914062 1.4169921875 230.211914062 1.4169921875 208.793945312 3.693359375 c 132,-1,51
 187.375976562 5.970703125 187.375976562 5.970703125 174.6953125 9.509765625 c 132,-1,52
 162.014648438 13.0478515625 162.014648438 13.0478515625 147.1171875 18.25 c 132,-1,53
 132.220703125 23.4521484375 132.220703125 23.4521484375 119.282226562 30.451171875 c 4,54,55
 88.361328125 47.1787109375 88.361328125 47.1787109375 71.5830078125 80.470703125 c 132,-1,56
 54.8056640625 113.762695312 54.8056640625 113.762695312 43.0322265625 163.923828125 c 4,57,58
 24.8583984375 241.357421875 24.8583984375 241.357421875 25.0009765625 326.72265625 c 4,59,60
 25.166015625 439.436523438 25.166015625 439.436523438 34.1396484375 496.491210938 c 4,61,62
 52.626953125 614.033203125 52.626953125 614.033203125 113.78515625 654.793945312 c 4,63,64
 168.021484375 690.940429688 168.021484375 690.940429688 245.421875 696.78125 c 4,65,66
 272.49609375 698.82421875 272.49609375 698.82421875 315.096679688 698.7265625 c 4,0,1
EndSplineSet
EndChar

StartChar: H
Encoding: 72 72 75
Width: 512
VWidth: 0
Flags: W
LayerCount: 2
Fore
SplineSet
54.0517578125 702.44921875 m 4,0,-1
 54.53125 702.453125 l 6,1,2
 66.75390625 702.453125 66.75390625 702.453125 75.404296875 693.802734375 c 132,-1,3
 84.0546875 685.15234375 84.0546875 685.15234375 84.0546875 672.9296875 c 4,4,-1
 84.271484375 420.02734375 l 5,5,-1
 403.116210938 419.829101562 l 5,6,-1
 403.45703125 672.518554688 l 6,7,8
 403.454101562 684.951171875 403.454101562 684.951171875 411.985351562 693.600585938 c 132,-1,9
 420.516601562 702.25 420.516601562 702.25 432.571289062 702.416015625 c 6,10,-1
 432.977539062 702.418945312 l 6,11,12
 445.200195312 702.418945312 445.200195312 702.418945312 453.850585938 693.768554688 c 132,-1,13
 462.500976562 685.118164062 462.500976562 685.118164062 462.500976562 672.895507812 c 6,14,-1
 462.498046875 672.438476562 l 5,15,-1
 461.627929688 28.2607421875 l 6,16,17
 461.629882812 15.6748046875 461.629882812 15.6748046875 452.979492188 7.0244140625 c 132,-1,18
 444.329101562 -1.6259765625 444.329101562 -1.6259765625 432.106445312 -1.6259765625 c 132,-1,19
 419.883789062 -1.6259765625 419.883789062 -1.6259765625 411.233398438 7.0244140625 c 132,-1,20
 402.583007812 15.6748046875 402.583007812 15.6748046875 402.583007812 27.8974609375 c 4,21,-1
 403.03515625 360.796875 l 5,22,-1
 84.3134765625 360.994140625 l 5,23,-1
 84.6015625 28.1943359375 l 6,24,25
 84.60546875 15.541015625 84.60546875 15.541015625 75.955078125 6.890625 c 132,-1,26
 67.3046875 -1.759765625 67.3046875 -1.759765625 55.08203125 -1.759765625 c 132,-1,27
 42.859375 -1.759765625 42.859375 -1.759765625 34.208984375 6.890625 c 132,-1,28
 25.55859375 15.541015625 25.55859375 15.541015625 25.55859375 27.763671875 c 4,29,-1
 25.0029296875 672.486328125 l 5,30,-1
 25 672.9296875 l 6,31,32
 25 684.958984375 25 684.958984375 33.5126953125 693.608398438 c 132,-1,33
 42.0244140625 702.256835938 42.0244140625 702.256835938 54.0517578125 702.44921875 c 4,0,-1
EndSplineSet
EndChar

StartChar: I
Encoding: 73 73 76
Width: 134
VWidth: 0
Flags: W
LayerCount: 2
Fore
SplineSet
53.9736328125 702.643554688 m 6,0,-1
 54.4443359375 702.647460938 l 6,1,2
 66.634765625 702.647460938 66.634765625 702.647460938 75.26171875 694.01953125 c 132,-1,3
 83.8896484375 685.391601562 83.8896484375 685.391601562 83.8896484375 673.201171875 c 4,4,-1
 84.4423828125 28.5458984375 l 5,5,-1
 84.4462890625 28.07421875 l 6,6,7
 84.4462890625 15.8837890625 84.4462890625 15.8837890625 75.818359375 7.255859375 c 132,-1,8
 67.19140625 -1.37109375 67.19140625 -1.37109375 55.0009765625 -1.37109375 c 132,-1,9
 42.810546875 -1.37109375 42.810546875 -1.37109375 34.1826171875 7.2568359375 c 132,-1,10
 25.5546875 15.8837890625 25.5546875 15.8837890625 25.5546875 28.07421875 c 4,11,-1
 25 672.760742188 l 6,12,13
 24.9970703125 685.19921875 24.9970703125 685.19921875 33.4873046875 693.826171875 c 132,-1,14
 41.9775390625 702.452148438 41.9775390625 702.452148438 53.9736328125 702.643554688 c 6,0,-1
EndSplineSet
EndChar

StartChar: J
Encoding: 74 74 77
Width: 391
VWidth: 0
Flags: W
LayerCount: 2
Fore
SplineSet
311.88671875 702.333007812 m 6,0,-1
 312.331054688 702.3359375 l 6,1,2
 324.6015625 702.3359375 324.6015625 702.3359375 333.286132812 693.651367188 c 132,-1,3
 341.970703125 684.967773438 341.970703125 684.967773438 341.970703125 672.697265625 c 6,4,-1
 341.967773438 672.278320312 l 5,5,-1
 341.967773438 206.7578125 l 6,6,7
 341.967773438 143.536132812 341.967773438 143.536132812 328.711914062 105.236328125 c 4,8,9
 313.172851562 60.3408203125 313.172851562 60.3408203125 276.188476562 35.9873046875 c 4,10,11
 241.665039062 13.255859375 241.665039062 13.255859375 191.552734375 6.03125 c 132,-1,12
 141.439453125 -1.193359375 141.439453125 -1.193359375 55.0859375 -1.193359375 c 6,13,-1
 54.638671875 -1.197265625 l 6,14,15
 42.3681640625 -1.197265625 42.3681640625 -1.197265625 33.6845703125 7.4873046875 c 132,-1,16
 25 16.1708984375 25 16.1708984375 25 28.44140625 c 132,-1,17
 25 40.7119140625 25 40.7119140625 33.6845703125 49.396484375 c 132,-1,18
 42.3681640625 58.0810546875 42.3681640625 58.0810546875 54.638671875 58.0810546875 c 6,19,-1
 55.0859375 58.0771484375 l 6,20,21
 201.954101562 58.0771484375 201.954101562 58.0771484375 243.590820312 85.4921875 c 4,22,23
 263.75 98.767578125 263.75 98.767578125 272.698242188 124.622070312 c 4,24,25
 282.696289062 153.508789062 282.696289062 153.508789062 282.696289062 206.7578125 c 6,26,-1
 282.696289062 672.278320312 l 5,27,-1
 282.693359375 672.697265625 l 6,28,29
 282.693359375 684.78515625 282.693359375 684.78515625 291.247070312 693.467773438 c 132,-1,30
 299.80078125 702.151367188 299.80078125 702.151367188 311.88671875 702.333007812 c 6,0,-1
EndSplineSet
EndChar

StartChar: P
Encoding: 80 80 78
Width: 393
VWidth: 0
Flags: W
LayerCount: 2
Fore
SplineSet
130.431640625 703.22265625 m 4,0,1
 186.0625 703.186523438 186.0625 703.186523438 218.078125 698.671875 c 132,-1,2
 250.092773438 694.15625 250.092773438 694.15625 276.213867188 679.474609375 c 4,3,4
 300.145507812 666.022460938 300.145507812 666.022460938 311.499023438 642.473632812 c 132,-1,5
 322.853515625 618.924804688 322.853515625 618.924804688 331.248046875 581.798828125 c 4,6,7
 343.51171875 527.571289062 343.51171875 527.571289062 343.349609375 468.087890625 c 4,8,9
 343.239257812 390.099609375 343.239257812 390.099609375 337.21484375 350.296875 c 4,10,11
 324.420898438 265.772460938 324.420898438 265.772460938 280.65234375 235.462890625 c 4,12,13
 242.513671875 209.052734375 242.513671875 209.052734375 188.516601562 204.81640625 c 4,14,15
 170.607421875 203.412109375 170.607421875 203.412109375 84.7099609375 203.970703125 c 5,16,-1
 84.7099609375 28.181640625 l 6,17,18
 84.712890625 19.7744140625 84.712890625 19.7744140625 80.767578125 12.9853515625 c 132,-1,19
 76.8212890625 6.1953125 76.8212890625 6.1953125 70.03125 2.2490234375 c 132,-1,20
 63.2412109375 -1.6962890625 63.2412109375 -1.6962890625 55.2392578125 -1.6962890625 c 4,21,22
 43.0380859375 -1.6962890625 43.0380859375 -1.6962890625 34.40234375 6.939453125 c 132,-1,23
 25.7666015625 15.5751953125 25.7666015625 15.5751953125 25.7666015625 27.7763671875 c 4,24,-1
 25.76953125 666.79296875 l 6,25,26
 25 670.091796875 25 670.091796875 25 673.482421875 c 4,27,28
 25 685.685546875 25 685.685546875 33.63671875 694.321289062 c 132,-1,29
 42.2724609375 702.958007812 42.2724609375 702.958007812 54.4755859375 702.958007812 c 4,30,31
 69.486328125 702.956054688 69.486328125 702.956054688 94.607421875 703.092773438 c 132,-1,32
 119.727539062 703.229492188 119.727539062 703.229492188 130.431640625 703.22265625 c 4,0,1
84.7314453125 643.982421875 m 5,33,-1
 84.732421875 262.930664062 l 5,34,35
 170.043945312 262.495117188 170.043945312 262.495117188 183.9296875 263.583984375 c 4,36,37
 222.060546875 266.575195312 222.060546875 266.575195312 247.115234375 283.92578125 c 4,38,39
 269.967773438 299.750976562 269.967773438 299.750976562 278.955078125 359.12109375 c 4,40,41
 284.321289062 394.576171875 284.321289062 394.576171875 284.42578125 468.208007812 c 4,42,-1
 284.42578125 468.244140625 l 6,43,44
 284.568359375 521.0625 284.568359375 521.0625 273.774414062 568.797851562 c 4,45,46
 270.35546875 583.920898438 270.35546875 583.920898438 264.447265625 598.09375 c 132,-1,47
 258.540039062 612.266601562 258.540039062 612.266601562 253.973632812 619.6015625 c 132,-1,48
 249.40625 626.936523438 249.40625 626.936523438 247.353515625 628.08984375 c 4,49,50
 229.403320312 638.180664062 229.403320312 638.180664062 195.483398438 641.0234375 c 132,-1,51
 161.5625 643.866210938 161.5625 643.866210938 84.7314453125 643.982421875 c 5,33,-1
EndSplineSet
EndChar

StartChar: Q
Encoding: 81 81 79
Width: 549
VWidth: 0
Flags: W
LayerCount: 2
Fore
SplineSet
262.111328125 705.33203125 m 5,0,-1
 262.110351562 705.34375 l 5,1,2
 323.880859375 705.34375 323.880859375 705.34375 362.587890625 692.255859375 c 4,3,4
 379.700195312 686.470703125 379.700195312 686.470703125 407.895507812 669.159179688 c 4,5,6
 441.379882812 648.599609375 441.379882812 648.599609375 458.462890625 609.994140625 c 132,-1,7
 475.545898438 571.387695312 475.545898438 571.387695312 485.689453125 515.225585938 c 4,8,9
 499.072265625 441.119140625 499.072265625 441.119140625 499.22265625 339.615234375 c 4,10,11
 499.450195312 254.790039062 499.450195312 254.790039062 480.506835938 174.544921875 c 4,12,13
 468.678710938 124.435546875 468.678710938 124.435546875 452.688476562 91.2958984375 c 132,-1,14
 436.697265625 58.15625 436.697265625 58.15625 407.60546875 40.1884765625 c 4,15,16
 406.559570312 39.54296875 406.559570312 39.54296875 400.208984375 35.5400390625 c 132,-1,17
 393.857421875 31.5380859375 393.857421875 31.5380859375 391.424804688 30.138671875 c 132,-1,18
 388.9921875 28.740234375 388.9921875 28.740234375 382.291015625 24.908203125 c 132,-1,19
 375.58984375 21.0751953125 375.58984375 21.0751953125 371.19140625 19.2470703125 c 132,-1,20
 366.79296875 17.4189453125 366.79296875 17.4189453125 359.338867188 14.181640625 c 132,-1,21
 351.885742188 10.9443359375 351.885742188 10.9443359375 345.118164062 9.1123046875 c 132,-1,22
 338.3515625 7.2802734375 338.3515625 7.2802734375 329.743164062 5.0625 c 132,-1,23
 321.134765625 2.8447265625 321.134765625 2.8447265625 311.596679688 1.43359375 c 132,-1,24
 302.059570312 0.0224609375 302.059570312 0.0224609375 291.716796875 -0.8515625 c 5,25,-1
 291.862304688 -39.255859375 l 5,26,-1
 291.866210938 -39.755859375 l 6,27,28
 291.866210938 -51.958984375 291.866210938 -51.958984375 283.229492188 -60.5947265625 c 132,-1,29
 274.59375 -69.2314453125 274.59375 -69.2314453125 262.390625 -69.2314453125 c 132,-1,30
 250.1875 -69.2314453125 250.1875 -69.2314453125 241.551757812 -60.5947265625 c 132,-1,31
 232.915039062 -51.958984375 232.915039062 -51.958984375 232.915039062 -39.755859375 c 6,32,-1
 232.916992188 -39.4765625 l 5,33,-1
 232.771484375 -0.875 l 5,34,35
 203.53515625 1.5693359375 203.53515625 1.5693359375 177.171875 10.509765625 c 132,-1,36
 150.807617188 19.44921875 150.807617188 19.44921875 144.028320312 23.447265625 c 132,-1,37
 137.249023438 27.4462890625 137.249023438 27.4462890625 116.615234375 40.1884765625 c 4,38,39
 87.5234375 58.15625 87.5234375 58.15625 71.5478515625 91.2890625 c 132,-1,40
 55.572265625 124.421875 55.572265625 124.421875 43.7509765625 174.543945312 c 4,41,42
 24.8583984375 254.651367188 24.8583984375 254.651367188 25.0009765625 339.599609375 c 4,43,-1
 25.0009765625 339.63671875 l 6,44,45
 25.30078125 441.56640625 25.30078125 441.56640625 38.58203125 515.21484375 c 4,46,47
 48.712890625 571.389648438 48.712890625 571.389648438 65.7783203125 609.990234375 c 132,-1,48
 82.84375 648.590820312 82.84375 648.590820312 116.330078125 669.147460938 c 4,49,50
 144.520507812 686.458007812 144.520507812 686.458007812 161.635742188 692.244140625 c 4,51,52
 200.342773438 705.33203125 200.342773438 705.33203125 262.111328125 705.33203125 c 5,0,-1
262.088867188 645.772460938 m 132,-1,54
 210.123046875 645.776367188 210.123046875 645.776367188 180.69140625 635.82421875 c 4,55,56
 169.947265625 632.190429688 169.947265625 632.190429688 147.470703125 618.393554688 c 4,57,58
 132.954101562 609.478515625 132.954101562 609.478515625 118.830078125 577.932617188 c 132,-1,59
 104.706054688 546.38671875 104.706054688 546.38671875 97.177734375 504.637695312 c 4,60,61
 84.826171875 436.14453125 84.826171875 436.14453125 84.541015625 339.493164062 c 4,62,63
 84.4111328125 261.532226562 84.4111328125 261.532226562 101.702148438 188.2109375 c 4,64,65
 110.057617188 152.783203125 110.057617188 152.783203125 123.850585938 124.986328125 c 132,-1,66
 137.642578125 97.189453125 137.642578125 97.189453125 147.893554688 90.8564453125 c 4,67,68
 151.8125 88.4365234375 151.8125 88.4365234375 161.5234375 81.9921875 c 132,-1,69
 171.234375 75.546875 171.234375 75.546875 175.60546875 73.26171875 c 132,-1,70
 179.977539062 70.9765625 179.977539062 70.9765625 188.9921875 67.1005859375 c 132,-1,71
 198.006835938 63.2236328125 198.006835938 63.2236328125 208.349609375 61.3603515625 c 132,-1,72
 218.692382812 59.4970703125 218.692382812 59.4970703125 232.528320312 58.4755859375 c 5,73,-1
 232.341796875 107.950195312 l 6,74,75
 232.337890625 120.454101562 232.337890625 120.454101562 240.810546875 129.088867188 c 132,-1,76
 249.284179688 137.723632812 249.284179688 137.723632812 261.256835938 137.950195312 c 4,77,78
 261.512695312 137.955078125 261.512695312 137.955078125 261.8125 137.955078125 c 4,79,80
 274.015625 137.955078125 274.015625 137.955078125 282.651367188 129.318359375 c 132,-1,81
 291.288085938 120.682617188 291.288085938 120.682617188 291.288085938 108.479492188 c 4,82,-1
 291.473632812 58.4619140625 l 5,83,84
 305.353515625 59.478515625 305.353515625 59.478515625 315.72265625 61.3369140625 c 132,-1,85
 326.092773438 63.1953125 326.092773438 63.1953125 335.1328125 67.0791015625 c 132,-1,86
 344.172851562 70.9619140625 344.172851562 70.9619140625 348.540039062 73.240234375 c 132,-1,87
 352.908203125 75.51953125 352.908203125 75.51953125 362.646484375 81.9814453125 c 132,-1,88
 372.384765625 88.4443359375 372.384765625 88.4443359375 376.2890625 90.85546875 c 4,89,90
 386.546875 97.19140625 386.546875 97.19140625 400.3515625 124.991210938 c 132,-1,91
 414.155273438 152.791015625 414.155273438 152.791015625 422.518554688 188.216796875 c 4,92,93
 439.856445312 261.662109375 439.856445312 261.662109375 439.643554688 339.4609375 c 4,94,-1
 439.643554688 339.5 l 6,95,96
 439.505859375 435.71484375 439.505859375 435.71484375 427.05859375 504.633789062 c 4,97,98
 419.51953125 546.373046875 419.51953125 546.373046875 405.37890625 577.922851562 c 132,-1,99
 391.23828125 609.473632812 391.23828125 609.473632812 376.715820312 618.389648438 c 4,100,101
 354.249023438 632.18359375 354.249023438 632.18359375 343.493164062 635.8203125 c 4,102,53
 314.05859375 645.772460938 314.05859375 645.772460938 262.088867188 645.772460938 c 132,-1,54
EndSplineSet
EndChar

StartChar: R
Encoding: 82 82 80
Width: 513
VWidth: 0
Flags: W
LayerCount: 2
Fore
SplineSet
157.932617188 702.078125 m 5,0,-1
 158.051757812 702.081054688 l 6,1,2
 231.456054688 702.081054688 231.456054688 702.081054688 273.618164062 679.393554688 c 4,3,4
 316.526367188 656.306640625 316.526367188 656.306640625 333.678710938 607.736328125 c 4,5,6
 345.8671875 573.231445312 345.8671875 573.231445312 347.844726562 520.3828125 c 132,-1,7
 349.822265625 467.533203125 349.822265625 467.533203125 347.2421875 415.903320312 c 5,8,9
 389.739257812 408.97265625 389.739257812 408.97265625 415.771484375 384.041015625 c 4,10,11
 463.291015625 338.530273438 463.291015625 338.530273438 463.291015625 219.640625 c 6,12,-1
 463.291015625 28.029296875 l 6,13,14
 463.293945312 15.40234375 463.293945312 15.40234375 454.643554688 6.751953125 c 132,-1,15
 445.993164062 -1.8984375 445.993164062 -1.8984375 433.770507812 -1.8984375 c 132,-1,16
 421.547851562 -1.8984375 421.547851562 -1.8984375 412.897460938 6.751953125 c 132,-1,17
 404.247070312 15.40234375 404.247070312 15.40234375 404.247070312 27.625 c 4,18,-1
 404.25 219.640625 l 6,19,20
 404.25 313.3203125 404.25 313.3203125 374.93359375 341.396484375 c 4,21,22
 356.81640625 358.748046875 356.81640625 358.748046875 301.947265625 360.439453125 c 4,23,24
 301.58203125 360.453125 301.58203125 360.453125 301.217773438 360.4765625 c 6,25,-1
 84.4619140625 361.279296875 l 5,26,-1
 84.9111328125 29.4130859375 l 6,27,28
 84.9150390625 16.7470703125 84.9150390625 16.7470703125 76.2646484375 8.0966796875 c 132,-1,29
 67.6142578125 -0.5537109375 67.6142578125 -0.5537109375 55.3916015625 -0.5537109375 c 132,-1,30
 43.1689453125 -0.5537109375 43.1689453125 -0.5537109375 34.5185546875 8.0966796875 c 132,-1,31
 25.8681640625 16.7470703125 25.8681640625 16.7470703125 25.8681640625 28.9697265625 c 4,32,-1
 25 671.666015625 l 6,33,34
 25 683.825195312 25 683.825195312 33.578125 692.474609375 c 132,-1,35
 42.15625 701.125 42.15625 701.125 54.27734375 701.225585938 c 6,36,-1
 157.932617188 702.078125 l 5,0,-1
158.131835938 643.038085938 m 5,37,-1
 84.0419921875 642.418945312 l 5,38,-1
 84.34375 420.318359375 l 5,39,-1
 287.965820312 419.561523438 l 5,40,41
 288.000976562 424.932617188 288.000976562 424.932617188 288.079101562 435.431640625 c 4,42,43
 288.98828125 556.861328125 288.98828125 556.861328125 277.965820312 588.072265625 c 4,44,45
 268.41015625 615.125976562 268.41015625 615.125976562 245.599609375 627.400390625 c 4,46,47
 216.536132812 643.038085938 216.536132812 643.038085938 158.131835938 643.038085938 c 5,37,-1
EndSplineSet
EndChar

